<mxfile host="app.diagrams.net" modified="2022-11-10T09:39:18.958Z" agent="5.0 (X11; Linux x86_64) AppleWebKit/537.36 (KHTML, like Gecko) Chrome/106.0.0.0 Safari/537.36" etag="7J4mBASbly7XhznHWRnU" version="20.5.3" type="github">
  <diagram name="Page-1" id="c7558073-3199-34d8-9f00-42111426c3f3">
    <mxGraphModel dx="1588" dy="909" grid="1" gridSize="2" guides="1" tooltips="1" connect="1" arrows="1" fold="1" page="0" pageScale="1" pageWidth="1169" pageHeight="827" math="0" shadow="0">
      <root>
        <mxCell id="0" />
        <mxCell id="1" parent="0" />
        <mxCell id="CB4tVec-n4E3JrC9PapR-180" value="" style="rounded=0;whiteSpace=wrap;html=1;fontSize=9;fontStyle=1" vertex="1" parent="1">
          <mxGeometry x="230" y="560" width="440" height="72" as="geometry" />
        </mxCell>
        <mxCell id="CB4tVec-n4E3JrC9PapR-120" value="" style="rounded=0;whiteSpace=wrap;html=1;fontSize=9;fontStyle=1" vertex="1" parent="1">
          <mxGeometry x="500" y="468" width="360" height="80" as="geometry" />
        </mxCell>
        <mxCell id="CB4tVec-n4E3JrC9PapR-119" value="" style="rounded=0;whiteSpace=wrap;html=1;fontSize=9;fontStyle=1" vertex="1" parent="1">
          <mxGeometry x="250" y="470" width="230" height="80" as="geometry" />
        </mxCell>
        <mxCell id="CB4tVec-n4E3JrC9PapR-219" value="" style="edgeStyle=orthogonalEdgeStyle;rounded=0;orthogonalLoop=1;jettySize=auto;html=1;strokeColor=default;fontFamily=Helvetica;fontSize=9;fontColor=default;elbow=vertical;" edge="1" parent="1" source="CB4tVec-n4E3JrC9PapR-97">
          <mxGeometry relative="1" as="geometry">
            <mxPoint x="125" y="349" as="targetPoint" />
          </mxGeometry>
        </mxCell>
        <mxCell id="CB4tVec-n4E3JrC9PapR-97" value="" style="shape=image;verticalLabelPosition=bottom;verticalAlign=top;imageAspect=0;image=data:image/jpeg,/9j/4AAQSkZJRgABAQAAAQABAAD/7QAcUGhvdG9zaG9wIDMuMAA4QklNBAQAAAAAAAD/4hD4SUNDX1BST0ZJTEUAAQEAABDoYXBwbAIAAABtbnRyUkdCIFhZWiAH1gAGAAMAFQAUABJhY3NwQVBQTAAAAAAAAAAAAAAAAAAAAAAAAAAAAAAAAAAA9tYAAQAAAADTLWFwcGwAAAAAAAAAAAAAAAAAAAAAAAAAAAAAAAAAAAAAAAAAAAAAAAAAAAAAAAAAAAAAAA5yWFlaAAABLAAAABRnWFlaAAABQAAAABRiWFlaAAABVAAAABR3dHB0AAABaAAAABRjaGFkAAABfAAAACxyVFJDAAABqAAAAA5nVFJDAAABuAAAAA5iVFJDAAAByAAAAA52Y2d0AAAB2AAABhJuZGluAAAH7AAABj5kZXNjAAAOLAAAAGRkc2NtAAAOkAAAAf5tbW9kAAAQkAAAAChjcHJ0AAAQuAAAAC1YWVogAAAAAAAAW3wAADTHAAAGs1hZWiAAAAAAAABzxQAAs0QAAB70WFlaIAAAAAAAACeUAAAYEAAArX5YWVogAAAAAAAA81IAAQAAAAEWz3NmMzIAAAAAAAEMQgAABd7///MmAAAHkgAA/ZH///ui///9owAAA9wAAMBsY3VydgAAAAAAAAABAc0AAGN1cnYAAAAAAAAAAQHNAABjdXJ2AAAAAAAAAAEBzQAAdmNndAAAAAAAAAAAAAMBAAACAAABhQMaBKYGMQe5CUYK0QxcDewPbxD4EoMUExWaFyQYqxo0G7cdPB7DIEchxiNIJMQmRie/KTkqsCwoLZovDTB6MeUzTzSzNhk3dzjUOi87hTzaPiw/eEDBQgpDUESQRc5HC0hDSXtKr0viTRFOP09rUJVRvlLlVAtVMFZTV3VYllm2WtZb810RXi9fS2BoYYNinmO5ZNJl7GcFaB5pNmpNa2Vse22RbqVvuXDMcd5y73P/dQ12G3cneDJ5O3pDe0p8T31RflN/U4BRgU2CR4NAhDeFLYYghxKIA4jyid+Ky4u2jJ+Nh45uj1OQN5EakfyS3pO+lJ2Ve5ZZlzWYEZjsmceaoZt6nFOdKp4Cntmfr6CFoVqiLqMCo9akqaV8pk6nIKfyqMOplKpjqzOsA6zSraGub689sAuw2LGmsnOzQLQMtNi1pLZwtzu4B7jSuZ26Z7syu/y8x72Rvlq/I7/twLbBfsJHww/D18SfxWfGLsb1x7zIgslIyg7K08uYzF3NIc3lzqnPbNAv0PLRtdJ30zjT+tS71XzWPNb917zYfNk72fvautt43Dfc9t203nPfMt/x4LHhceIy4vPjteR45T3mAubJ55LoXOkn6fXqxeuX7GztQ+4c7vfv1vC38ZvygvNr9Ff1RfY19yj4HPkT+gz7BvwA/Pv9+v76//8AAAFbAvMEbAXtB2kI4wpXC9UNSw7IED4RtxMtFKkWGxeTGQgafxvzHWUe1SBJIbUjJCSPJfgnYCjGKisriizpLkYvnTDzMkYzlzTjNi43dDi3OfU7MjxsPaE+00AEQTBCWkN/RKNFxUbjR/9JGkoyS0dMW01sTnxPjFCZUaZSsVO9VMZVzlbXV99Y5lnuWvRb+l0BXgZfDGASYRhiHWMiZCdlLGYyZzZoOmk/akNrRmxJbUtuTm9PcFBxUHJPc050THVIdkR3P3g5eTF6KHsffBR9CH37fu1/3oDOgb2Cq4OXhIOFbYZWhz+IJokMifKK14u6jJ6NgI5hj0KQIZEAkd6SvJOZlHWVUZYslwaX4Ji5mZKaaptCnBmc8J3Hnp2fc6BJoR6h9KLJo56kcqVHphym8KfFqJmpbqpCqxar66zArZSuaK89sBKw5rG7spCzZbQ6tRC15ba6t5C4Zrk9uhO66rvAvJe9b75Hvx+/+MDSwazChsNhxD3FGcX2xtTHssiSyXLKU8s1zBjM/M3hzsfPrtCW0X/SadNU1EDVLtYc1wvX+9js2d/a0tvG3LrdsN6m35zgk+GK4oHjeORv5WbmXOdR6EbpOuos6x7sDuz87eju0u+68J/xg/Jk80L0H/T59c/2pPd2+Eb5FPng+qn7cPw3/P39wf6D/0P//wAAAQMCLAM/BFUFbQaKB6EIuQnPCucMAg0XDi0PQBBYEW0SgROTFKgVuxbNF94Y7xn/Gw0cGx0oHjIfOSBBIUkiSyNOJFAlTiZKJ0UoPSk0KicrGCwJLPQt3y7HL60wkTFzMlMzMDQKNOM1uzaQN2Q4ODkHOdY6pDtxPD49Bz3QPpk/YUApQO9BtUJ7Q0FEBUTKRY9GU0cXR9xIoElkSilK7kuyTHdNPU4BTsZPjFBTURhR3lKlU2xUM1T6VcFWiVdRWBlY4VmqWnJbO1wEXM1dll5gXypf9GC+YYliU2MeY+pktmWCZk5nGmfnaLRpgWpPaxxr6my4bYZuVG8ib/Fwv3GOcltzKXP3dMV1k3Zgdy13+XjFeZF6XXsne/F8u32Ffk1/FX/dgKSBaoIwgvWDuoR+hUKGBYbHh4qIS4kNic6Kj4tPjA+Mzo2Ojk6PDY/NkIyRTJILksuTipRKlQqVy5aMl02YDpjQmZOaVpsZm92coZ1nni2e9J+7oIOhTKIWouGjrKR5pUemFqbmp7eoiqleqjSrC6vkrL+tnK58r1+wQ7ErshazBbP4tO+167bst/O5AboVuzC8U71+vrK/8cE6wo3D7MVYxs7IVcnmy4jNOc730MTSotSP1ovYl9qz3NvfFeFd47HmEuiB6vjte/AH8p/1M/fS+nv9Mv//AABuZGluAAAAAAAABjYAAJeRAABYuAAAVUEAAIwVAAAoVwAAFqgAAFANAABUOQAC8KMAArXCAAGo9QADAQAAAgAAAAEABQAKABEAGQAjAC8AOwBJAFkAaQB7AI4AogC4AM8A5wEAARoBNQFSAW8BjgGuAc8B8QIVAjkCXwKFAq0C1gMAAywDWAOGA7UD5AQWBEgEfASxBOcFHgVXBZEFzAYJBkgGhwbIBwsHTweUB9wIJAhvCLsJCQlYCakJ/ApRCqgLAQtbC7cMFgx2DNkNPQ2kDgwOdw7jD1IPwxA2EKsRIhGbEhYSkxMSE5MUFhSbFSIVqxY1FsIXURfhGHMZBxmcGjQazRtoHAUcpB1EHeYeih8wH9gggSEtIdoiiiM7I+8kpSVdJhcm1CeTKFQpGSnfKqkrdSxELRYt7C7EL58wfjFgMkYzLzQcNQw2ADb4N/M48jn1Ovs8Bj0UPiY/O0BVQXJCkkO3RN9GCkc5SGxJokrcTBlNWU6dT+VRL1J9U89VJFZ8V9hZN1qZW/9daF7VYERhuGMuZKdmJGelaShqr2w4bcVvVXDpcn90GHW1d1R493qdfEZ98X+ggVKDCITAhnyIO4n9i8KNi49XkSeS+pTRlqyYipprnFGeOqAnohekDKYEqACqAKwErguwF7ImtDi2TrhouoS8o77EwOfDC8Uwx1bJe8ufzcHP4dH91BfWLdg+2krcUd5U4FLiSuQ+5i3oF+n+6+Dtv++b8XXzTPUg9vL4yPqb/Gv+Of//AAAAAgAFAAsAEgAcACYAMgBAAE8AYAByAIUAmgCwAMcA4AD6ARUBMgFPAW4BjwGwAdMB9wIcAkICagKTAr0C6QMVA0MDcwOjA9UECAQ9BHMEqgTjBR0FWQWWBdUGFQZXBpsG4AcnB28HuggGCFQIpAj2CUoJoQn5ClMKsAsPC3AL0ww5DKENDA15DegOWg7PD0YPvxA7ELoROxG/EkUSzRNYE+UUdRUGFZoWMRbJF2QYABifGT8Z4hqHGy0b1hyAHSwd2h6KHzwf8CClIVwiFiLRI44kTSUPJdImmCdfKCko9SnEKpUraCw+LRct8i7QL7EwlTF8MmUzUjRCNTU2KzckOCA5IDojOyk8Mz1APlA/ZEB7QZVCs0PURPhGIEdLSHpJrErhTBpNVk6VT9hRHlJnU7RVBFZXV61ZBlpiW8FdI16HX+9hWWLGZDVlp2cbaJJqC2uHbQRuhHAHcYtzEnSbdiZ3s3lCetN8Zn38f5OBK4LGhGKGAIegiUCK4oyGjiqPz5F1kxyUw5ZrmBSZvZtmnQ+euKBhogqjs6VcpwWorapWq/6tpa9NsPSym7RCtem3j7k2ut28hL4sv9TBfcMnxNLGf8guyd7Lkc1Hzv/Qu9J71D/WB9fV2ajbgt1i30rhOeMw5S/nN+lK62Xtiu+58fH0M/Z++M37Jf2I//8AAAADAAkAEwAgADAAQgBXAG8AiQCmAMUA5gEKATABWQGDAbAB3wIRAkUCegKzAu0DKgNpA6oD7gQ0BHwExwUVBWUFtwYNBmUGvwcdB34H4ghJCLMJIQmSCgYKfwr7C3sL/wyHDRMNpA45DtIPcBASELgRZBITEscTfxQ8FP0VwhaLF1gYKRj9GdYasRuRHHMdWR5CHy0gHCEOIgIi+iP0JPAl8CbyJ/Yo/SoHKxQsIy00LkgvXzB4MZQysjPTNPU2GzdDOG05mTrHO/g9Kz5gP5dA0EIMQ0pEikXNRxJIWUmjSu9MP02RTuZQPlGZUvhUWlW/VyhYlVoFW3pc8l5vX+9hdGL9ZIpmG2exaUtq6GyKbjBv2XGHczh07HakeF56HHvcfZ9/ZYEsgvaEwYaOiFyKLIv9jc+PopF1k0iVHZbxmMWampxunkGgFKHmo7elh6dVqSGq66yzrnewN7H0s621YbcPuLi6W7v3vY2/G8CiwiHDmMUIxnDH0ckqynrLws0EzkDPdNCg0cfS6dQC1RfWJ9cw2DXZNdow2yjcGt0K3fTe3N+/4KHhfuJZ4zDkBuTX5ajmdedC6Ano0umW6lrrHOvc7JztWO4V7s/viPBB8Pjxr/Jk8xjzzPR+9TH14PaQ90H38/il+VT6BPqz+2D8Dvy6/WT+Dv61/1r//wAAZGVzYwAAAAAAAAAKQ29sb3IgTENEAAAAAAAAAAAAAAAAAAAAAAAAAAAAAAAAAAAAAAAAAAAAAAAAAAAAAAAAAAAAAAAAAAAAAAAAAAAAAAAAAAAAAAAAAAAAAAAAAAAAAAAAAG1sdWMAAAAAAAAADwAAAAxpdElUAAAAFAAAAMRmckZSAAAAQgAAANhuYk5PAAAAEgAAARplc0VTAAAAEgAAASxmaUZJAAAAEAAAAT5wdFBUAAAAGAAAAU56aFRXAAAADgAAAWZqYUpQAAAADgAAAXRubE5MAAAAFgAAAYJkZURFAAAAEAAAAZhrb0tSAAAADAAAAahlblVTAAAAEgAAAbRzdlNFAAAAEAAAAcZkYURLAAAAHAAAAdZ6aENOAAAADAAAAfIATABDAEQAIABjAG8AbABvAHIAaQDJAGMAcgBhAG4AIADgACAAYwByAGkAcwB0AGEAdQB4ACAAbABpAHEAdQBpAGQAZQBzACAAYwBvAHUAbABlAHUAcgBGAGEAcgBnAGUALQBMAEMARABMAEMARAAgAGMAbwBsAG8AcgBWAOQAcgBpAC0ATABDAEQATABDAEQAIABjAG8AbABvAHIAaQBkAG9faYJybbJmdphveTpWaDCrMOkw/AAgAEwAQwBEAEsAbABlAHUAcgBlAG4ALQBMAEMARABGAGEAcgBiAC0ATABDAETO7LfsACAATABDAEQAQwBvAGwAbwByACAATABDAEQARgDkAHIAZwAtAEwAQwBEAEwAQwBEAC0AZgBhAHIAdgBlAHMAawDmAHIAbV9pgnIAIABMAEMARAAAbW1vZAAAAAAAAAYQAACcXwAAAADAHWWAAAAAAAAAAAAAAAAAAAAAAHRleHQAAAAAQ29weXJpZ2h0IEFwcGxlIENvbXB1dGVyLCBJbmMuLCAyMDA1AAAAAP/bAEMAAgEBAgEBAgIBAgICAgIDBQMDAwMDBgQEAwUHBgcHBwYGBgcICwkHCAoIBgYJDQkKCwsMDAwHCQ0ODQwOCwwMC//bAEMBAgICAwIDBQMDBQsIBggLCwsLCwsLCwsLCwsLCwsLCwsLCwsLCwsLCwsLCwsLCwsLCwsLCwsLCwsLCwsLCwsLC//AABEIAWABkAMBIgACEQEDEQH/xAAfAAABBQEBAQEBAQAAAAAAAAAAAQIDBAUGBwgJCgv/xAC1EAACAQMDAgQDBQUEBAAAAX0BAgMABBEFEiExQQYTUWEHInEUMoGRoQgjQrHBFVLR8CQzYnKCCQoWFxgZGiUmJygpKjQ1Njc4OTpDREVGR0hJSlNUVVZXWFlaY2RlZmdoaWpzdHV2d3h5eoOEhYaHiImKkpOUlZaXmJmaoqOkpaanqKmqsrO0tba3uLm6wsPExcbHyMnK0tPU1dbX2Nna4eLj5OXm5+jp6vHy8/T19vf4+fr/xAAfAQADAQEBAQEBAQEBAAAAAAAAAQIDBAUGBwgJCgv/xAC1EQACAQIEBAMEBwUEBAABAncAAQIDEQQFITEGEkFRB2FxEyIygQgUQpGhscEJIzNS8BVictEKFiQ04SXxFxgZGiYnKCkqNTY3ODk6Q0RFRkdISUpTVFVWV1hZWmNkZWZnaGlqc3R1dnd4eXqCg4SFhoeIiYqSk5SVlpeYmZqio6Slpqeoqaqys7S1tre4ubrCw8TFxsfIycrS09TV1tfY2dri4+Tl5ufo6ery8/T19vf4+fr/2gAMAwEAAhEDEQA/APv+08Wz6Z4VENleeT9sVopGZvvk9h64rC8PaG12txbrJaQuV5APLV578L9cl1ewmW5LRWFud37w4KN/s5rtbDQbHxreRvpl9JDMi/vNrYDV/GLpVKkkn0PxtVHONn0PQfAvh6x8K+E9RkaCSS9nhKFEfIBHcCuW8OatL/ZUFveRF7mBOFJyq07QPG7af4Yv7XEU80IIYsCSM/7VReHL+wutOM17eqpuQFdFUl1YnGBjrX0mEpyVPlR6tPkjS03ZT+JNxBEVNysbSvFvEXcn6VxL+B7fxBcwXlwIY4rcCRohw8jZwPpj6V2Pizwzb6l4pe70G5muILdBGryHG4muS+JGkQ+GLuPU9T+3mSWWOKJITheW5/Ko+q1Iytbc4Jrllqrj7KeS81i6udWZIjZniI9QvoPWq1j44uJtcM2nmH7CSCXJKzBh711/xO8HaJ8RbrTzounXmi3U0WWjRv3kwxnJ6YrMk+Bto2yz8O3N3cXLKZHtQRxjvjvXTWwbwtNzXUyjzQleMdDzvxv8QNVl1srOZfIQbsk4+b6iui+CXj+50J1FwYJJLuTKSlcsg9Mk1yuo+GW0SynuNcgnluVkx5Jy23/eH8NULCyvb7WLO40sRRgsNyKDt59u1eTh6ju5PUuUpxfMz6Nu/s11qWbB7S9urjH7pT83PtXV6/4WXwjpVs3iHVbGW4eHJiU5dfxFeN+HPBM9h4sW/wBZnubZdoYyW5yTj8Riu2+Knh260K2t76+MkkN5BvMpb7o+tfQYWnRp05VeTUiVRyWxofDP4q282qiPxCsdzBG+1niy3H0qT4kfEseM/FdndaVHBaxaNN50YZdhdPciuNl0W28Kx28mmyPNBfx7wydB9D3pbqyuNW1eGw0CbZbu4ldmXk57bvSsaTqSp80Y7s1jWnGFjsdbji13xLYXEGtPcQuodoIwcRgep7/kK7nUtWtbgxzaTfRzWtqhCOr52kdcj2rzG3f+y3uCiXCOqFFJYEYH4U/R7e68MeCpP7PkRZb6Uvkjd8h64GanF4qUI+ykiXiGlZoxZPEZ1LWNV1X7XJcCB2TL9fwJrm/F/wARTD4W8xbaaa7uDsMYGCE9c1ueFoW0u8kTxUkd5aSSF2ATYOexIzWX8RfDwnmlvfCltE0KEKse/kA+lfPynCk7pkQrwg9ThNbgj8KfFzRLnw5aXEdpfWwyCNyOR3J7V6Bpvik6c93d2yAXUw/dxPEp3H1BOKsXVl/wkWlQxeJikfkQ/uoohtlDf3faq2r+MZZ/J0LxF4aW2uoLcS2FwzczKe5wOvtXs4bFxlD3d0en7P2iUoMt+P8AxTe3/wAOrWTxisRmmxF5kycqp6dPWtbx/p9rB8AfDllFBbG+tJ0ZCimRB68cU/QI9Pu9f0608XKlwssQlaDdxx0yCOB71u6pLDqdrrU2lT2bwrMo01I2BVD7/wCNdS99c7Rz1UodNTmfgd8H9c0Pxs2razq+l/2bc25QqIRH5SnvzncfyrS+IOl/avieJvhlb2sWnKhFxdeWGeRh36YFQeKdVuLLR7dL20uJ5IY90rqG8tn9ODXRfAvxcuk6JJJq1pHDbXhIUYyVz65rOKi29NyqTTXmYy+OF+zr9kVpGmmEcjBcKSDjGKZ4y8Ha1oniddes3RLHYIseZuAY+2KPiL4U1TQ/EunHwrZvNbyTCV3fmMAnO44rpPi5r15b+FRbzsUwBLiEgDjvUQpuE+ZPQr2fJrN3Oe0LVbrwoLmeSaXy7yPBJbIz7cVj6Xd2Gja682m3P2h5DiWKDgN7semfese18f6iupxW2rOv2FR5gEi7crWR4Y+LaaF4lvHsdOF/Dc3JAtwRtIHpxmvKxOMvU9nY4q8tfdPR/B3jMweI5ZkhS3jupPKMU/zEf7X/ANarXjDxJeaVotynhe9mniecI0OQsLqCDz8uTnJH4U60vtO16/u7nwRANL1e3j8yS2mG4sPVM43UyTxzL4n8F3Wn+I7O0i1WEsI7jZtYkZwcY75H5V7OGqQpQ916mkKrjHUonxmvhuBLLwxIumxXqYuTEFZyzdgWU4q/Jqz6Rqmm290zQxykDzAAxbPr6V5t4ZiPi658vzY4roSAEv2I7sO1dvqEC+GWs9Nvb+C+8wptlQl2U+me1eVjMRKcrSKVR1bHT3E1ub8iZ5WWM5yylc/Q45rC8Z+JlvNXsZpLdBYWxyT0/TvXSrFd+JPDk+ja9aNO8a74Lm2zlR/tGvPbKwuLG1v43V3Wzl/d+d91/wAe1VLDP2N4dTWotFFHa+H76zi8SXFxousxWtvepia1uF+Y8Y4A4FdH4Q8PWt7olxZI0jTNmZMHCcduh/OvI/FWr6h4Y0K01LUrIWMt0Qkccagqc98kV1Xwa+IGpWl+JHlKKYt7Ky7twb0HFa4Oq1VVGaJhKMHyyRzfxSZIfE6alrMge0ji+z/ZWcmJX/vbf6VV+D2m2Ph7xHNdWV+VuJFYyWqrgNCehVznGPTFdZ8TbvS/FbXEeoQmNy4ZlI2YJ7j1rMl0G30vwGLvSJbeXUGbyo0Rh5mPx610TqTvK2tjlnNuo0jgvHF+fCuozy+HoxHbPP54ATdIxznG7/61d34i8Y3HiLwjbXjWdlBLJguOY2wO7LWz4c+G8VxpX27X7mCQwDLbug+nrWT8Sb/SofDgFhZTTtK+yaRTkBfbjinh6lR0bS2E6j2ZX8S/D+OPVdP1C8sUla7ISCEsNhY9yR2rIGh2emvrU95v/tKWPZChfbFEfX3rbK22heA4Zp1mmIAjtnjl3CMD36/pWdo2oWn/AAjct7r1ltuHZmkWV87wOmOO9eS6nLVtF2MpRutDhtJ0SW8visV7a3UqjmON/wCLOMj1qPUtLvtEtLqLVZIbh5MtCYm+aNj29q6vS/hqlx4Sm1zwYbS0mvJMxM86qB83RM8/pVOz+HoF5Hb6zJJdanqK5VBLlfrnHFexUTdNWfqaQpWSfUZ4C0nTIvBDa1Nr9zHqdkxaSB1bJz2znkfhXO/EPV727mGsWUEqwlCsiWw44/i2+tW/HnhuTwrrQsJ5EESjJAdsv+Peut8NWEOqw6bb6cNPjiu0KziWTyyc9wTXLXtN+zRvVqc8LW1Oa+H2sJDpsE97ZvPY/wDLQMSc/ma73xXrkF34WhHhzSbazMWNm3f5kmexbdXm/iK6PhrUZ7F44Lqxkk2Ksb8D3zXRaNo+o6l4cETXk6WWQ6K5+UY7Z60qdLkTROGira7k6+I5m0Q23iKz2XMHzRyRtzn2NS2uoprfhW5tb1fJuYiTDIFyzY9OOav+CdYstZufsnitYFtbf5VlT5s+9dBpmo+HJ7qWx1a/jNvCxS2aKPDqT6nPNcFai278xrUoroz528LadrniJmgsLSdo7MedchUYIB6Fq774c/Emztbdxo8JuJkGHQDmvP49W1LTvD1ytrd3O7VTmVUmPyp746V2/gHX7MizCWgsRO+2SUR/N9a6acb17bXOVxTTTep1FlqE2vzzWljPb6bb34yxl5YfkKf468eR+CdCsbLTHstUjs2DpG0fl+cQc/Kw5P44rG+PmoWmk+O9OsPhzI85njBaSV1Ab1wFx0rmNWvLi41VY5YI7pQAzZG4sD39q9DEVadOsqNPd9SqFVxajbY6P4sa1qd62ma74Tia1smjAuLdG3bHHqBivTPA89t4y0+KwvRFNfeUJIPMHRycjg+leWXGt6hcWFuohWwgjGIo9uDu9R6frU2geKv+EauZNW8QfaTNEoWI+YMAjuOma1jOdOai9T0OaNRnU6h8V9c8IfEaKbxuyXEliPL8uOBREFxjrVTxn8UbjxX430698MRQW1y7FN1uwT5T2Jziovi54Ou9a0DSPGN1e6c1jqLeW9t526U+5Xj8qw7/AMLrof8AZ01hNHLFIPN8mLAEXtjHP5its3rzo03F7MmrZ0lpqS6/ouoWmsXVnfTQC5nmAmLSK27Pqc9ql8TzJ4SWPSdLt7SCRo1LkDfIT6cf41NefD68tvBUviSQ7raeXYrKQZHduwGO1Yen2dvYeNtN/tV7mSeYh5oBGVEI/hDE5614GU0pVJORwxpzsrnYaBa3urpCZz5sci+W5Y9W+navaf2j9O07VPh9b6ZDeQMZItibOqL615T8LZtUn8fXMOsxRRW4l2RqBnA78f1rU8b2KWcGp6jfXU26acxQAPlY1H+zX1WDfs3eavc7YwjTjr1Fl8Sabrfg610PSysr6PEUwwCsSPepPg/qulWf2nV/FF6lklriMW6rueRh2Ud64jw3aaJpurG7tg+oK6FmlYEKSfXmtTU4tK0zw5bfY/tE15LcC4Bt2BYEnG0Z6UYjEQhNJI51bmV9iB43vtWntvEU88UNxd7kXBVlRn3Y6/hW/wCIbmx0o2UKyBYolEUeQSBn+da/il7a88UW0ptGhWa3BMcg3ylh6Yqt4q8PaTrNtA8H2vy7Vl86NhiRfw6mvBr89XFOL2ZTiptnOnWF0vVrqykU3NpHg/aNm1CD3FWJLSyu7RZRLt5BRVU44q34z8Kz3FsdR0e4t2SAAtDIf320f7PGarXd35nhpEllS2s9u5ZSm0g+ma8vF5Y4VLrY554TqP0vTbS78N3b+dHfWzNyjjEiH69a4/49WNxovjHw/rtpY6jJaxiNFaH94kZPZueAK2vC+vaUqvYzTO7XTLGGj4HmHqQcc4rtfFGranoOmQW0qNFHCo+R41KzKfqOorspUvYwUodNz0YctOC5XsZ9p4C03xhcT6retKL+ax+zDdLswvqABwa43wHdL4S1S4021h2Q6bsEYmB/0le5961vBviK3sdfnuPGF1NbwzDZAsJyB71paNb6Xb6/JcR3sl4GzG2/BIz2f1x7V6FbMYzo8sdGOTjVVur6nR+GvHFn4jLbHVWh+YxsQYya898WeIY1+KjRNM5tmwzxk7Y8nsPSoNe8VadoQN9o0Qkj8/ypAikIDnHX0qY32lapcXI8TxwtJc24a2SNSZUYd8Dr+dc+HjWqR5b6vYxnh5wt1Ok1/wCLqaRr8SI0ixSRBFeQ5gYD27VJ4m+IFv4p0+2SOOG5bIVzHyCp7HHSvF/Efiq18HaRPN4/1bR9CgiX5LnUJ/LYj2jwW/DFfPPxo/4LGfDT9n6QaX8KtY1DxQ9wALm5sLRY4kx1wz5zXq4Ph7NcTP3aeh2YbKsZjNIQ0Z9u39xHeyahcXFpZ3Bs4NiWoyZXHpjbwa880PS7XTnt9QubNrCYMWhheMhufUE18eeEP+DiPwvp8d1YW3gee1bPmyaheThZs+q7VbcPbIrvfg5/wU08JftOeJHt/wC1Uiv5Djfd3CBT9OBW2acEZjTgqziXXyDGYdawukfSdt4l1LVvG8Op6TdMJbdfLLEchfWuyl8RyT3gl1JVPzJuJAB965FFaz8IW0Hg2W0u2uZN01xH8xZcZwPb3rE1972xSOZ/MSOUj55SQCQcYxXzTwM8JVXM9eqOB4bkWr17Hqq+FLRfGg1DUJ7a0t1t/MdU5+0t+ladz4C0Y2kWpaPrCxST7smeRXQMf93OMViWt3c6t4SivLtYwkkYi8xkwsbHsK4N/E9vY65qFj4esFvrZVDSzkeWY3PYAGujlhXm4yIi4wdkj0Pwp4uvPAOq6rpvijXPKmvOIljUn5fQYHH51kXvieYXMkdirXYD5KMcB/0rzWC51K01ZzD57RS58vJLhce+c11fhqXV7nDzS2Zmh+dRIwzj9KxoYxwmqfRExq3qa9Ds/itp03iAaL/b19AkYQFLdGzsYdjTLrw/req3tvqfhqKK1t9OAEjM4VWQe1ch4ks9Qv79tTur2yKedhNgJVTXovhTxFKvw2uDPa2l3EVKPOoPmKB6816yp06tRTZtNRcuaxWvJTrrx3lrb2/njChbg8PjvnFZPiby9VtRBrcQg1WNxLFIo8tEB9x1qz8MLK++IuoSu4e108sfJaZsnj2qz8UPDNrYX9paapeNcTbgViA2shHc8nj2rnxGH5U+RmjwvuuaJk0+W71vS10LUoxHHDi4icZRvqM1ixXd5d2+pbmjkggYofLGEZh6ZrpvAmgPp+tohVXeRdhJGcn29afpU1rbXOpWHjCzt/tFrK0sE6NtI/3gOtctPFOjSalokcHI57nBeBNKn1PwbJZ36tZedKy2zSnEjgdwD0zVzxZf2vhzVRaaube9a2iTKRdSe/FdH411TT/Edpp99qFpdRXlsVSPZwpI6nHvXJazf6dr0gvIljlmtJAkhC/OwHevOryVVKrTWpEqbRnWvhu7mDpkXMM3zWucZi5zgADArR8G6Fc+HvEcV3d2up313u3SSowCW8ecchjkfTFR2vie80+5ludGtZUjhwwcx7l57Yro9A8QwXPhmW98Q399ayTSZ+zwoMyDOfmJyfwzXbhMQ6loz0ZavAX4rfD2D4t+I0t5tSigkRfMt3C7jj0IXv8AjXOT/C3UR4bMOnwrf3NqcRyyIVx+H/166fVbiwGq2ieHYlDqQSXkIkJPsMYHtVu/s57yzmfW2f7ODnyEkZVJ9ODWU8TB4nlf3m/JzrmPFIfA3iW9M8fiTR7w2cRB88qFGSM8c5Nd14V0hdB0N42ut8oXCpPJ8oPp6/pXSeL/AIu3fh2705bdLOxBUBYkUysWAxklif5VzAubW68Vm+19bd0ZcgoCWJ9cdK6lWjObhFihyK5j6npdh4ZcvZ3EZnPy+TaKzr9ckVatNHfSbJb68iO655Xbzz60zQNRsL3W7yGwW7LQly7OSN+7pj0xXNeK/EN42vzopuo7TbtUYxsP0rgxEEpWbMa8/YpNFDUfh5nx6LOzha1W1XY6Fs5H+1610uha6ugzM5S1S1tmKfdzkj616p4X8Of8JPLJqlroUgF5F++ZDucH615d8RotL0jTb+Twxb3N3LGxUW1xEysjnvnG0/nXVja1GpFui9SPZJ3qM7rw54H05o7nXgjajeXpHlKIgwjXuVHbNc/ceF4/FXjuTy7o2SRKAzImBgduta3wnsbvxfHodrZXFxYzyyiOZF+UKD716DrPwmsNEs9aTWLoxPAdkMhYL5hrlyyq8RP2ltDejCclzRPBJL99Y8YahbadNP8A8Sd/P8y4/wBXIn+z61paXrml/EjT7y6+K10YTBuFsyII4gR0GMc5yPzrc1fSNceP+y1ttKtdOkTcb1k3XDe27jFZ/if4PvrNrp1rbwyfZnZQR2YjuccDOB37V7UMapO0VcaiqclK+pz2p/DX+xZYnu9SuZLC5O+FnQhFX1X5q0fD6ahHdyf2csOpWmPJiiaQBfr0rQ/ttfDfiCLTviNBe32lrF5SxkBth/2fT61eg1y21Lw/HpnhvRIrVZJ98c4YK4X35/rXLj8asX7lTRoueJUlyLod18LtEfTfDTadNIt7JPetcPGRuji4yQnpiqGveMo4fHEkd3aW84ll3ecUBaFI+ynFa1/q0+geE4v7AhjWSOPAKHDMSME5964rwzo+p+NtbkFtHJIqpmTYR8qn73J7mpwFV02qcHqU8UklE77wRY/Y/Fz61piW0tg1rI8hduQ56EA9cVnaL4bTT9Bup/EGpadML6VpArSb2Rc4zt7euKpzXbaVfRWeniCe7KGKGF32jJ7N7+3NYOq6bJpesiHUktTc5LTiMblYEY+Q9/XFe48TyJRe5lVqXS0FsPCX9v6qlv4SY38E3W1QhCfx7VN4l+H0q+Ebe5kNlpxjuBGltJLi5JBz2PT3rVu9GttL8N29z4St7u41OaQJ5bfuoznvuzXPnwtdahJ5XivS5Lu/m/cxpFJlYm/vE5q5ex5edq7M3Tdk2WL/AF7UNAWGXT9lzJBII4wD5igH3710un+LI5btrjKRarcKP3wPzEj8MVX03wXb+H/DiQmW1sDYSAeSHMkkuO4OKii0eXXLzGhy2No1rmbz5hlSB/D2/OvGlUlCtzLqaSeiVxmgeH5fGHjO5giMt/fwNmRg4GD64OMj2p3jOzj1qxvNIubhEkik3LI42xhfoM1FZ6NZeJJ11o6olhqQk8mRFlK+Z/tcYqh4hvNF03wtOEtS2oXDrE93uc5U9Sp6ECvQmlU33LjNSTRyHgGZtP8AHc0dsFlW1d0dSBsI7Mh7V3Gv3MFyRDa63cai16zLtlJka3z0XtjHrXJ+Flt/D3i60s9JijKgk3HmNkzA9kPau613XNP8I+I4LvSo7eCWeXenIYf8C45rhxM6eGjyTdrnO4OL3OG8daUdCEOkXMYVYsNG5Uh3z6etXfCUM3hzSppNU0t7vUZlcxJJ8oiZujD2HrWlrWoS+NviG+p+JZ2uPKiChoYG8pMd1rF+L3xp0b4ZWv2rUroyzfcitwR5jt/dznbj2zXi0MPWx2IjSw+qNaSqYifsooy/Cfg3xJ4W1WePxaIBpsxy0W9WMwzn5R6+9er6nDoHgXwe/inxRZrp9vawsYbcuAzAdeo4rzj4JacfFEn/AAlPi2zupZQu+JGlHlwr67S2B+dfGH/BXD9u1fFOlv4a8Ba0EAKxyQW+55dv8QyOOa/e+HeF6eCpxq4hXZ99leTuo4Qqa23PmD9vv9qnUf2ovj5qfl272eh2dx/okavu346kvgHA9K8K1P4Z2lymJyWb/lnjr759c1P4Q8M32rXo+zgiP1OS5PfgnvXtPww+CFxrOpRSX0Pm49egr0cZjZqpyUNEfdew9guRaRR4h4b/AGTpPHE5aCMxBvk3SDaGX2x0rB8WfALVf2fdasrhGaQQzFleJSoZR0zx3r9JPC/wdi0fQ4UtUuLglPlighGc/wC8T/SvKP2v/hFMvgBvNhlEkkyKBKpDqO4GDV0atZW9q7o8edZupyrY+xf+Cf3xh1D4wfs6+HmtLq1Or4Fm1oQGmORjnp+degfHu+1fw5rr+HtaQRy2mzy0dlOGY55IJGa/Mz4dfEPWP2Z5NLTw9f3Nktuquyglcfj6199/s/8AxbHx7+Hlte6JaQz+I7O6W5d7lwy3G31QjcRXzHE3C7cHjYvRnxeb5RUU5Vo7HutnY65pX7PULa9g3c86ukHpVHwh8Kf7P1aTVdYj8xbtBJ5TsQHI/nW38WPHGqfE6705IIrWzS1i/wBIjjXYu4dgc/0qx4j8RSaTpNj54gWaztwQzTgjB9u5r8jhBwqOV9j5SU1C+hmXvhUa3bQX3hVwiocNBAQQm78ean8XeG9B+GdhBHf2lxqusXCCWTkr5KHtj+L9Kk+HGo2mo6usqalHZq06l7fATK+oOP6Vk/td+IBqHxGsbezure2sGSNTOk3mOGPXhRzj0zW+Ap0qvNKb1HTjGzlI1IfB7Qx2dxpbSx2GqMP3MxH7tz3re1/wXeeEh/ZkCslrqERldY+hB6YNc1o/ht5tGNld3F6lpFhYLsoVEjjv1O39aqeG/iLc3ernRdVmvdTu9LwouJPljA7LnviuqlU9lCUnrY1pyv6HQ+DvJ8KWk66BeGO4iY7N75VM1lJrj694uVruVDKW/fzy8/ke1a/xavrWDStP/wCEI0N5tRuXAuYbXuT9e3vXLWvw71hdfhS7sWtWvky0AlG5B6kDNcNbMXWUatJe71LqVpfDF6HrXhm60qbUm1C2vpru40/KQiIYiyOrMe30rz3X9Mex8VObm+jYapIZjO0mHTPoe/04rVmsYPAVjHY2EoW2LbH3nG9m65/vVwHjDWB4m+J1lp0Dl7WxPmgoOrehrgzevKvFQhE46lTmtY9O/wCE30MwWdtqibRaxZJznzW9RVbxFPpVgskEEFrp4uYvP8xxjefT/wCvWLqep23hPXJbG702C5uLqMCPPWLPoKxPi9HJpt0tzqyg+RDgJK2QPwFaZXNQUYtaocKqXQ6zw/eXOveE0hubH7PbbwPNIIEwHdTt5Fc/e6ebS3lks5oYrXztoM0uXI9MYqz8E/E3/CQ2TPrF9NeLEvlqkbHyrdfTGetad5e6RYXsKa5rCNbRvvZYbcs7+w+WvWxGFjNqbdjaUHVSZZt7C206S21C9tXWUsE3D5sEetQaj42uvGHj64sNPtj5UUBk2KpDMR3xjirvjrx/Z6P8P5xpqNEb3mKaX7qH1rM8Ja2+p+Fo7nwxa2ct/gm6u0kct5ZOOuOK8/E4NKTtsRUjKEbJnB+PdEubG5XU9WWXzFbZ5TKSQfb2qDQ/FFncag6I7m8Rfl2ruH5V6ZpHjnTtUvx/wmM72N1bKXZ5FDR+WO/AOa4b4javpviK6s9R0TTItRt7qXyZmtlKlR/e+QDis6OF9m04swpUb3bKmieJtU8S61cpevDbBMAFItpYntxWXq0sq3F3a2qyG6t23SXE3+rHtg9a7HxnFb6T4hsG8EXT2G2Jf3cyjdK4Gflzw3PHOKuQzWfieCf+357JdRzvaSVT+89jgcVpVwjm3KTJqU+bS51HgrV9Q8NeI5rfTWZ7KMfNtYj8MVz37R+n3d1Jpsfh+CaKG4PmXCjJZj/u8Cuu8DaafD73cfjW4SJtQlLQtGNzAD3z3rdFvcaybeQxR3ZhH7nzkyzj1PPFeBgFJ1HZ7lKXNCzOf+Ad9Db+MLWxligtD5fmmVzgqV74Pr9av+MvD0vjnxpfXNhqMd5Z2ROwElYiw7571ylppOpDWNWu9biWJbYlDJgqGU9h6Vs6T4v1Lw/pFtpN0kaWIBkQSph5FPqa+mwEIZdSnGsjsw9a0fZs5ubU9Vtde+xahbSXdqRmSRRmNf8AgVeiaTY3es/Dp7LTJPLRN0hjQAFMdAD15rzf4l+JNR8N6pAbd4vstwuQkPzLIP6fSuv8MeOo7HTLpdbaWzkeFDAFXhvXNeLgsRFV5RbscM1yVG3scFYaHZ+L9fk/4SAyNNaZCqh/hHb/AOvW/wDDn4ff2Be3bX8iTRAGVVkwCijsBzUmpeMtNtrWWY2kH2xgY4zCp+cn6c1r/CrxXBpv2yTxFYf6e8ZQCUFlVSMnIHp9K9CVOCl7W9zWNDnldMwr7XpvEmt30Vpam0trdcouc7h6+1UtC0QaH4ed7yZkur9tyRRykOx/DtWt4n8T6Z4cFrJb27K95IFndBwqnqOeuK4y8ku5vF63CQAR+bmP5ui+orSni4qXPHcipR9lLU6jQfGC2nxCsLu/0NNSuYW+zxIFLMg/vADo3uc1P8UvFDaXrsdwlhGHeUiRV48kDsBWd4Q8Xy6F4/gksVljaZipdkGQRU3xk0VdT0ebXHnmmnSYhyoJR8+46flWmHxTrtubNaVXWzF8e/EmG88Naa0iwtLLMqCNcqUPrgV1cGsjw9aINUtbIyWy+YYiSwkXGcHufrXm0+k6bctpL2wYn5WmJyxU/wB7oPyrptPu7c6hNe6qLu4iaU28EhUhCAMDnGOa3li3RftLaIc5807IydWuzrGoy6z9nj0u1uDgQ+YVVD7BjxUeiXk48XXdoZt9tLAdocZHPtXQTabJrelamLeP7DiMpbPesjqzjuqkc1jeDPCs9/p81y15ZLfJFtmMEm7Z9eOK8nFYmWMqRqp2OStFykmQ2vg4WuqXx1C4iuDCoWNogSoB7fX3rqfG/i86b8NpLTRI9NedoWjDPDkKD0x6EetT3ng668IXVjc3riWK+t92NwZGI7nHf2rl/i9PqHiDwemjeEra1fUruYvGYziRUHfb/wDXrCMqtStaLZvJKGiR5r4T0W4k1JbrUmZ7iP7+3PzH3Pf9K9F+G/iO28QarqUN9p0c62JKLvTPIOMj0qn8NfEenjUrm11t4rZdPhMbyNH96Ude9XSp+Elu+oeJJIbOG5Yzu8jhd6k5710fVKuZz9jTV2zCFOdaVqa1ML4o/Gqz+FljqGpzPcwrZx/6hG+Vm9AM818o/DrxbfftBfFo6v8AEfTL8aPay74RNO6xD32g4P5V5v8AtP8Axlm+Pvxre38P3Lxacs+I1jkIQe5x96voj4WWs3ww+GUdzDdaQiLFtCXDbiPcr3r9p4P4cWVUIutG82fomV5WsHQVSa96RD+1b+1nonh74dXXh3QNO1xYxH5KG3GyE/VsZNfnBP8AD/8A4SnxVc3ptYUWeTKsYwc/nX0X8dPFd18T/ErHWJVEEOUXyhtyB7A9a5Sy0W2to49oUogwoJ+9X1eY4vlXKj73LMMoU1K2pS+GvwngXUI2uLf5R1A++a+gfCOhWnh6wVYo4mJOCiISy/pXA+FrxbGwF2EYAHG/+I/hXX/Da+PiTVY4/MeE7vmYybc+mDnvXHg02+Zm+Jjzvliey/DDwbcfELXEsdJju4jM/UDt+FO/bB+FujfDA2sPiOQSx2Uas6u2WLjvk5r7Z/Yc+BunfBv4RzeNfifHZwQmIywsST8uMqQT3PpivgT9tY+IP2gvHes6tGwg0qWaRbe2ONiRE4AxkZ9c124lWjznjKjGdZ+97qPgT9p74vaRfat5GjXKbkkEjKzqTkdvpX0X/wAEttbvtd8Svd6cTKm355VJJiX69RXiurfsF6t478fx2mhwpO8sm6UeSXeJf9ogEfhX6cfsn/sp+F/2WfhXYQ31t5upXMKy7QcM2e7euPSvmOIOIoU8FLDw1bPEzzHUqFJ0oO9zqfGyy6vAkUI+zMSQt9twdx7nB6VyXiPRb63trQXmpwXcsTh92PvAdyMcD2r1Hwbrltpusy3NrCjwlBH9mkj8xCD6ZPFcZq3h+6TxhqkmlRqkc6Zt43wcj09q/H403OLcnqfmc1KdjHmu9RvtThutHNuksCgFowFUY7YNR+I9Hi8R6nZzXFz9puIT+8Ifavu3HpVq6tG0DSLZ9a06W5ieULKsf3jnHTHXrXSa/wCHtK0+MS6fo+o6dDexBY47gYc56nj1rinhvZwbi7M7q+EnZLodj4R8aTeGPC0N7qqzXMTnYC+GU+wP9cVzXj21m8Qa7Z3ugW62M08okkRBtdwO2en6Vy11rdlLpNnY6jqH2a20uVQsTS4HPRm/w5r0C80k2PgWKMut55TiaK6GVcIf4c4OfrRhMRUirPbqTCPKrM66a/hsdOOv6jBLcgKEWAfI5x23Dv74rzrwJ48f4keIdX1TSAdNmhnMX2dJS4iUZ9celdvpWu2niv4bSqiTRGA4DO3VvXpXlvgP4eHwn4j13Vbe4+zWzQvcSeYdvnHnAUfj1orU1TpNQ2Zy1OZXtsXvGWtya9HGupzvNFZTCRCnHI9TVb4X+LorjxsyRW4d7j96rw4wq+5xXBWWp3yaU8+ox3KWupTExgjaXx6E9PrW58H9XtvDtrrOp3vl20uzyIbcckD1Fc2FqyhFue5lScbtdTqLmwspvipJf6pJNeKp+9FJwCv8PtWV4xu7zxf4iurRzb2iXcuyKOVyZAv97p+lM8Gal/bbvDoNoVZmLzS5yCT/ACrN0zWYbzx7qEizI1xp+Q2BlsjsK1wdRxquctmXTpPntI25PGH/AAp1ToPgfTYnhhxLLPMciaQ9iQK6DxbHq+kWy/27LBatdxiTywBtAPpg/LWF4n0uz+LGjafd+BbW9gFvg30AcCXI7lfStbwh4Et/F+k393qF5LYw6cwCi7JLSqOw54/WvWryWJ0Tsd06U0vdeiOu8JeFYfH3w3mtY72yj8lMfvoztHuMmszQrg+H7YeH9Pu7mK3aHF5dW6DaRnPH/wCuuh8FePbC/svs2kwwq0A8ryJI9pH+0ex+lefeLfD9/wCFNWvNSXW5YbeSXaIAOMf3cd/rWFfEU6MFBu7MtLWZv+HtCgu9YlguLe51O32FUFynlb4z9Km1TUbjwT4XSy8EeVpMJXymUAFiPYkcGsk+PYr3xTplxZ6jPfSyRbNgYBPpVXxTql7q98/nCBo7fc0mTjGOnbnNTF+yd4bMJU3TtfZkvia3hR/DWlyIt3PNbvcOjtl5ixyBwMqQOOtctHomtDxVdJPpN1a2/mYG4nAH1/pXS+DFXU72x1QuHntvmhmjByD6c9q3NRhuLu7e58USXU0dwfNXyn2gN649Patatf29NrqiJ0oJXR23jfQTJBLqUuRBDGEjVRgnHUj61L8M9YtjYRprEUxS4OxGZ9m723dqz4/GepSJ9kuLYbkXbEGw2ffHeuU8M/Eq50/VBZaraLdxZ3RGTBVT64rznSp4epGqkc8bwkr7Gl438Q2o8T3Gj6Vpb6NpyneNty0/nP6ksOPpzWuvh2XU/AM+o65rVlNexp5MURYEoPXr/SuE8Va5fay7Q6WqSyAl3IXJ47Zrc8OTovhdY9Wt7dLmUfN8u4s3p7Vvi83WLqKyvEqLbnc7fSvBmmeMfB0GkRW9mmuaYnmiTfnzPcD09s15brDX8nxNksPFf9o2wghAWb7OTbvgZ69vTvWj4Snuo/i+0tuyQR2ttujZmwHX0PvXX/Ey9l1rwY15bvai5P7tUZiQ3OcgZ5HIH41ddUp1YtLWxVdKaPK4b24b4g3dzokoWKyi3wzInCn+8c8Y962PgBGnxL+NEsXi3WLm8e7gnmmlkHlAsBgFdpx+Fcj4gt7zSPCN9d6/qQto7g+XmE7UkH90H09q9s/Zm+HOm+EvhLf+K7WA3V9eWciWqyqB0/uZPBPpXThaEakXFrRm2XUFUb5tkcd4v0zT7CxvLPxLDcXhtrmSO3ZMnzMHAI9qT4TWMjXMF/qP2Q2sSF40V+Qo7HNFwmual4Zh1Oyk8y60x1SWOYbgSTkjjqfer+nCTRrK4jntYXkuEO0NwEY/56V4VSnKlNxi7anNWs5tFXSnNzqzalq0OnyWUty3kvFLkr7EYzmtHxfrgsbGKDw/dwsRLma2cAqG9CtczoWlt8O9OSHV7JLg394bg3MuR5bHsOoxWXrt/DcazcQ6EF33EnmPO5zz/SvfweWupblTLpUKnMrRPXIol1fw9D/wkUccV3NGHbyYdhZR2xjiqNzr2o6l4YTw+kdxDBGR5VqIgfJ2/wATOPX0qj4U8UvJq2maZqcUM6TwiL7WZWRISe7Ngj9ayfFWpax4N1q/0zT9Rjt44ZSpktpBKk6HuCeTXoPLazp25Xqdn1OtzXUDS8OeEp57G5v/ABHo6SLATEJfO3bFP93GRR8PND0jw3e6tdy3JWWSLKRgYUt6EfxfXiqcvjPWdQ8Ppb3l1BN5zALErIhYHoSq4/nWD8RYtY8MtbtAzSfJuxGQxB9+3615K4fxineEHY3nltRq/Idd4ZvNW8VW8VrqCpYQJnyIpEIbJ9Dn9K5n4W+JNR8IfFS/j1G50hpoSY4nZCzgH+EE4/OqXgnx/d2t1DP4mv3tbm0lEoZsOGU+1cL8afi1Frfj6+vtOkiaxL5DmEq4PrkV6GV5DjKtR+40+5nRy2tWk00eheMrbw54fGp6prl3b2CJIblxtwjZ6/XNfAX7d/7ed78X9fGkaBP52lWC+QGzuLj1wMfzrnv20f2mRKl5pxvLh1TlgJG2H36/pXkX7Knw31T4xeIDe39oI9OBOYFjITA78nJzX6Zw5w1HJk69XWR9pkuQLCNVZ7nrH7Hfwsn8W3ceq/2fe3KTHzBsTGB9CetfTPxm8XweCfh01hNo7WyTRbUlvIgGPuCCc/pVbwr4C/4Qbw09x4eYaba2w83EjlcfkP0r5p/aY+O7avqUtm93eSeQvzNvLQkep9R+Vfa4FOonVke9UpuvV12RzniXXoYb8yjOWJI565qrp+oySRecyMWzgDHSvPtCk1Hxjc77NS8IbbkgjB/qK39eu73SLLyNMKNMOM5wv1zXlYxqpV0PoKU/ZwUYljVvE91faqsFpPdbE+ZhG2OfTFfon/wSK/Y3uPjjcJ4m+IEc39hWLfMs8YUMR2z7etfLn/BN79hvX/2ufifFHcWyy6bBJ5lzMwIAXv8ANx0r9l7vTrP4TeAbH4bfAi28pII9l1dQgBOeuW9T6114enztRTsupw5hjIYaFm/eZyv7RvxHHjy6i8KeDILh9L05lVIrfb5dwAMDeM8j2rzH4hfAPRNA8O+b8TbgQXtyFENtEg8zAGDle2etd5rvjXRvgVJ9n0u1fUPEUmd7MoaKIj37/pXi/i7xxqfxK1xbnWLxZrjGcceWPYe9fM8U8R0cBSdGm7yPzrNc69i/ZU2YVt4XsPg/dONJ0ty0vzqhBDu3+2V5r0r9qOaC/wDBvhgaW6rNeWRRwo2pHnZwT7bj+VcrrkEF3cafazxxm+hXzZGWRgxHvk816F8etPbQvAOkaNcGC6nvrQTL5gy0KnHOQOevTjpX5LDE1cWpTqM+ejz1k5tnm8Hh628HaDDJfXV4lyyhlfflXx+FZnxN8UTX+k2smiRpHJ5fzTBGGRjJI4/nivS9S8YQeFdN0zRvEeltrJe3xFc7Q0kZ9+Oad4d8W6W2i6npWr+GdJdNQZ4ku5oVLKGGBu45x7YrwI+0oYnnc9DGMFzJyZy3w/sYJ/DuhJJL5unQstyTJFhXfjjk5PT1ra8Z+Jbrxx41/wCJNb2DWkEAJVZgjxgdwD1qpPpstjd2mlacrXaKQTlf3aKPT0pmqeGNP8T+P5LvS75ZdRihEJsoowkCg+460UufG4t2fu9Tr+vObsc34C+GA1fU9SuPGVlZyWHmvNBPJcSBYUAyqrz82K1ItYNtdSvY7FtbVVSG3eUksPTGcVe8bahqVpoNvAgSGyt2P7ox4AYjHJ7/AExXOaFca58QPFEcFte6XY2Vq4IM0SrHJjsWrscoU24KRx1a3vWR0vhbTbtby5u7Ke1NrJFvW0kzhz/s+p9sVzN9rV74zti2qXkMEnyxNH5LYUj73pgV2/gnwvf6H/at7ruq25EdyXtVjICxgenXj2rnPE2jSaxYa5LcrJJczPtJUkAA9cY9avmc6S5FqKsrQVjze30bUNQ0ea/1uf7Z9mlMVlC7ALFGe+B1ql4d8MXl3DqOXhtXddkYz82309/rXT+FvDSJql3aas0X2eG13LE8hVyfUHufatL4d+F3v7bUNR1eCcwWAyiP8skn045qHhm3aehy04xi+bqR/Bn4Z6rH4NuZ9Y1C7t7TzA3yookKnvU9tp2geBb2eTRbB55LsnJdsyZPc8Vh+IviVrOveJPslmslusyIqoiHn1GwVIrXXgrWI/7Sjd7hJVS5M6bShPXuelRUnG1lsjsherJSa2O18FWzeGdQuLnTtShuLPVY/KItECyovuT398Va8Xzpa+HprDQZJtlrFvWQkEv9cir3hrS7C506RWQHzRkvDxj6Y6VyVnqbeINaksdWby0V/KXzW25X2PeuN13Vi4wYq1eSk4oyvh5q62k9xez6lKWePH2doW2k/Wtr4vCXTtMsrzUmmEt2glCswYZPfA7+1Z2t+CZvCN7JEtwzxt88Z35DD60zUIYfEOpJp93fWkbwRiWOY7jHGw7dOaww8ZVYqMjGclK3cofBfw5JbeNLQ6VqIu7ieb90k0ACxe3v+ldx8UNKbxP8QSrTwxTxBYpo4sRoxHU496534U6qmifFOwi1WUExk+UUTgEfxZqxr6H4l/FCV7c+XELk7nd9oIH0r2ZU504KzOypJypxNHwp4dk0AapqH9pR6nFYEMlv5qw5BGeBzXSeGpoPGWj3V+0kSG5Jt4baab7hHfdjH6Va8bxWv9orYaZFaxyNaKkjRoApOMZLYrzPwDfalo8l/ouuiCGxE37tpm2pubuDj+tYqooVlFo4IS960jrfC9v/AMJJ4pY3F/JZX1jE5j89HCy7ehXA5zXHhdU8NeNb288RyLaWyYEbEh43Y9sY4P511Pw68dzXt9CZVa3lThNz/PGvcAGsT4lala+J7e5g0OKW3nWUSndyzOO4Pp7YrwoZhKrhk56yRNWb5Fpqd34P0Iatq7/2VDAryxkli20dMnr6VX0O7sm1h9PLQPexgYVp1GCe4zwa4/TPE0OhR2sWt3SXEzjcLdWKyFcYbn+lZeteMvDlh42tJry3WdJZl8mAAYVfVmr0cogqkfe0RWHk2veO/wDGV1beB7ubTLmyE5uwMTSPl1J75Hb2rc8FWk3iLw99luLOze1+z7XklkClf909jwOfaj4zaRol6lrqDRLZQSxDy23ZbIGf881z3hW4YXenWBmK6VMx82ViMgD2/wDr124tulUU47BWfK02YXxiT+2YtK0a20t20mC7wIox5jIP97A3fpXu+mWVl4M0jQ9LggkuoNHtFmMOCQXPr6VyOheGxP41P9l39tLBbHMAzjJ/XNZXxO8Qa2+uapdf2nBGJVETL908emDXp5bieWCqSW530pckOZEPh3W9a8J3uvanqiQW0eqStKYvLLJGT04/hxVU6tqcfh3/AISDXrMLpgbB3R4+0H0jboa5f4ieJrm+0DTvs6lobrPnYc7iR2IzzXlPxr+Oa+DtOht/FE1yIeFtrNGZxM5/iEYOMe+BX0eQ8OvO63PLSJ0YDLZ42acVodZ46/aSNxDFY+KLq30yzE3mWsEhCSMPZu/Ufr6VzE/xsjudRmk0i90+G3U4kDkNMfo2f6V8/eIvD48aX/8AbniGPVL26E3Ek0z7rdfRRu29z2/lVGf4kyaTcQ2fgaNpAw3rNdSnC+xPev1LDZZg8vilZNrqfouV5FGMFeOp9Qat8bV0nTLeHS9ZjuIJiJPsguYvuj+8N39am1P4k6Nc+RHp7Wkd7PHiHddL5cZ/u9c/jXz9pfxf12wQXkUWm3k8w2vHHCm3HoBt4/Opbz4rXFpcJeG1v9Ov3feXsZYx5I9Qrq2f0r1aNTCWtZHsVcp5PhR6s/xRur2F7XWLq0l1VHY5thdIFCfdAlClce+RXN3v7UF/4es7iT4hfELT9O0QIyfYrhfOllcdFV1Xgn3wK561Nv4mt2TwZea2moOqynUIig3ynqskR+Qr7YFcd8SZ9AkuY3+MOgan4q12JgrzQhIsoOqokY2kH3BNehTq4dbJHC6TT5ZR2PWNI/aDtfijaWsvgVJVt+Inmki2xPj/AGycD/gWKwfij8RNS0TU7jT9S0qwhSYeUlybgmNj64ArxbT/AI6v4A0C/tNG8G6ppt1DcfaLZra6lSJ4/wDbVNqt9CK5Pwr4kl+Jfil9U8V63qEaWr+YLeLKxk/3dpz+dYuth6MrxijFYeUW5RWhjeLPgdd+Ndeu21aeykk34I+Yqf8AZPp9a9R+DEc3wzumt3aWKCKNSZVwI1Udcn3qprnltbSS2kJh8w+cMOdzH355rF1HVbfxPpDwavqMsFhJ8sqQDc0n+z2x9a8TEYj2lX3Uerh6La55vTsdn4m8deI/2g9cuNE8Bypp3h62/wCPi7Zn2lvTOQM+2apX3w2+H3h2VLLxbqjSBRuZnfM9y/8AdA6BfY1H4Q0jXPi1a/8ACNfA/T0SxsUwba2jkwGxndJ3Y/jXXfB3/glT8Tvitq9zPqel3FpatIZWmuz5aEDHPJ569sV2xnKMFGxlVlh1Jyc7eRzPxB8c6Ha+GY7XwVoMen2SJtSSGDLv7ZAPPvWp+yN/wT48Uftj+IrabS9Pv7XSGuMXFxKuyDZ7McV98/AL/gkL8PPh9pUV58WWXxHqiHzShdUt4/8AZwp5+tfR3iv4ieE/hF8OxpvgWOytIIEy9vZkKCf7pA/nXDipQwsPaVJKJ5eIz+hhk1SepW+Gnws8NfslfCE+FPhgtpZwxQ/8TTU5m27cnaRvxzk8V5t4s/aN0Czt7nTvCd8cXUOIruNfnuG/vB88D35rnf2g9fn8a/CBVvYW2yHMMMRfy2Gd2N2fXnnNeReHPDt9qvh3TrV4LZfKbZbib92EPpnuPavzviDjqNNewwi16s+IzLOJV3e97nX21lqWkeH/ALR4kvI72GeQl2u23ygH0IPNc18M/wCzfFfxL1CHRra7Ftp8ocK8ZCbj3znH4VveL9SbStJFvZpby30EeyFduYyfUmqXw01C61nSLu5tLdybi4EM626YiUj8cn86/P3jJ49OVT4jwajVW0mdp8RfDVxf6L9u0NNPEluAJiswFxGh9E/i/MV6b8R9PXxdruiQ6BqVusNtpYZ8IJJJCMcDnjpXC614j0K51PSZfC+oWcur24EdzbvDsyAcHLc5P4VD+0R4l8nVrV9ZCWUqWqmLyh5OQ3bK12qUaVG1Q6YzVOLRhHxI8HiB8W86FGO0yDBAHovJ/SqV/qkssjqYf3t0/wA4Y4UD+8BXPW/iDUbd4tQNqZbWYEBc5PP+3yas+FvGF1q1xN/wlllbyQOxjt5YgSI8dj618tjeWLUoapnn1JqTskdrAlqbaAadqN09wVzcLJxgegrGuNHm07U3NjdyQPLj5oh8y4+nWrmg6Pcalq8cUUqiTBZXJ+V1Hqe1Zum6bc6Z4tnv7vWktbeI7Sp7H/PeuPB1pQrJx0N4uy0LQ8UP4mafQ/GKy3Vv5u+G7ceXPIvqPWrlze6b8NtUkso7ZbrT2jwpu13AN65q5qWrW3xGsIr60uJWvLUeU8mUO0YzlVArKv8AU9O0rxJaz/EcLc+G7keVITLtlD+oXBz+dd1RVK2IilsYuMm7tlnwz4hs2WT/AISmKL+yJ2ITyn3OoPbGATW94t0GHT9Aa70CQyWDDI+cbya848WaPp8+uy3vw51I3WlM37szcTR/X/8AVXUeGvivqup+FE0+z+zSG0G9h5CnzPbcen5V7bn7NKHLaw7t6M5O5vZbfxdBetAJIovmVmXJ/wCBVoajq+oancPc+G7kubmLYbUkK7N7HoP1rTs2XxFM9zfWphjYbbiJY88+xzxWR4n8Owvr8Fn4R89BJ88caZYr+VeZiXXqzUlqhKLTVybw94Ss9M8Sx63quuoNZjyPscRAVCeh3MecfSjw3oepat4k1iDxrE8dreBpPtE3HmE91bnpWHLaXGtJcnRrK2t2tJGWeUpuckf7x71q3GrW2h+HYP7O1W5u5phsltG3PFB74xxW6p3g+ZHp06sOWxt+B4o/CtrLHfSGRo5tg8kl1YeoOK4L4l+G5NBub7UbxL2exeXeSvHkD/ZPX9K7CyTWde0G0/4Ro7r2Fty2sK/vZfquOPzNV/iFpV3rnhyI/FEX2lXkzf6RHMuyRV+nANcOFj7LXl6nBUtGXMZ3hPxPH428FpBo8b3t1afKshz+7X/a4rD8V+F7v4a69Yxahc2Ul7qEYkQ2829gp7MM8VN4Q8GN4E8Gyz/D22+0XKzbt66l808fvFj9M11mueHtXuTo+t3Wk2um2QRSJpI1V5n7gDk4Feh7CVCo2loyOTmkpG34AGnFF1KzjWW90+M/uyud7HsOK5zQryy8QQ6xqmsarp9pemVha2FqreYrZxhsgAV03g+S18KXGpXlndPcT30fmGBfvIfRQAa8x8Q+NbGytpodMt2WHzCZoTjduJzyeDXbRxCVP3lqdNaSppW6noHjvx/Y21hpdtulF7KgE0m0IAR25P8AWuQ8bacviuOGC5uzFLHJvVmdQh2/jmtbVdNtP+EW8PXHh7U1u470qXtni2lGIyBlwc+nWrUnim4+HusxX+hSW5vYYTviNmkpyfdsiuGo4yqKb3PObcpJnO3GjXfhjULaTUSHVhuWdEYrJ+OOK2rPRoNe1i0ntJ2jeI5YDjf9azvA3xZvL7wF/YXitftkNtLmCQ8lF/uk96g8PeNZNE8URw2kQZpWCorhT1/GvIqZe8LXTWzPRgoJptG1q/wV/wCEu1q7unlKxaRE7GJyF3u3oe2Kzfh/4c0rV/hrq0OtWFvJfTTr5VxPy0C4zwR+VdTol3cah4nuINQdJRfR7FQcEv8AnzSal8Pdb+G/wY1GTT4rRZLicSMpQs8aA5x82PpXfCUXO0Ca8lJr2cS38Qo9JtfhLZ2jagLqW3TasKEld+MZzyRXnS+NP+EasNEt76B5Hv5DEGU5CE966jwvp97q/geKG3iR7vUP3UYdArfqcfjmtj4i/BaDw7a2Fh+7nvLS186QuR+7f2IJBrspUZVqlktghR9s0n0Nu0+K9hpvhk6ZpqRQ3tta/uboR7zLJ7Y/xrzvxL4ytrtLa7uWgnulUmeFsqzsO4B61c87X/A/grTW0J2s7Nptr3LWwdJm/u7yuCfyrxrx/wCL7jTda1M+JIQZ0JPmOoUAH+7g8V7lDCSnONGEdGb4ejVxH7qJY+Kvx8h8PeEodOsZYJNThmLiVxlYwe2e/wClfOln46uNd8T3GoapLJcXM2Hck5Ckf3c5wPYVh+PdfudVuUh1J5VLHK4bcP0FZtnqlt4ftCqBpNvyqQtfr+V0o5XhVBKzP1XJMrjhKcW1qeueHr59eE0Nkd+c+YuCQMVjfBP9nNvjD4+Y+I7iax0m0m8nyY/kaQ5I4BIOOB2717d+znoOleBfgjq3iXX9oiCM2ZQN2dm7GfxA/GvlT4xabrHxe8M6j421vx9JoNhHMUs9N0y5EDwqCDlyPmzwfzr08Bls81lyuVkeu8T9WbR9+2H7DXgPw7oLwaNZ3CzgZEktyXb8cHj65ryD4s/sgX2maw91paxXNvHgROBuUKe3vXgH7OXwq8a3/gu/1r4b/Gy10rUdMtTNb2Gsa2oS9QfwYY5z78/SvqD9mX9qO68afDJ1+Ml1bQXluNjhHG1tvcYHNPNclWXKylc3weIeIbdOV31ueY+D/hOvgWxuotShV1nlDPlmU8enNch8V/Dth/bsOppp0caafEUiYtKPMYeuCM17F4++KNhea47WEfnIhyu1CCPwYCvGPHvxSs9cvDDqQvY7nJaCNYXKkn1HA/WvHwuLlB8r1NsRhZtc0jwv4q/Em+trtbO3lvNjtlpS6qrDGdoGSax/h1YahYS5uI/s8Mh3EvISWPrntXd+K/AFvdeOQbm0ZHYiV/PUbwxGMgDhfpVrX9ESy014rMBHddpKjp71NfGzlU5YoUKHLBMW58XW8mjSpIUVok2A4y2frXM+BdAm+I3iODT9IS6w8uWaNNoX3zUfhDQxd6vLb3wkl+0Dy48HqK+sP2S/2fItPv01DWbVY3lbcAr4wvow7USzCVFJW1BYeycj6W/Y4sNC/Zp8Goz6bb+fKu6acH97Lxj5mwa9hvP227HVDJB4b0e7YQZBZ3UQ4OONv4V4J8SfGdvpNv8AYNO+zq+NmAwwPeuGg8Sy6ND/AMSySJpJmww6zMvrjGK4OIOLa2XYflhHV+R+ZcQyjhanM92e9+Mfjh4w17RZRo1xFHaYG9YwqsM9uleVeG5rq88Q6rb3kYtpRH5sgZ+D9OTWn4Avre5uZbPVBKtreWY2OGy3mAZ9a4rUrxtBvriy8OCOe8J27Gf94zem7JFfkeaZ1isyjy1ZtJnydabqS0eh6DrPjK5svBllFqlzKIFGYoxICf5daxfGc1rqujWN1eySW7wkSKksvBY+wq7BpcWq6Jo9le2gN2FEksf3n3n0OcH6VxnxF8H6jH4jSGzYTxbwoWJ97REdnU4wPfmvm6M7TdNnmzvzWR6j4HsbTxjdwRWl1bLIwyiO2S1cz4qt7v4PPd6ZdPJCbmXzVVGOHPquOtV/CXge70G4k1SxlYS6f80jAgiP2AzzXocniG1+MOjrb+IFtTOo2CYjDRe+eq13rmwslPubSjKmk2cNo3gB9fWx1G+1GPQfnS5DSo+64Ib5sMD39O1dh8ddTvNa8RhdT06O4sobeNI2LZbjuRjiu+8LfDG10b4PJp13rNhK1ufMJmkIlBznCbq8W+KfxJmk8dp9niuWtdOAjD5C+dGPVec/nXtYitCdNG8n7qfc6LTfDUl34Sa6WaK2ZG2xwx9FH97B7e9czDpUujaPcCze+8xHLfLF+7Un+I8/KvvVzVPGcWrNYwaRNiOdg2Yz2P8ABnHT2re0fwudS8dWmg/2pPp41FFibc21HB/gJ7ivEhGNaXJ0MqMFKXK+pl+BfiPONDkj1WOKK+t3aJgGB+Q9Dx0zSahNfw+I7a/kS3MWNtxFKm9XH04/OuqtfhRe/s/WV/Z+I1t79mm3veLAAqo33eTmuWvb1Ne1N7azkmMk3/HuRyrfWvNxtCphKicdjWdKOHlZu51nwu0az1D4jXLf2X/ZKTQ75WEbeRKuMbowcYpfjj8N7WDQFs9Rso9yzb7GbdkMx6An3qj4W8fa74L1e4l8VRX7DR4DvguFDCKIemBWl8YfH1v4z0bSbXTZop4p2+1CeFCYgOyg8dK9HFSi4QnFWaNK0YOmmcPD4O1PwbeG08RWfmPw+2BgTg+uM5qvoXi2/bxKLXSrCCKZJc5mG1CnqRXOL8Wp7bxpLbW95DbyW+Iy7sMyY7ZJyPyr2jwu/hnVtN3eNYLmDU75dv2i3Ql7cfX+P8BXoc/toxUX0OWKkrcpZ+Gnxj8Pwa5fwazZpJhPKJH3Hf8AvDP+Fea+LJ9S8EeL2k0+/m0yKKQOsqsFLKewJz+dJ8Wvh41v4p0++0y1vI3gXatwIziVd+7JQHg9u9afxt8XXPiDTdKEWnabbLBb4cFMsxX+vtXKq8vh7F1W2kjnvF2kalqutx32khpbKSNZblVJUZHU++fpXWaWtvrngqLyNPgiZJdksqM29z/tVD4Pg1bxJ4TtQmj6ZczS/IszSvGWX3Y8fpXWNYaJomsWeieJtCu9D1VDuMLTiS1lPrlW+b9KubqxalbQzcZRieYeK9bvfDs0MGns2n4GYpoXZGb6EmpfFM2veIPhtNPq9vdXkC4W4vJ3aZYyfVjmu78e/C/TGs2vvG+pM1oXIFrpUZM0eP7pfgfnXNeHdVSw+GLW+l3+o/2ULgO9lK21pVH9/IOK9GhR56bbegpXqwa6o8/+GXjFLTxBbW93cRQwu5YuFAKgdycfpXoPiz4mXXxA8M6za6C1ncDSZwIbnJ+SPjO0ds5ryLxZrFjoXia5Tw/AumpfkxwxOfNZQfUgcV3P7Pd7dt4H8XR6NLaNeW03lokEAeaQcZw2fb0rWdVOm+TdGNKrO3s2afgXxPL4RurabwvcQw6har5p+0nLSr6BT1rc+JsGk+IrB/Ff2W3mu9Utjbyorokcc4/iwBVPUfgjda5fJqbXKWctvB5g86MhmX+6o4xW58KXgE1zoetRQ3AvwWhQwqSsp74rxMNOtJbDcZR0bOX8CypB8NNPtfFrrEnnERoiFhG2cr8xJOAOKp+L9Mi17XIdLuL14rORuXi48wf7w6VpeOtA1XUvhzqLar9l0i801zGkSny96D+IDnBPpXnmhaxe3GhabbNJOhxvDxx5b6etcsqVapVtJaFxi3udJ4fSw0a7Fvpskd+7MBdMo8tYyewBJz9a6jxVotrrE9s+iWCjyJQZHVArFR3BxWddx2nm+ZqlpCuquo8yR/vbRnqBjnimfDbxLqvibXpobZgbazGZNoJwM4649Oa6ateGKquPYUqjb0J9ZT+xdct7vT5poCh8xSwyQfrXefD+aHUNL1RfiBqRSG+ffAPswlAb0yxqh/ZEeoaVeXF/GJo0AAyOUzXPePk/sHT47qa6MVpbrvdQrEZ+gBrz8KnRrOe6O7DzdjqviAjeKNGm0tUtfIsFKw7WK+YB6MMEfrXKXGmhfg69nJcwpqMA2FUnJYDtknJ5rsPBMsepfCee7nIN3HCZ4ZWGIyp9e9ed/D23u/FGleJY9Qh36ncQl7SRVxFIR0AJ6Yr24YhVJOafoRJ8s/d3Z56dSv5JEtYbrUAkfyqrXDmJf9pULbQ3viqniKKXxwssOsTyTKi7S5iAOfemtHqmk6Wl74uEMVyhLFQeMA46evtVPwT8QhHeS7DHIsjbju7+1frfCmUqNNV6zvJ9z7PJctqRtUsY0/wf09DHHBZLGQMqxGR+ZrjPHfwFstGeK7tGQupyyKfl/KvUb34mDUrybyggliOfKHIT2Ncr8UfiK9rYNLdJGsjLtAQD5j6+1fX1sPGo2z7rDVJRmkzhfGvjnWfF/wAPLnwNoEFw0VzGYwF4O8+/4D8q+XvEei3vg261Pw78bdI1CLTb1ipmWFmaPPdsdfwr1q58WXXiXVT/AMI7O9pcwvuDAlcn616Bot1r+s3kP9uzx6gkfU3KrJt+hPP6GqpY32EeWLOyWHfO2lc+W/gR8A7Dwx4j+zfC99T8R3d1MWjEdm0YiU9FGD0r9Lvhl4E0r9nL4GWkHiuO1bxFqCEyRyqjmMkZ4z0ryGP4k3PgTT2bTBomlv8AdU2tpEJuOhyF7V5V4713xj8RPEcUv/CTl9Lc4aaRMEcYrDE4l1ofvHc7aFByauuVL8T6D1UrqGnSG3tIbiRhlTGSXP5mvLPG3ikQWjw3MMZlhXcYZX5X2zjNb3gzwVr3gGwt7iXVY9cs3Qcq2xlz6E9f0qL4s/Dy18SaT51uPLnk27yTlznrz7V49JqM7pbHXVS+E8js9Zi1vXy9urQzzAB43l81Rj8BWv4g0l4NLkKq+z+8RyP1rktQ0W4+HOsu9+EkSSTdFKrDay+vWtddabxoYYI5x5IOHIbg+tTOPtJuaMFGyt0MH4TXUlx42eO6kXcrDBCkAZ9K+vNL+LL+DPBUFudv2h48GUd/qe9YXw8+C2m6v4Gkl0iGFL+0j85JuqyhffGR+Rrz3XoZRq07NNI0CL8sGchPx/8ArVzwpynVUpdDWpUhKHLFbGvf+Ib7WvED3d/M6zu+FX7yn8Aa9p8KaH/wlmhWhsP3WpFtuyIgDb6nNfP+i2t9BJbNZWxV1bdnOf0NfQPgG3bSrWCe4aMvIQuM84NebxXhfrdNKK2PyrizBSqLmfmacl3D8OvGlmf7P/tOG1lC3G5/lXIxketd9r/w28DeMp49Z0m3bULq3Inl0y5kKRvn/rnyPzrzr4pfDvXbS2kvpY7eXS5iDHJG5cjHriuy+H11caJpmn6mieaSBHcwACPco9hX5lUovmUoQb5T849nPS1zqb74n6ZFIZfAESwQ3GJDC6OWtcdQpL5P6VheMJRdadHq+m21ub6GURO785U+wx/Wsfxn/Z+na2NU8OySeXdtsFuwx5RPXnvn6CuW+J91eXvh5f7GeaKWKQNLGhPzAd+leZjoSVTnjBr5Dk2mm0emaLJY6V4gNl4v1GYWl7CJDcrabpFB/wBnjd+lcL8P9Rt9R+OGop8P49QvNBRl8jULiLy1nOcNlcnp+tXtC+Jdz8Q/h4Z9J0eXVtS0mMIv7zymIHY7sce9dl8Gn0b4bJfap4biVXu7dmkjvW3pCxOSU7D8q7cNU+s0LTjdnrfu6lB3epqeKZbbxabjTTcTWzlflmQBinsCTwa5uz03S9c1SXR7y6W21CFcR3TYEc4/6a8f1rotH8MRapq0cuguLprlvNdE6bu/U9qteK/hvGfHlrp3jK0GjXl2o+zyRyIyMPWUITtHuSKzq4bERg30PLjNxjocHq/gW+0vxTAtovlwwMJYzEcozD6CtrxJ8SL8+LLCeaLS01azMbq0kP7oke2c1qyXdn4e8T/8I7deSz2wDjUbe4LB89smsr4zeAbWxgttc8OalaajdeaF8jzNtxGB3JI2muOjhqy9+D1R24Sd5KUj0r4nC7+NngwaxY6npawDCToyyBGx0G3I78Vz11d6Yngq1h05Ut7+LjzYSFAb0zzU3wJ8R2vxG8Mal4cmj+z6o4zGDIFSQ9dw/HnFeb6t8PtQ8JaZqFnrQWc2kufLhZmJ967MwpPEKEl8zpxtKLtPe502u3+u6LbX0XimNpotSgIlK4MkiHtv5/lWboWs2iWFrY6Fp1/brEcILwiQo3+8o5H4Vw1vrviO9tkutKMqaZE4hkeeQgoD1GCMHH1rqL6a78C+IdF1PxXaSXVrqKb40WZSjn1yh4PsRUrCzrw5GedKcXHlexdm+FekTanceI/GFhY2y2HziWQqslw3+yuKqM99rXjK31rw7pcmi6Pb7I5Va4aRGK/gME+gxWd421C68d6cnmwkLA/myQQhpG2+i4H3vbmup+Ffjpbi5itp4Ps9lcA280MyHEeP4iDzu960oL2V6clsdFG0I3RleNvE11o/iqC80kXt4yMFdYizbFP945IH5V03xk8Ny694FttZhjS00uMlt8Kgsjn1JIroZvhgPDHhS81LTIZJ7EuPNlU5fA/hKckmk8SSR6/8LdQ0rwpawy2N2NskUrklG9RwMV3YbBxlT55OxFVTknJFj4W2iS/CHSdFtdSsEsr0YjKt5l0p9wen4E1n+FLC18L+JpLfxrZNq01n91pmy6/TjiuR8BeI4bR/DGmRxmC6sZv3kceD5a5xkE4x+Oa9S+KHwzn1HxUz6NODb3saL9qnk2Ipb1b29QK6sRQVejywexdBc6VxtzpC/wBj3GpWDYsxITHbsdzyZ9Mkj9K4DTLZZbbVbCxlUx6n+9xKnz27exOM/pXoviTw/qekeIbHw9MdPt7W3tg0M5l4Zz6k4zXAeK/DfmXzxzyv/aYbZM4kBQn2xXzsnUwc3TlsY4mDoyuilo37Ofh/4g+FPt/jCc3d3pMxysLCMMo/ibHJrO+CH7P11D4lu7Pw3ex6Na3lzK8NzC2SqdiWzyfasWDU7vRr6bT7G4aGS6BWRA+OvY+ldH8IYtQ0zw1dyLLNJDFOoUqWZdxzkA49ule5lnJzcyjuKk4t8x1nihdd0HQJfDU2oXHiC/sDsguDgNJH6k1wGoaRN4B8NxeLLrU1cWlyFltoCzXMTH+9xwPfmvW5kk8QXayap+7kMQyzkBsH6HmvPfF/hdNR+KVsmlPFeQMoje38/EcyDuB6+5rrq4bmqOysJQcp3ex03xJtl17SIdTC+RbXluk6oBubdjJyf0xVnSvh7pXi7wZo9zpuiW2nvZjZd3odi5+g7Vb0y2bxZreo+FPCiRq0EImii35ZcfNgMQB7YrC8CnX9BtbvQNdWWzdCSYm+Xdj3561zxofV5OUzdU3BSseDeOdZn+Httf3/AIhtdUvbx5t2FU4J56M2ABz0ruvgPq01xe6m2nXBt4byx84Rtw7nGMdOPXNdb4x1fXPEPgT7LaSy6poZH7yOSBHRPqSuf1pmi3Vlqvha506ziWw1BIPLg8tlUY9Se1eXlmH5rza1MKVNVIaok0zVr3wL4Fvr20sPPjOJblHkR9qg44ya0PGOveHfjF8M45tNW2huIuLyKa2WFlP90hf6VzN/4buvBfw6Nl8QbWJ02i4mJUtvQnP3lz+Vc74A+Eeg+LtEubizBLI5uEs1cbVUe/8AQg1vjakKMeRQ3NqcnTTVj0vwXqFvpeifZrcW90ksexSCDv8AoCcfhXPar4xvPDOuxTXctna2WnQyKbVk2sxYZB9sU+98S3uh2OliBbYtYLvUyICFHuQBmvMPjX8X7rxxPq9/ctaySQt5UksSYw2MHj+ta8PYR4rFQhbS5tg6Kq1l6nlfx88ez6pq11/ZcJxvLBA2QCTn/IryCy1XxBBNcSaZDMYQPlKHOG9O1cp8TPjg9j4haw0Vhe6leTrFBbRAtJIT7dgK9H0+51Lw18L4v+EmjSK7mAkmBPIY9q/b8TJYTlUVpY/bcDQhTpRgmedWPxz17wzrK/27D5KyHCgnKH/rouP611XxC+M83izwzFJcmHzh990RVB/DHFcP4zMer2bNcxRlmOQzHAP1PeuCs/GbaJFNZwGxuFOMKxLEZq6WJdRaGldKm7o2fD+qXEPiWaazdpJ5PmRQu9T+vFe3eCbbVdU059SvYbWK/i5aO5bbIw9cA/0r568IaxNpfiLDQJBHt5eNtuP517j4H+2jTDPpIs5IFGPME2Zh/s4PX60Qg5SakifrUWvM6973S77TDcazFGLzG0IEzhvTP/1qxl8NJc2f+nR2+5jkGKQhh+tWLObz/wB0yo0u/ftK85rXtLO2DJKcRPnBXbnH61Nag01Y6Y4tcu5F4b8S3mjIIbyW4jgfDCOT5tmOwz0rastVEtm8eoTzyweWz7wmW56Dr2qtregtf6Ja/wBgb9RjlG0SJyVPox7Vs+BvDc9nDs1uKN0YbdpO7H5VzzpysaQrxkr3OIsvCeo+NzFBpNvNqCgFY4ZSzsoHsm7+deq/Cf8AZ10270lLf4h2R05jDI4S3dkYk9ATuOMfjXS2+mf2R4UZtPk8mBWKq7gbxn361y+rfHBtBtIor+4gjeDOJM8uD2aunD4KUyKmMTVojfBPh28stWv9O8H/AGqCWNCAJJixCH0HGa5L4k6dF4duZLX7Yltd+TvPnLjcfT0H51zWs/tNap4m8ZRS/D+a0sb2OQxTO6/JtHU5HWue+Kll4ga2utQ1+7hu3n4UbtsZP93viuiWBS0uTGq5Wuzq/BniS2ebN9cKZVO35WBGfTrivZ/hh47gjhxfWwk8nDb7iI4THqOK+cfg58MJ/FuneXql3HpjTjzRHIBsX345r1vw/oN/pOita+HG+z3cfyrOGaR5fdtxNKdKnPSaOLHYWniotSZ6d4j+Ptv4ftZlsJ1gikO1oiMrn0CnpXG6t+07O1lGuhxCWTO0B+cD+8cfyrwz4iQ391HcyWpuzqOmsTcrsLLkd65Twb8VZ9UgC2diIZs7ZGQdvarwuT4OCvGO540cnw9JaJH0YfidrPi27aa4jaNY/miPaT/ax2+nNJofjfV5bqZ1NmI4WAYysxOD2xnmvIE+JOqxOAwxF3CjhU9jWffeMnRJF0qdvtYIdkjbGAPY9TRieGMHXfNKK1OStkmFqPVaH03b/Ec2C3MkSaZAbyL7PKAwBb/gO7I/Kg+NZ/D1hcW8koljjOCocHj68186eHb+58T34tNd0uW3JUyfaZHCxbx23Y3Vo+CtUltZ9Ttr5A0Q+WKfziqE+xOS1cUOEMCtFHT5kLIcJJWSPozwZ8dLmI2x09ooWhP+qeXzJJT3AAAwD6mutvvirH4mmMllvs5i4V5Sfm2j+Ff749jXyd4R8Tzae+oJBp7pfsjDzpCGaRR684yfY1p6N4o1Ca3Avri53253KPRv7oOcfjWOJ4Uwk1y3shT4VoVV7rsfW9j8QfDln4uju73VLeW4VQu3apMeP7wxiu2/4TDwn4svZn8Xot5HMMKlq3lmRvptwPyr4/8ABvxFvNVu7U7QjSttntZEUM49T8v9a7LQfiRpI8UEkX2lhBse6jmXyUf1G4HNeD/qVGhPnoSPMr8Jziv3TufTWleBZPELwX+gW0sMmnv5xFtGQXj9N20fyrL8TeCp7TUtRntI7q0fUYvOiEzsce27PX8Kh+DH7Qeq2Un2e08Q2uqQZ3k+ePmHoPX6V2XjT4wW3inwbcWSRo98q71Z48YPopzyPyr5vF8M4ilUaitGeLWyvE0dJR0PLvCHii3v/C3/AAj/AIpgg8i3Z2eInasp7HOOvtXFahop060vF8u6gEUmUtlO7eOzDPRfpXst9orHwv8A8VnY2LrcxiS0uEAwrjruI9fSvLvjNqdvZabp0mt79MupWS3WSNiuSOgz3B9O1eXXy2vh4NdT5/Fw5Xy21GfA34hvezXX9iafNfX7sY7ZVJDW7DqygY5+tdN4I8RW3ia21UT2FvFrSSusryybZw/bamcH864vQfhbf+HdatNS8CzXB+25YyrlSGPUj61knwJrfgv4ww6gbGLVbe4mWZIjMS6sDtYMgGTzx71w4aF7xrLUnDyclyM938MePJdH8Mys8lrFMw8mTzrRSXH97GcBves+58Japp89tDp3iC0uhr484zM4jSA/3Md/rx9Kb4uubnWNKt76LTEsLm4IEsEimMt64yO1VLIW2siKwuTFNdQx8xDLCM+oIHSuqhCcP3UkbOs6acOhV8J/B6DTG1EeKHmuooJCrXMU/wAkuDnCcZ/WvVPE2jQ/EP4d6fqGhy3FzLpwMJhWQiSID0XGPzqj8E9Yimmv9Ku4UubazhYgSx5CyexrQ/ZX8UWnim01e3WWSO53ySvHMmFTBIwRx6dc16kcOktDtpU4Sp3jucr8ZPiXG/hy3uNU0m5aSNRAk05MkkCj+9hR/Ks/wvHNcWtjJcxILaZNrTIpbj0J55rS+J3ij+09T1fTb3R7bzImV0nSQqVB/u8kDH41z3hC9j8B2RhjtRrEF2/mNa3twYvKb2YcH6VxYvL4Yn3qnQ4qsHNNTZyfiPwxBY+KHl8NvDaXNhcebJ5zbvNB6Kfr611peSz021guGks7Sa4ErpFJsBkGeevv0q34at/Cl/4gu59TvYLC+H71oHQ5yOi9wcev6Vf1q/XV7bS7bVJlgsI5/PJh2EyJ/vkD+VRg6Kw8vd2M6dC0dzd0bxzcILeDWLVLg25VVJtgDIv1qz4k0pdcuJbmS3sraY/NGpKRyxL6DHSvH/inq2px31leWN3JJp1tMpiVZMuUzjnA5rpfHdtc+K59N1nwbJdyQJD5V1bsoYE9z2wK9WouZcx0wg7CaTcP4d+J0Gq61ez2locRxqvLbic5YDB29s5rsvirY3Hivzb7SHnF+gVo5oyCsoHceua87stOudfLX+rxTTx2pGzby7KOxHcVtLY+OLLwrJq3geC2n0e2+SVpW8yS3H/XPjA981x4jD/WabSWoWnLRmbdPN4d8JR6UNRmJ+0GMLGdyykHHzcDiptH+H9/4EF0fE/lskw3vMlxFMkaf3d4/i9hV34meFJ/Cskq2cbXlgxdhcPMJAFzkHgD86wfBviV72G6HxChml0KIgRK7sioe7Db1Ir5vL8d7Oo6T+8yhV5dDf8A+E00Lw14Xu9P02yuLVb2JYpbm8u2mSU/9M1K/L+Zrzx/Ew8I3flaLZpBJI+5woI3q393I6V0fi/TdI8QapIng65MRmjEsbXTmaA47qAPl/Wp7nwBqOprpDXWqW+ty6k4UyoCVgx2GQteni5SxLUIxudLdo3SKOp3kPihIJ9YFxFGkPCqAFP+yfSul+Efws8J6t4H1rT9ce1lbWkkZhADIYQeh34HP4CtHXvBX23RIdN0+SzlvLB9shlRYRn+6TvbefbimeBfDFl4G1iaSXT3gW7VS0DOThwM446Zr2eFsK8DjYVKmxx0cTOlUuj5L8DfsYeFfgh8evEnjDxlqsOpW+m27JYAxl5Uc9Dj1FeU/GPWbj4i62/kW81tZuQyhk2Djt7V9c/F3wPZyeN5dS00zG1uyBLEFJOT1OM9q4bxl8Erd7aZ7SVmRzkLMwDD6Cv1/MI4fExtSep+iZZnOsXUlqfGnjfw7L4fttkrANJnaJBlVxXjXjbw5PfyM9zGbK442SxjasuPSvunxh8Fo76wP2RoZSoJALDK5rwPxn8Kjpkk32obhIu14352e6+leJh6U6UrNH2FTFU6tO6d2fPVv4pXSbqOMBp5RJh1BLEr617l8LdagigS7LxjcuVRCc59cV57L8H5NW13ytOCRMJOGlGDKPRTXqXw38DNG8Spb3IvV+UgEbV/SveVNSSl1PFqVFTWjO7tdXttfS1tpftltPKM+djDN/u+v6Vb0G+mhG2afzZoZtkYdCquOucn25rbv7iOwsLBNU0uBBbrwIRtlm/3qj8Z+PbnVtEs4ILSCIA4EkkYG1unPc8cUSjdq6LhiHym14G0a21a7mguhqFgBGZI44W2hiPUV2tneXmjfDqa8kW0to0lOACDKQPrXimi+O4fDGvpL4rmkhuolJySRuB74rA1/wCLmmT2uv6jLPfz28uY7WFySDnuADz+VOOFVR3tob08QzvfFvxPt9O0Jru+1oRWcMp3wo2GUDnLZ6cc18xfEb486r8RvEEll8PEV7K4O37VIflz6Af/AF685+KHjjXjcpYPI15p+ohkCkkzFuR82BzwMV6J4E+FVofDGleR5tjqABdVjchdw9Vx/WvRjRVOForU0c7at6HpvhvwudI1HRdLtVEEt3brIxc4JP8AFlj3NdTfa9Y6/cP4Z8V3C2UVmd8zrEZ2c+g2kfzrzTwVcadZXiw3HimZ9X80vHBK2JI1HcFt3HtXoPhYafbtDbSXa3ccJ86SVkHmNJ6eYp5rBYO2r3ZUa7dnc7fwgr+EtPF5pQRraT93gHc+31weldlp3juGy01rq6ju1igX5tqEEH64xmvn34p+NWtruxt7WeexhllwZoh8svsoFdpq3xy8Sy+F7Pw7Y3mn3mnTt521ouWb13Yzj2qamGsrm9OrdnIeMviE134k1s6JdtaW1xliZA5Jz68iuL0DUb/RNDlvrqHz4SMRrBFhvr15r0z48+F49fs7ez1O9S2v5rbzYJ7cArn+64X7x/EVwXgR5PDV7bjxncPdyxjbHIo2w24/vKuf8a68NH3djlxM03ZGj4W8e31v4bnXxFawNFO22GViIzGv+7yx/IVd8V3Fx4S8Lh7mzgmsr2RXiv1+Z4if7uBkAfjUHhmKx8Xaff3FyWvLe1lIWeRQXUDtjg/rV74c/FXwr4usLiwa11Nr+2LqCOEx/eCkYqpVHHRmHLorGv4d8Qw/C/SYtRW9s9ainB8xJY3ZgT39vxAo1uC5i0GHxBo1pHJA7+Y4eZXKD025ABqPQdIRbeeaN2kRxu8tn3sR3wnHT3zWZpnxbGoWH9g+KrLWLS2tp8xw29nG6TH/AGuRx7Vi5Sep1RbsuVF7SfGet/FnQZLbwKkVklrIryR7FAOPV+wP1qTwzqV7rcsmn6hcafZtYAyRhHaeOQgE9FXPb1q5q/jDVPtX2W8fVIrC8t99rDO6G3x/u8lD7KVp/wAOra28Ma8Be6TDrGq3ZIguG2fZY8gj5w4PrWEkpfEdMZSatY3IvGF7rGlrCptrG6iXbvmkjjMp9UBYFvwNbUPjy6tfh9Jaaoun6g0cigwRmMMxPUnPTFVZtM/4SrxGRdSWJuIFzs0yyjiBPoMdf+A7aw7PSbXxBqcEN1ov22aykdfMOIdyejA9frUN6adDRXWvQ7LS/F8OlxKnguZpZoSsrIrxxtG38QTcRux7Zr0HQf2g9Zs9YQJFHq5Vd9wNu4xr6ha8Xm0SLw3bS3GjRx2E0bl5oJ40ZUU9dpbcR+GKZ4BMlx4jurzTb22s/wDRSXUxoPPUf3GxyfwqYzT+IqVGnV3Wh9nx+PNP8SfDG3afUYLaG4k3m188I6N/wLp9Kh8VXGjeMbwWni3T7jU7EQ7rUiYKIZR0JO05x9BXzF8PPH91oSStpQm1mbz8zRtMXdB7K2cCvYfBnxqsLxIri/t2ihmB35iPmwkdyM1wYrJaWJvOK1Plcx4bpV5c0VqeqWWpa34d8Atb+EbOwvS74LSh/tAX+5Ge31x+FV7Px+mh3NlcahpN1Z+IrKRXVgmJTt+bDFsAgHqcDPpXOr4ysi6T+FtVklZ5N3lfalEqn1C7jiur8S+PtHk0povEGmH5UDu/nytPOxGDJJIzZz9BivzjO+H6tN860aPgsZldbA1HK2hq/HL4sS/FK30XUJg1hFasPtCLGCzevK561peCPDdx4q8Y3d98NhJawRReSDIgjDL7MetcR4IWPUNINn4e0+51ZJ28xUjdS6e2Qea6LW9Yn1LwxFHJfXenS2g8uCxmbyFkP4cn8cV41H2005VFqjzZNXbktxya63w/kutM0Z7wXVxP5bFmDM5YkcbQfQfnXR/CrTNV8J+JdSi+IxFkrxmeLyWBeVWJOHwO2a53w2bP4j6QtpcCKz1nTpFlE/nrG0xyDlemeh796tHVxot1dpq891Y61cRCBJNpeMqM8jP0rWFZJPuVTxEaTStoWPibfWvhnU5Lixv47uO8iaNoBbjch7nexGcfhXDaAk3j3wVfv4a1G2uU0mX96lyF+Qe4IBP4Zrrprb7VoNtbvcWN2ZJfLYyoXVM9SQeefrXSXng/wd8I/DUep28KXGq3Izvt18pH/CMgfmDVwhGvGTnK1jScVU95M828IWy+Dro6leJDcCCAyFSvDEdiGGR+tc3408arrli2paDcW8zXkmPs2VCRt6L6V6hbeOrTwzoeo63NaxLdW0RS3gWASRzk9m3E14Vp3hnUdYngvtbgsUF5NvWO1ZFKN6FO351x02nG0WclSLlombvhrW/+Ey1yO20rLXMCBfK2fKwBzwSQp/OvfvAvxD/siys/D/i+00+xGpQy2yjb5cue2T2NeWfCWyn0LxPcT6RY6stoSYZpomhJtEHuwI/IU744xed4rgS+i1G8gsgLmG4BLbM9d8gH9K1rY54ajJ72OulOVGKudnYf8I18NNG1a4mn1R9ThzH5YcSICOMgglTyCOvp61Y+HnjS88O3qahax2awXI3TWbtxeR/3AvOWrj/DmrReI9KhstaexhmklMpnunlA2nnBCsAeQD+frUeklrzX73R73UtIsrhJf3F7Esixn/aQlTsP51jkWYVMVT9rUWlzqp1/aSSNTxuzpaxW9mvlabJGlz9pZd3mv1MQ5445xUJ8SaJ4g8OQC81HS7N4mEf2Vpdpf1baQDg15/JqsvinQtM8NWFxqI1C137P9GdI5ODggjJJwMZre0X4M48CLqHhjwNrEmuW0he+1G/KqDjshlwoHtk14qwLmvdWx49OpP7J1XhLWNLfxNt8TTQQ2MQ2KsdsXDj0AXGK6DxP460qazi03S9Jm02zWTYjiMxkP65JOK5/4BeDrbxdFfN4jtBafZ0KRXMV6rqsgfb91Sc+tP8ADt7YyaNrq67qcC29nJ5mbotGXP8AsZBzXo4R1KNJprc7o1JJe9ocjrFpdaVrsVsk8qmMiQI6/MxP8ROMk++K6zw54x1adf7N1xLb7Sp3wspBc8YyzE8/SuasfH+h3V/c6vqsUjBoBDFezlgWUdlGTk+9Y1z42ttc8V2btewwojZDrhVb/a3Y6e2K6MvxDp3lz3ZzVJLdHTnTb6wsJ7nV5oJXknaONHlVWYnoV65ArD8YeEVv4kS7IkccSMpGFPpnNYGr+KrnVtelvLjUr6WwiX9ykJMgZfaTcFU/nWn4J1eNb+SW2itbG1mTaV1KU/f+gBr1P7Wlh5qfMTHEOmk0cL4s8LRWdxGdOhYuwwwAzn6+leJfFXwNfT6g8york/cOMfmK9+E17aanKLeOC6jufuzK+U/DP/1qi8XeFIbbTre7Eum3plGZlguA5h/3sDj8M19blmdRxjUep9DgM7nDRu9z5DvPCrLYmYLEstqcuG+8n09K7fw3caZD4XkuYLu1W6jO5yDlsdzXIftJ+P7P4X6v9o05fO+1g71AzvI7KO9fN0nxU1HQPigi62txFp97v4VTs2t2JHTFfZUp8tlJH09KUsQua5794o/am0zSb5xpUy31xYPtYyR7/r3rzDxV+0i/jrXJJdAgd7eJyqylirtIAC2Fxjvwe9edx+GJfDmrXxLM0WoyvKjFssQ3Tj2qCZrjw/fRyXxM8zSKllZWpAROAAWHfGOfWulOLdrHp01GKSRo6h498QarcT3N5DPeXlsMLEWYtsPTv39K6T4aPq2q6rdRGyne/nG5Y5DlIx6qnb861vBvg+W38Sl/F5dpZYxIxXqG7buwxVu7v7jwp40ikju4bVH6XKDaP90sen1rqpQlUdiHUbbii3eWVpotqAq2rXyKd7yRgOjnPT86wdB8V6hY2It/PlkmEpxK2AQD6V1MngrQfEvhue81O8MSWoaSW9VzKkpXOcFRx04615ncXV/pV2LlbSUWEzlbSR34fHc8cZrpcfZaDtJRs2Q6N4dbUPiPLfJm7S0iKOucYz717bo/jOyj8FwW+jWEK+SfmtolO5z64615J4B8Vr4bmv8A+0IrKa6uo8sIwQo+hPWuz8AS6dqviHz1ub23naLc8oAEcZ9M55PtgVz1ea6N4VbR1R10t+1nZ+ZrcCzPKm+2tkILxN7DtXHWHxmPiH4j2VreWCWS2q+V56OQS304FV9dGnyMNYsdRW1u0JAmcs6Lj1x0rkF17xD4g863sLnRry883zPtU8a26/VQfvfpUaS0N4TdrxPTvHWjjQdVnurS6vtQt9okifzSqRMfXA4qjYSTeMdNgfxCIbcWY3208TYLL6PjrWQnjXUYtLS3+JOpWUtrGAZBFHw2P90ndV6LW9Pi0bb4VkCqV3FsfulT055rpinFHPOpJyV0aPg7xdeaHDJDo1gsLSgrJHdj/WMf4gB1+laUnhCz8J6SL2+1aGK4ucvHFBFtYA/ws27H41w2laP4q8SXBl0K4T+w1fYZpFcSFvSNiuT+Qrc1j4b6h4ZSSSXVJdRjlKrPbvEZbiIn0VcqAPXFQ4c0kVOThbXc6S18SrptpazabYX4vDLsN9NchomUjJ+Xb3PHWuv1nxHFN4Z0/d5cSl8F0jHmj6+lcbZ2SeKb0ad9mji0iwh3yTIxVyckkZ7HjFXpvDmpaD4jtU067sorGNUnjMsbTnDdRJj0p1IraxpSn5nb3l7pniDwTf3GkXUR1KFfIiaSIEqvqpJ+9+FcP4T1N/AsJsPG8K6lDK3/AB83DEPDnpsx607Q7G91C11WF00+W2nuPNEsMmwhvRVOMD8a2fDl9HfanbW/i3SpzGcqkkm2RAR03FScYrilHmdjuhOMOpZ1TWNF+H3j6K28NX94bDUrfzIpDExMTem7P9K3fD/h2604td+aJYrqElJEl3uWP+yc4/OuT8U3kr6ddRy6XbvHA/FzHdA3Kr7L/wDXqt8N9Tj0/wAVMnha8hSO3RI3tL0ssiM3VhnjaPWs3Ts2a+0U07M63VvBt6ll9uuoYb7ULgZQRylkCf7YPQ+1N8NfDaB9YjuvE97NYRWiERCLIWOQ9gO4q7e215p3hfWbSwjkuYppvOlnVjlV9Eb0qo3jePSfDctu8ckSzELAssMpdc+rAHn8K56kOhdKUrWOk8K6rb+F9bkXVoPsFxIPKkaRSrXkf96M/wD1q1IPFVosrf2RcGWSBigeJ8RsT/fJ/wAKxtT8IReAfGGlXfxNgvdei1G0Rg8k5STTVZNpIL4Bx17Vja/pttNM5kurG5gz5sF1BcAh/wDrps+VT7Eiqoy9mxyhG6bPZfCWrhNl46Yv3G3/AEK5SSRT9ATXofhzxj/wsbydP+Iln9i1CQBba+lK4mA7PtJr5r+HfjdvDfiazuL3RmfTyxBmhmeMsR3yDXsGl2VprniH+0dN1WOGEDIikmjklPGeApGz8QK6K1GGJi4zV0zkxGFp4hONRaHpQ029+HOoquk6olmITkyWy8n8a6W11A+IzJJqUv2m6Me4SXJyXb1Ix/LFcD4f+INpZOdC1W5a6iuhmJmnjEp/U1pWVxeaR4gS2u/MFqBmIScNj/e6V+bZ5kNXDe9R2Z+fZtkcsO+aktD0XxJ4Nn8V3OkLpk2k/ajbItxHDF5KQv6Ek4H51L440HUbDTlfXvMhhtxtgvt/7pn546Z70mjJLpHhdNS0lrTbKWYSfbo5Zmz/AHouemG7dqdrPjPU/G2lbNQSKSKb5pQwIjQ/3lBAx9K+V5Eo2mveR8dXi2+VrY5Z/iMdL8I3mn3emQzzSPuaXDC4YeoOeKp3Q1HxRZWl3ps5jt4gwW2eVQwx/vEda2V8MXfiLSrmA+UNTgiYpKcKGx0GfeuQ0fzoLma08QWqJCrI0TrjdHN3GTnIr5ytVqVKvsr2JpOS92+h1Ola0tnBJZ65Zv8AZ9pILEgAjuvHzfpWdc6HolpYXM+m273Lamp2bl2OjDupxXa+JPt2meAU1DXbizaCyjKSIluXbnuDwR+RrmPPtprVL/w6+oajcCI/aLOZwjHP8UeAQPpV4W+FnySldFxjaZmayfEXhjS7Cyt9Jays5o2khvACPP5x94gZ/EV0+lX174q8nT9Uurm1F6gRpPK3RFx6+v0qvoXxFh8N+Bbm01DWLgxTMytHK3nTQjOdoZxwPcAVn/CawvNT8SR3Vvc2S6UP3sM899uLn0AXP61riUqs+WL0ZvCTlUUH1DxLbw+Gp7jw/PcTzhV86KVoChJ/I8U+1ihlgS31GCS7kEW5ZY3KsG9M5NdT8ZvEsml+IdIu/EliLiz1j/R1liZR9lb/AGuefzrATQv+EZ0Wby722lmWbdEsB8xmT3ORj6Vrh8J9XSjF6G9bDSoSUkzj7fxLp+n31hqeipHfahbxHMsqbXbIIyFGNo5689KNc8eXfiLWm8p5kt5AWEAupDBuP8JjZiD9a5W31S1j8Du8FtPLqzRkTCTjyMdsjqPbioPhndJrHhSeXVIz50bbIy+E3t/s8nNOdd0qajDc8j2Uk9Geq/CXxnfX1zqlqmkWFvaopWK6DO5Yn2ZjzXO+JxP4jsb6HVbuN28rEW8sArenSsLwxq154RtzNFaXYfzRIyndtCHvggcV0GpW8Ot6pJe6VG8aKu/ZITtz9M15uIxcqcY3CUm1Zs5L4dQ3ev6RJp3xCu4bNoCxjnSMuUx6Lx1qbxBJY6T4WuJtNuPtRV/LjZodkiKDgnv061JJ8RLLR9B1W58TWlqkbuiJMXKhTnB7c1F8abu0i8I6ZqXw4trVtPuNsJTzWkkYsnLHpjPpW2Hq3heBdkopDvhd4ikHhW7tZdQublZPngt/NKLEf9zoR7Vrah4euPEOnvLqVxZ2awL59xKz7V+gwOteY6Np9xoV7byaw9xZG5jCuR95M4OT6HBzivXrHwxo2t/D0T6vqssdiLjy47VpBHLcn3POB7YNdVDnxM1GUdEJWtynPeHLO48TafeCO2eS2tziWZBg9vmc8bV+Yc4rzDx345uYLmSx0+4gMAGB5Uahl/FQM17VJP4k+G3wy1ODwlFZxnUpc3SxoZZ2h4+QscgD5R2rxS08MC90zU7vVbYQSRnaQnOG9jxx719dkEIQxEeV3O/CQ5ZK588/HjR/7YsN9lAl1eKSsLSruCE9wM15j4w8JxmDS21aX7M8SAblTKkn+9Xt/iuxluYQ6jy/JbcST/TFcZ8Qp57r4aywxRRS3EkofzCoJVB/npX7J9XUoqVj7zC1OWMUc3H4HWXRIzYSq7w8ea3znbWRrGjT6Zdx3VpZx3DRtl5DEAyhe44rtvgnBfaNaXYvdPaW0ePbG7nOW+nb61zviexk1bxIl3r+pSoZJnjEKfc2/hTp0bO5205Wk7ljw/q8utzSX0wMSQ4X7O5VUcDuTnmuda3g+Kmqyz+KJzDZ2CFooZDtWUjvx96m+I7SG9aez0++FtBBIXkkTADxj09TWS41TWtPMCXNnZ6YyERP/wAtDn8OP1ruStsVtO5vXFkbiO2sNP1uK1swqmby3CL8oJAIH159az/FWrnTNDmktNTs9Vt4nCxpEfnXHUgn1+lUtJ8JWPhfR20uSKO41Cdt8l0zF8tjGQwzx7YrnfFloIXmhu1uNkK7VRME59cgCsJvW7N379jQuPDlv49gE2lPcxC2XczmQKMYz0xz+dSfCfXJfDPjT+z/ABK9tcqPkEgfG/39M+9SfD3XEl0Sy0GXTrpLa6PmR3Xlf604xgnPFWNV8CaVo3iaFPFUgt1X58ocPgdfyqXNvRGbrtXgbnxH8YaRfeFruK70l57e3lKxw2DkFwe52jmsfQprPV/DssUGiRyJCm950QvPEP7oLfzpui+Il0PWLm30SS1GnuMQSMuefUmu707xlGfDUlv4tEUTX8eyWdU2Z9/lHFaRo8zTF7dxSTPP28S6Z4c0zzVhhuY4G8uJLj5WX3OOtaPhltLvbiTU7ewvbm3uV2F4JMRh/XbjgfhUlz8NLG/R1uzHeY+dSG4cfXtXKaNo3iXw94yd/CMDSW8zCPY5woB9O36Vq7N27ERqqTZ6yV07WHjt79brTok/fW8kbYEj+rjH9KybOfXtP8XjUbnUJltYg0CRxxOomY9AxB5+tc3dX97p+srJr1rqVpLNJ5f+kKQ2f9jAwau22v6r4ivhpxjl/szOFImKyoffI/Wh8q2Li7yV9j0PwfqFxba9qEFrGTdXSPIbaQbeWz8wB6gZ6VL4C1i88VafeR+N1mso4pGjAW48qRkHTOBzWb4GuhHrMjXcrWFxEjJFLIwZ3x/CGJOc10vhnw5PrNzLbw2FyDACDOsTOGJzzjqenpXPKrd6HXCndtneeGprey8qy0u0mk0QDzHaRU8wt/vkH+VYXibw5e67p9wfAFxEt4JS4inKyRIpGeS3U+2BWJHpF4+n3On2FxeQ3akAs8bbVz7Zx+tXtH0TTriCSPUYbw3k0e2S6im2QuuANypzluT3HSh8sldbm3JIm1dprbw9DqeqtbS6tOnlvDZQhNzevU8UyC4n/s5Yxqym5lh3SSXkEZMZxkISuTis671XSvBV9DZ61E4mlxb2U08oXcTjr6Hk/lVrxn4f0m+8F29xpdjeT3VpIDPNHPhORj5gAM/nXHVk0dEEkZfh7/hOtZ8U3VnpGqwNY+QzS2yMQzqBnC5HGenevRNE1T7T4Os/+E4j09DayhU8xBCcDuz8A1ylzpeqavBoEmj2VvFc3jqBChdXlhByznHOAtdXf3dh9rbQtVtDqFvcDa0CDzQje+4cfnWajpeWp2KatY1/i5d2+ueBWv7iHVLhpS1rJDbTKI1UZwICPp715T8LXYeHtU2QwTRy/IReBXZF/wBpjlt3uc16J4Znv/FGkPpUdvFpWjaO+2KNYztcLn2yM59TXJ6b8PNMe/vNU8M29w9sspR9s2HaUd2HQiuWcmm0NKLuixbu32Sz1K5W8EPh7pFE/wC5l3d2/vflVrwX8XE0/wAdyW+n2zRXV3Hky24UTQjGBjK4bPfPSsXT/Fo1G3nzazRzw/uykrZBK9+wP5Vyljrup2vjW0urOKLbbXBjnVjuBR+uQOR7c8VpTm0rG3LaOp9RSeLLPWre2s9Ys/8ATLY/urvzNrOfQFcV3/w88aTa7p76dr5uNQtbc9ZOVVfTPU1843V23gfxLHc6k8N7a3uyUR7v9QW9gTtxXrXg101DTf7U0QtZ3BJHzzc8eqilWjGcbNaHNUiqqcJLQ9UaC18DanDdWSteab8n2dYIwhG7++QMnGW9Otdv4Q8RWutLOmkwtFeSnzFtZNzZ9/m7e1eS+CviM03iJdI8WPE0U8e0Sr/qd3bBwMV1kV3efC/xdE9xa21xBcNiGe4dg2303V8FneTxwk/bR+E/PM9yGWHftYbM9lbwXrL6NFq2r6ULa1MigkuFVgPoc8/SvONS+LOj+HzcXsGiSKkc7LJIYy7xg9CT0GPWuhvPFdzruvoNOeM2VvF5jqZmYZ9MdKTxlplt4h8NG68LxNbvdxgNbwACGQHsVOcn3zX5xmuMp0qnuRPjcQlTlaxyafHXSvHGqpp+jLdJaXB2zSEndu9PSrMMT+DNZkj0EvJDJH+7527R6Ec7fzNcj4Q8M61bXMtvZ2UFlZxT5bzRmUn1FdXrt5Db6lHb6wiLtGzzFYgsPU8VnTxN6fMo3uZWcLS7j9Z1GaaJG1bTjraTRlbo3cXnlQfTcDV7wNHoegWP2YxRCyuH2sFCho19SB1+mRVvRvCkuk3D3MMSalaXkW2OKC9DP9cKSDWJ4h1k2/h2TSbm2e2tjIPmitRLP5hOOHXqKpNwSqSRoqsXsbfjZ4dCsTpWk/8AE/0wfNbPcRbUQ4zhFySPrk1i+G4V8M6U7XdzaXa3c2WsiCuw+gY84/CrfhHwvdxeEG1DXBeG+tf3MOOZETGNzLT/ABB4Vt9JkkXxNfnV1nRZIzPC0Lojf7wGfrXo4ahOp+9fw9jtliG6aieIah4pgv8Aw4Layli0m4mkPn3Gwy7lPfav+Jqx4j8Basun6XFaT2Y08XCyPPFC8F06t/HGjHOPwzWx4m8P6hr3jhdX1+xj0/cSrW1rbmKOMDrsUfd/Wl1HVZtG8R295qmmpcXltIJrSxSR0MhX+N2Rup/KudXp13Tqo8aKlJ7nV/ESbVdVvbOLXtWcm0tljtYp4ngmmX+7JGUBz71V0S61K3miENu6JKNrx5HA9c1n3ngGz8c+KI/EGu6ve6fqV6A0tixM7Lj+EbzkfXNbWlaO+iyxXF2VnhmkxGzSBcL6MCeD7VzZjhfrKtTRcqPdnMfFLw1NcfYbPV0tns5LoTSJjgoDnpiovhTp+q/Ev4rpp9/b20XhmQTOuYtvklU+UY6n8hXo3x8sxaaFbTeC1Fze3MXlLEIzI0Z/2sA4rjfghb3uj2ct7rl7/pssxiESN+7iBGCS33q4MNhp4ZqM1oOyp2ujn/G2kSr4r1Gzvp2urLTJ/wBzNt2+Yy4GHOTxgY71qWvg+Dxb4Y+0sEt5bOXESJc7mZv7wXbz9K6HQfhpB8T4/FFjJexW2s2s5+yxeZzMxGfmHFWfh98Krnw1YRaX4nMmmzSEGaYRsdrHsrdvrXqxpOm/aJ6M1hFO8kdv8PrS9n+GEd54ti0K/ZMK0c8zRkKTjLIvzN69q8R8e28+orfQrbrZWxnJH7oqHIOOD0I9q+i/Eg0z4WeFLq60q9sdT1NoQ6RmJmVAE6Yxkn8a+bviR8RtS1rRbl5LyeIXJJ+zRoBGuTngYyK+uyCjKE4PqdeHj7y1Pnr4myzjVpI47qN2RtqqkZwa5nxHBa23h0Wts1s0ssud5X7v4Vv+NImKGacPuL7j5hORXnPiPxL9iuLNDtfzpTtjB+biv3GimqUXI+zoL3UytomsX1nq8GnpcgxhvLkKj5WX8TxS6zoWk3etSrq8zxC3BIcNxk1X8UaHNrR0/wAi4hg88ZIx8+fzFcz43iu4yIbKUSPLFvIK8ke9NW1Oxyd00cX4flj8NfEy/F0J77TbqUsQWyIyf4VHpW1q7XT3hh8OAWpcYXcAQPfBql4J8MWlnaXFz4uuJVmWXfDFH94mtKWK/v8AXJJdKtYJtq4CvLswPXODmsprm2KknLVssaBrMuixNBr+nx3pjbZG4kEc2fcrmsr4g37QaQkkFh5drJL8+4jzGHse/wClZuteGtZudY+zaLJcQzyv5fmW6Y3j/ZyOfrWrd+Hr3w54U+wa3PLLPKm4CVQ7SH/aNcr96SR1RahFWA/ECK20q2tY0do0dTGkY2lAe/4VlfFaKPxbrFvdh2t4YVw5iYuXHcZxxmuXuPDl/caZLPrFwGunkcRKrYATsTjpXQ+APhlrt/b263uqssLfPIUOAB+NdEKdpWMJuMHzt2NHQdBZNEWeBBDYzP5anAOw+6n5h+VdXoulW/hZ57KG3bWNPHRnnMQT0wz9c1T1n4ZWus+GCLfU2hu7b5wokKyM3uepp09rb+IfC+nw3CSNJb3GyfLlww5wTn0wPzroknFqxz1a3tFdHRRWN7Y3r3iaV5GlAjEquHiRT2z1P5UzW9Q02UCSzuXs44CHaRIzITjttyP51mWektBqBksJ7rZGAnlrITEMd9p4NWJdfgis5hFse8AxGhXarfXrW6hGaHRehPfajN4v0Vbs6hd2ttYZf7RLBltw9ATxV/wl4J8P+NL6L/hFL/WFurhA1xf36jyCT3QKeT7Vj6f4j17xtp9vpkkFtIskhDomEVVPckgZr1zwD8OrbQdFh/tgW9wbQiRUViM49CMY+mDXLOlE6Yydzbm+FGiW2gwado7X9/qI2vLcfZNkfHUq3OM+lb1jPq9l4bhtrOK0gaIlAsdkpYxjPV92SefWruha7Yw6PJHcPJnd+7EbnG73GaybHxKlr4mtobS8HlKxJDj75PfOePpXPUp6XR6mHqNLU3fh9Z6Tayve+LJJbixYgzRCNxjHt1/WneO/DHh7Xml1LTdPgsLVRth8jU2WYvz/AKyME46jjPaq+ra22ga09javCwvRl1V9xP6gVR0+LQbvUEGoW8UtnIx+0XFtgNG4/vAc/pXDOUkrx3PQSjNHFeKtAmvNE0qLx2unz2yziViLcSTRkZ6EH3H5U7WdNg1LVvJ+HenX0mhyKJJnXjfKPVM5H616B428MQWk1tceHo9tsnEaqpLOP7xJ4FePfGJP7G0211bwdd3mm3tnKTIIpcsMd0TIB/GnTquorT3OdqUXudrqWoXMvh63Ya3dWWu6bG6QRi1XzFRjtKA78kY46Vi/ab3RtL0i6ubm5a8jOZ28vZIw4+Z/zPHtVfQo9Q+N2qWnk350zVp+IbkqEdxnPJxgN/s4/Gu9m0pLnxJNpWr6lb3k1lH5cn2z5PMHPUjr1H5Voo8pop2I/h/FdeKptQ0u3hneYRmb/R7kHcp7nJGMenNUReJpOnX3h3QLdbZnYrPcltxDH39fevP/AA1qcXhL4t6p/wAI7fvdWsUMkcbF8KpPTawHb0NdB42vv7Dj0oeGI57+a+l3XbK2QjZxz1z61hVjz+ptCavdIw7jw1d/DDVrOwe0Oq3Mspk84sdpz296n8UG307xba6nJZLptlqTCK4jhIYxyA4+bnivSJNLgg006hrN8t1LbqDHuYDymP8ADjvXE6vpsmt3aWdi4kkuZPMlZ0A+XOfTk1yaxdmdftVLchXxhBoV9b2llBDdSXLiPeR8rk/dyxr0T4Jazq/gXxlc2d9o32yyuFJcQ/MuD3DHOPyryzx2mlXxs7KxSf7bDceTDFjaJJF6fN2rs/hj491PwddvB4vhlsZBKEOT8m0+jd62UtOVhKCWx7bq3ibw7rOnxppovoblNyt5oXfbuM4JIPQ464r1TwbqB+KHgddL8ZtI01gP3cpZfmH94e1fPUPhbTvGWo3d18Pbv7OYyJZI5LhCzsM5Vh6HNdr4a8VT6TbWpkLafNb/AH8EbSPQ8Hj2pV8PCvTcJq6ZyYmhGtTcJK9z0rSZ5LWzu7XS4NTa9iym+2+4FH8bE9BXY2t3qVnaWlrqv9ntHcxB4bi3dSkWDja4ViwP4VzSahJ4o8MNqGkO6T2keJhbk7bgN1yABkD0rAl1E+HoYZdKhZxO+6SZl+XdnOTt5x7Zr8b4mypUZtOOj2PyfPstnQm3FaHoureMIdctTovnRWmoxncZVjxu/wCBE1z3jbw+1leRt4ishZLJFjaXKmUf3xycCtPQ9OPiGZD9jtTeeRvxdny/M/E4q3ZeNLD4h+FDoPjmGNp7SQ/ZbpFPmRsP4Cc8rXx9nSiot3R4XMqcLNHDzLqvgLT4ZdNRLzS7yPMi+c9wYvpk5T9av63LfaxoT3PgGI7JFCEFyjxsDn5Tnr71z2keGtautSuLIveRtHvOIRuSUL0796xtF1e50vVLcBrldPExEkk27aGGe34Vz1nKNmloc8rWTRs/D/W5ftMj63c7rovhofOdSB6PzjNdhDqkj/EefVfE2tXxsltlhitZoftJjZf4U3NhfrzWVB8JbO51hH0GXzYrp/tGJMRxo/orE4/Wr2t6YniLwvCYGeLUoZNhRG3xuPXtiu/AvEU71N49jtpv3U2Y/g+4vtD0CV9bk3Xtw5McDTl5Qrd+fX0rc0yC517S7tHhmg1BMxRGONSUB+q5pvj29tm8QxHSba4trNo9yQtMjSK/bnYDx6UzQ7Jj4Q1KSwiuFvl/ePczSsZB7ZBx+ldc+acufmOSmk22zl9ctxpOoxQXctyLwL5DF0ZdknryOa77wb8QJdC0e4g8PQ6Q8U67Z5pbQSy/7yljwfwrjtAh0jxNLeWniwXCPCn2hLjegO//AHmBq5oTRTWcjWl1AlrP+6iIYABsZ5/HipvUp+/CQVG76FyPXU16wuY7QoNQn/dQyG4aEKPcgc/pVG/0b/hC/DFpaz2gvpIbkLdzpJmeEH+JQOq+9VdA8GyQa7cy6peGUSTEKqDKxY9TXUnVorfUZt9lDHcsBCl2wbcgHZeOB+dZ0sROpKXtVoaQi5JpnCXGnXmheJ9QuNCmZbpvmBDgzBcY9efrXp/hW+1PXNMhgvHuLi48sDzdx24HY5Ofxrm9Ds9P1nxaDrExIFv5btYIm5mPT5mI61taN4Xbwprl1arPN5uA0ckrFiFP+7kVzYiFSNLnjL3bkS/d6Dtcv5tCtw/ieykubO3n2+R5+wucY4OMEfQ15/4vtdLs75DYPtWYZaKUjI9q7TxLqWteMLhk164uptNsh5cGXKrbn/ZHQ/U15/q/g3S9W8vUXvLlb+1kwySxfJKPY7v6V6uV5pKOLjCO2g6VRqSb2PC/jTp3+kXCW0aeWzbck/d96+fNS8PvB4uiELj7OhKmZudpNfV/xx8JQQWBVIwkl19wv8tfPnim3bw4kjMqyyY7n5Gb1r+iMsr+0oK7ufd5dP2sdGcjqi/aNRWPSv3zQORJIPm2gda5XXPEcV/4sK6fLIZpFMRJPCgeo7Vuy6pLo+nXkG6OOVwS0id89a43QrAyeKS8s0ciRklmAwDn+8e9djktz0dIXuWbTRZ7jWWaS6inSMY2oeV/H/61dDploYdHuL64hUKp2RfNyfb3qvP4aWTUbmUzmOMruJt14+nWqtldwNaJJqskxt7f51VDk591odVzjZLYqEozWp2nhzx3FqGmmS7QvPYL5WzKh04zxXNeI7T7V4dvbnW2iDSH92gO6VV9c1d0KdfE2oCbQzback0TKyTRjfK4GAfxrJ8J6M2t+Ir611F1ZyfLJJyVH0OKzpqTkuZDei0PPrzTBpgjfTZJ54JsxS7hkrn0re0jSpbTRpr3StTv0QnhGxyvpjtW38VdAtfDOhCy8PWn2kLySz5dz68dKpeGLO3u/Bk5mv7aPeu7yHk/efTOOK65NRasKpJSilYin05NU8uWO+nhMjYaZ+/sPWrqa/a+EtOu7aJ31USSlV+TG7GOc846H86ZofiU6bZF7LTxdm1XMCScpu9Scc1BpGk3esH7bqj20Ec+WEaHaQT7Vqpc24nOLjytbFfxJJr0dnHceEYFMtz86IONq+pHc+1XNL8H3WnWT6p4qkmju5E3rEc/P/ujHNWNShttHt4Y7q/kuJZBvA3bWX2yKpXFvqeta9ZW9xci6ZZtq+buOxPQc1tCPRmKk1oj0n4U+B18PeFI5tXhmN7PiQb5Qyqp7ZPeu+jv7qTSNscLSop+duOF9Pepk1eceHl068tYzbqyMzhV698HFYfibVIRpE02ieXHLG21oVc7R7+9Y1Uos3pz7k2o3j6XhLWU+Zdru2A8xf7R9/aqmlwz22s6fFepkN8/mSPhSPcjOPpXM6X4jsr/AF+H/hKb1JNp3IIU2kH/AGmzz9MCpdN8VXNr47isIZ7OK2mZiplUsEI6H6H0rjqa7Hp0qiSOxu/iBYwXlzPqdlBcx2beWIFkJ3D1BxmruneNdD8P6Z9pgt3jvL6Uv9mSM+SSf7z5zXkfjC28SaT49c6II7yyueLksBtj6cqfx9K9M8HXzaP4gtJbqLTp7QxsZUuIzIjkdNo4rGUZdDu9ouVO5tax8VBNfpLreuJaW4UBbIMFEgJx8o61X1jUNBs9Q0mCA6FLbagrm6EswaWJuOBnHr1zWP460jwt4r8aNqdnaYNugA2oVVWBzhR2+tRHxgPHvi8W17odotrEqrj1AxkDkHnHWslBc2pqnCcdDrLrwvPOm7QSLRILkiKaLG2bH8aMO9VtQ8Qf2bZy6RrcAn1BT81wwy8g9S3/ANesvwbLKPF83/CN3s8FvICj2dxhI/MPZeTn8MUmh3K2vxLmsvipmWG6ZoobfyzggdPmHrVzabsiadnKzOW8KQWiz6jazajY28VyWmVCPnuV9Ae/6V1Pw3s3jvbqGdJIbRcCOWQcO5TqueetTeObGz1i/iOm6VBC9uxggaKIRllPdjzn9Kj8appHgy2sbKeNr+bU0BW5ExZbUDDYJDcHkjOO1YTkoamuqdkXNSvI9O0q7S+tJtQcsH2q2Sce1asuuJfWVu40aK3uLBQiykspcH1HT9azIZrnT9Z0eVbKC6srqHcQmXLj13cfyrprxo9K0i3l1ORpLTUSBFDt3bcd27gVz1dVzW3NeZK3c8q1bSNR8ReLo31Cf7Pa2M/nwt5TI3mN6k107axdWN21h4nSGayv3TdLKC7R+pBHQVta0mmXmrrJG1zY264aeMTGRjj+IbqpeJ9U2+GGntbE6hHPviQTjYxXsBt6H3qOV6M2U21qaEN2dM8ciHwNY29xn/Uyi6RVkb/a4+b61698Mli1PUL6PxUYtMv/AC8PF5waJvox4FfPnwi8JT6ldG21s2qJZZEUaLskUDtkE5+tel/DvxDb+EvG6R6lcfbILo+WLeaHfGx+pGa6FK+otXue9/CnxLFpOiHT3hjje1lZQ0cjMJUPTP0rdg02xfUJGjW8gW+bEYEgFup9MmuA0TUHtNca9gaC0hlbCxRLxj0r0PX9THjvwNI2nypItocmLaFbf7KBXh5zg6eKpPmWp4mdZesVS5ktUbDfDPxHYeH31TxXClrb2p220wf7QJl9OM4/GuJv9T/sXV5Y5FdpH+aPbxndnp1z0HPvXd/Af4/al4K01rGSwOq2Mi4ltpIvMLH6ZFZPi50vfitNJb6VFFpl8oEZiQgwsMcAduh/OvyLNsHToWUVqfk+KpOlLlaOR8HeP7vTvGfn3AmE0TKQ6n5gp7HGRW78W72C0iFs1wpOoSG4iCjKjOeuBweaj8a+GIdW8X6euhFY54FEbCZgglYf3tuKsaF4Zl1bWL/SvFcFsl0h3wyW8nmIT6KQTXkV1yQskeXUhJO/QPh/8R7O40a30HXbSzRrV8tc4PnMPTByv6Va0DSoNR8Y6hZeG7x1ki+ZbbbucfQA/wBa888d6Tc+E79hCzRT5y0hGf1ro/BDP4uuLSXSXjjuXGGli+Rm+pBH86zy3HTqx5ZLY6I1Lxsav2221rUL9/FdgY5YWLRFTlsDtgVz0HiU2erXGm3Et95NzHvMUKks/tVjSNTS8vru30Xy7adWIzMfmOfTv+BxXQ+GD/ZF+b3UmvUltmEKzvGNoY9s45+tdEKbumKVL2tlc8+1GdNVtWtrVZoYI8+ahRTIQOxx0/Gpfhbpt3JqMFnZEXazMZNiKrKuDnOCPTiujvPCuqeHfFN3daZdSWFrfZzOlp5sdzn/AJ6N2qG4+H+qeHHTU4UuRFCpMktnC/lFT6yEKqj6nPtVVMHKc+foKUJXUex6XY6Gj6Mu9Wt7lnZUm3jBb0C4+X8Saw/HButESx0LU7C1lujIJmu45w8wB7Fc8fnTfht4nt9X8E3+m2Sm7nErTF2fLoPUVyHi3UP7W8Q2/wDY5EWqWo35PJmVexJxWVetToRlFoq9rpnX6d4N0y58QrP4guTZWqcuiRqZCR0OM9vrV/wnCmm+LNSaOW8uIkwsbTnYdg74FYnjTWX0bwX9r02QnzRmWIIv88cVj/CnXZLbxUUu7h1tL2PKi4lEjxj0J/8ArV59LF+0wTowj71zl9pds6jxHrAvtQnluZJY4t3lqix7Y2H1zXO6p8O7Tw7ZF7yS4vf7Rk8xZlYmKIf3Rxx9a6bxH8PtQ1SAXd7rGj2mltdupSa42MgYZDYxnaPWuYi1+wFrcWst8mqWUjeWlxZO2G913YoqL2MoSZrUd4qzOH+Kvhmz1DTJRqN6k00ZxDDyWWvkr41W7WmoBblZEEf3oRX2DdeENQ1+8k0zw/Y6lqEqIZ2kijEkioO5Kk46jrjrXifxt8JiUymztSzKcMXGXNftnCmbqdFU2+x9NlOJ5EoyZ8veL/EdlZ6WVs4X2xjC55Zv0rmx4uVrOaBU8kS8HjDA+ma6f4jRf2PfxrewbfM+6Qhwv1z0ry7xI93Fr6/YoXeGbmRs5Ab1r79K65kfTKPNrfRnpMN1HDp0FvF5rCQZYs2Saztc1BNM0+eCxAjeQYHQn+dY934nGnabGzICw+XJOD9cVmeJr4XdraTQpCZZRkKCefxqZzb0NFTUNTtfAmnG2t4p1kdp7NVZWbgcDJYn3rg/Evi261XxRdXlrK6s5ILIcZx3wK9A06TTtI8IzrA92L+4QAlpfkbIxheOR71wA0LfrEkOkyo29Dnj5UJ9T2p0ptMFVUk00dp4d1+61TT4ioiZETDGVcua4/X9LvYfEOoXNzJBFbrHvOGAOPQCjTfEt9psot4FZLKFfmlKZMn+6e9ZPiaPVvEV/a3ejabNdtNJi4ijfkJ/u45rra5rMyhzwbe51vw/v75o82G6dZjmOLpkV1tzp1zZ+H4ptcgtbRvvSZfLL7YArQ8K2sp8LrJp9rHbkR7flUF1PsRXM6sk+i2qLr9y0s14+2OLZ87n05PH1xW9OnfqKa5tWtTn9X1uLTNat3ttl1M4DDPI2n6/yrpPhrqi6t49N5eNI0lsmSV5j3elZ2s6NdeL9Usriy0hbe0t2BBZwWJHcDAyPavQfh1ods8d1czRQ2EbLgJFEw3n1q44lc/JYx9tGOiWp0ureK473w9G0TF3V2Mnln5MHp+Vc/b+IraeCQIyKE6qe9alubJbTyY4GgK8SKehHrjFcZruq2vh7U7yC1hgvWMYfa3JXPYjtU11dnXSkupp2nhW11GOS4n22ySZ2shyTj05rLiXTrGW/nuFnCPtWN/NbcMd8ds1g2fjSG81Kzn1mVbefBjgts4UsfXmta88dz6pqP8AZ0FtbRswICsAWkx79v1rOFNPVm6nNtpPQd4mutSNtcXPhq/khk8rau9d0jHjk8+1a/gT4japZwrF4qmFxvKqpjAO0jqB6VlXPjqKLwvcR6Xpi/bFJjdo2y3Htis/4e67b+C4T/ammPcTK0jKtyMdejDmp5NXZnRFcis+p63ovja/kuSusW6C3kG1ZFQZA9CP61Y1K+tf+ErtZdPtLZ3eIiNVZvmI6scDivPfCfiBdT8ZWZ0tTeS3U21037UQ+m016tpOi6jZeML+/wDDqC9t4YMmJQh2hvvFST/Ss50ktUdMH7PZmp4J+HljqiW6TC3hdmM4d7gK5cHGFOePxrH1PV5PFvis2lqkgTSJswySzLtk29egPX61l3/gvxMby3mtru1g025mLsZMb5AX6E/4VF4TvtD8FztpUN2Y5hPsU7SzMzdslcH65rlfKmdeskrbnRfELxTPo2gWc1/pdxNL52JmtsOFP14A/Ok0vwzovxJ0RLuGaaG7ePE+VA8s4I+YYx3HT0rmPGPxWPh/4gjSPF+mqdI1MeSLyNz5i++3G38a7HV49B+GmkWK/D4W91YXTCSd5JWeWIHsozWVWCqaI1hzR33HeJtIuPDKWcNpdpLBGnlwyKfur9K6HSNbt/Eur6fc6rC813AphWeEfJgdQV6Ej1qE+K7LxvpE2oaVp0NqttGIT5sZEcDHu3HFcz8DPEWu6v8AFZ2sl06bw1avxKmRCrP3yRzn6VLjFQsbuNlzD/FFvc6v4sNtaRcTy+UH8nYVX6Z5rovC3hedtH1DRNUX7Rd2XmXMUvIBUdRWvf6tZ3/iG6+yNC2o2xwYiCCp9c1Q1WfVdE8NzSzmSyj2sWlfq+7qFP8AFXOouK1KjVcrHnHwx1G71Xxbd6n4ftrqF7VpEcnopD7eR+tekeGNak/4S2G7ubO3v7y3YyNbs5AfHdfWuff4paF4Tl0zR/BVrJcv5MhmKxEM0p/vlsZ+tcr4Liv9d8fSahf30dncwZ+QSEYU9No96mMtbM2kvbL0PppvEGka+sF7aXM1nFESZY1ypix/P9K774f/ABMstHvUTTELfauUmkXKE+pzXi/hWyS40KV7zVIL9CCkptW8x4892GARXY+A9R0qdxpur6quFG5I5F52+vsfateSM3Yy5OZOLPULbV7rwZ45j1i0UzpdNnylTGD6Yzj8a7DUfEtr4su3e4dbK8zuKAYKH6dPyNcVrPia3TwUkXhia2uIIn2ysc/Iv5Z/Wq/iHwE8mkWi6hr+j2LT24uLVYtQjdoM9mwc5+ma/MuKMsndygj8tz/Cyp1X2Nyb4U3Eniaz13RJUuLyw/eXFpMT/pUWM/LzgN7c1r6D8S/CHxKtXvNPa80vW9LlEQs3iWJlY9mAxx71t2Yv7rwtot5oRtZLm0Tybx3YJE3GN4z0/WuP13wRpmuazHrllb+RqRfbJLA2Fn29z/eNfn+JhWpuzR823yxs0dD8TvhjZ+JbaS21o7BfQ5jmi+YKfrXi2keF9X+HXjuDSL2xZ9PmlHkyr159wa938CatI961nqmyRk+ZElJA+nIrR+K1pol0+mXUsdrHd2pDsqkgDFc2Hha8dmZwjKN2zz3U721ilfStMla302wXejmJC3neisRvT8DVGw+HPiLxQrPMm3T2AfzZnZYZMegz+tM8Q6eL7VVutbIjPmEtNs3737dCBzXUfCf4h23h7TLsa9ax6gDH5UaS3JESH1WM8n8M19NhsLzuMpPQpxStMw7D4maX8PNQii8Kadcy2jjy57R2R0nbOPkyOOOe9afgXVbTXrvVI7B9YsLW9XdJpEupeUk8v97y1ADH6YFZGjazb2fjW1trKG3/ALMjk3uby2Jj3YxiNsc+vWj9pDwZql14ia/0WxayhWMGNrdAqKxJAw34A/jV4yq8Km4LQ3cedcyZp/DTw7a/DXx9Nc31qstpqERieJoyWhz7Dr+lch4+8NLpfiSeXSt11cBt6FmwQW/vY6CsrwlrGr+FdXsbrxBI0shbbKWmLkfrivT/ABZ4ZsviHpY8RaDJb2V3FGA7w7minI9QBXzGIX1xbWPPnLmbTMDw5M1/4fNvqcBa5HzTJ1z7e1QeAEgPjdRZLaWWmMpEiywh7oyDpiQ4Az6Yq1pVxBZTy3E8kv2kDDsBsVvz5FUdG8Nzz622p6c/+gRFZGhlUAOR6c85riweEqU6rtqTTgo3v1NH4reHbuTwhe3Hh6CO5mKszlkG8IBggNuxj8K5jwro11qugWXIgtGXzC8aAyKfRRXcj/iqtfvrO5ubO1hdABE2Ywq/xYbJ3Z+grP0v4nXXg/VYbHUHMEOmL+4WOFVZh78HNdTwUVVXtpWXRClTs0QeHvC0Xie1vJ9WEavYwvH5xumhlJ5xuXPzfdHBJ6VwmvfDGw8RxNd6pKRDp42mID5p09N2ePrg13era9c3QSfTRHLLeSo0qLEuWXnP8/0rm/ibNd6fYl/7Mntxdjy4w0RjMh9gf619XkmP+qy1Xuo6aVSVJ6HzF+1po2leJkUfD3w1aaDFarhQjtM0g9WLV8wwWKXBu7S9WJWjl4I4O32/wr7q8WaJJ4htHiuLXdczj5yq4VB6V8yfEPwBZeGNVa20GyknuYJPMaQjjd6d6/Z8mzOGPo3R9hl+MThZvU8Z1XwibeKee9yVRcgOeo9favNrTx6Nb8ZxWd9KkFrt8tdqZ/HtX0N4z8FTWPgqeW7aVr3UG8uKBuMp657flXkuq/A+00LSX1fWpMSwH5IoG3Fz6buP5V6Epcstj34zhKOpofE7VIlmt10Ni8UCKjmQ7ht9VHGDXMza1epeZ0MAkt0Vc7/94ZrgdZ1XW9V1lTbwyLDJgRREHkDsTTk8Z3+l3iWcEfkyM3zEht354reKjLUiVO6VmeyQWE4tUOpIoUrwOy/QCtPStPMMCuskyheFZD8303f/AFq4vw5Z3c95B5t+YpHX5Yt2TXr0VmsT29rqEDW1qIsggAlm9a0c46KxjKFxNCv77wWlrqNuV8iWPcI+zt75ziuK8c2d14z8T22oNIsc8TYXzWwAv0ra8Q6kJHWzWV3VjheeE/Cse10ufWfEOmaPjKysWeVzjbGOpZu30rSVVUldHPWl7KOhvt4osfAPhu1a5f7bqOoSCGOJMt5RPf2rZsvFF1e63aR2ElxAsgBZnyFTPqK5vxdpy33iqyhgu7aJIWC24hXLO47k966jWIdVhmeGFolgiiDSsTlmI7DinS0/ePqc9C6fM+pPc3V0kc80Ny8sxPJzwR6Vk67eutubu1soVUKNxVN0j47NWTCuoLfA6hKIrdx+7VT91vTPeuj8Ia+ugzOkDxXrD5pQwzn2z2q+dTd2eipXepxmiz2GpJNeDTI5ryFiUEqYAI7rzWv4G+E+kXfjr+0fFF8WmljLxRxkkxkjOBg8+nakvtQuIfO/4Q7S5G+1ORsaMluf7vHFY+n6le6jcQx2l1Dp11prByU+8ckHbz9SM+1RzKzuzaN07pnU6Lps/hPVL200C2DJFKZZZJx8wU/WpNa8RWvxEtpbHUrxobm0KlDGi5ZR/tY71qX12/iaNLa4mWHfFiSQPhnHpmuN0aS20DxTc6bpHlyTRpuYt8xK/WhxSjdMt1m1qSaBZQ+F7q5lWEvEg8xJATmNvUN3rvvh74yuPFmntJJqcVjJEHAlUfK6ds4ArzvxDrpvdIuJXkdpIlAeKKLCxA92OeT7Vt/Cu4kuNFSz1WZbPTvl3yR43bR7Y5z9aw9pbQ6qLtDmZ6n4Y+L+i+KrDTrW/vY5m0xmjkMY8sSEDAIB7HrWzcXOieKoxbWcECXkZEsdwJDuAHqMYz+FeealYaRf+Ipf+EYs4prUSpDb3kqYkZe7FRx+tS6V43g8OeI9T0hPsuoW03/LaD70Le5rC0ZysdScWk0el+MNDsvFGn21hefY/MKon2o9YgP6n61zHj5bHwdplr9nsZpjbnZKUH3wvf2zVnRxZ+H9Ph+w3T3l44yTLkxj8+taPii9svGd6beG3+zeVAqyLgkyMOpHGOfrSlBQNoVNbjvCfxd8N6po19YaXBerqepbUmgBPkTewPf61Nr1hY+EvBcjaTpd0XhmEgVSwwo6ZAPOKyP+ELj8K2EepWCwWuNqwox+dW9R6V12u+Kn/wCEV0yw0qLz7u9bLHG593q3p9KwnTUldI6JVHJDPDV3psMKXHhye6vtQugr3Fu68jPUc+n1rrfGFhc+K7nTort3+yxIDtK70GewGRzWLHfJpHh8xXqLb36KyOmADk9Ae4xWL4ev9U8W3mdSnGnabp0iGWWKcAs/07D2yaPZ80QTTVl0NDULqbwhPNZjT7UTX8JH2mSMMRn3OcVh+EfBE174pu7W9lj+2QrmCfI2sB0BPtXSfFDXLWzuLfRfD4udWlnAZpUj3fKemDn8/Ss3U/D8/wAP9Hh1fzgsV9HtMUiNvQ/l+tcjSUjqg+ZK7Ol+DXiC38MePhBYNGLieQC7laPHX17Guu1bw6LHx3b6np8vnKsgaUAj5gTjA46V5TZ6v8trqE1nLbed68M233xXp3i0yaho0GoaWjJbykKJYTlY8N1b/CtoRUmmFXmik4M9m0OaTxBLc6XYwfY4JIckED5zjPpx6Vk6fpM1zcw6fq32P9ywGxgMTEdsgBgPoRXO/DPX2tYrfzJZbiQDEjtkd8/j6V6JFL4a8Qaha2l2bqxv3kAhuIzhQx9c/wBcV8rxVSqKhzUj4/ifDtx51uZ2ufEW6sL63gu7aCGKN/s9zDaMdgX6NnNLp7XPhLxqW0iRptLuyXjhck+Vnstdx/wrJ7Rr/SfiRYCeK4g32d9Bgq7+pZSa8v0HxongX4l/2R4jV5oYQBBI3Vc/zr8oxOInBqUz4SUFFpM9wurOO+0WC7sJbm51KeTCyMoCD8c/0rn/AB/Ek9gk0zgyqvlyqGyfrWUmozanLem1D+SJFmtpd5+UEZPA9K0IfF9nNpy22viO7VhgzQpgr/jXmV68KtVculjLFW5uWCOW8S+Gtd0bwxE90loLMzSL5rXURwRjazLu3DqeMdqztB8catZaXNaad9i1WK7mBkMsCyMAf7rcFfwIq344vbiOO70+6vI5oIXzGSuXfrnLZyeo/KuO07w/alEvrbUXu1SMPNGm5fII7MAK+mqVPejBaI8+Tc0k9jrNR8YTpqsQuYgLO1cP9lG4hCRniPHrx96uk+NXjnX/ABLc6e+lxXckklsubeJDDEVAAHykHkYJ/GmWcGneJtB0uLwvZRafcblkuTLIW81M5zuPA9MZqb4kagusXXlwIjSxgW1vLlVEeDjnjmun6tKSvfQ2jUVONkcKnisaj4UtrSbzPMNzhoxCpTPozdV+uDXS+HZ7jSNRsYiZVtJ2GPLViGzjqFxgcnnHauF8S2s3w/gWOKKwnmjlxLqUTl2f2Bxhvriux0rUJdT0vTtZ0uQ2bwx+RLLasSUC7ucE9eleHiMLGNVXe5ju7m9rkVvY6zdXWqAQl4yAT98EezZrM8H+JZovBt8ddmnlsZDsDMFkKe4ZRxXJ+KPF9z4oSZdRea5dCTvfqQfX0ra0Tx2NE8HrDHZw48zMyScJJ9MYxWFNqnOUL/MXMSawEv8AVrFLctHFGnmowbBkP1bGatfZZdWvZr/WtOmltEXyoX3YLN7HBz+Vcv4t8TXb27vdRWkKSjeqxHcYkzjCk1L4U8QTNoxtredo7Y/OXZm37v8AYYnH6VjSw3tqtr38wcrm15sVvHLHNdwWlzGplwXKlM9CDjnHpUKNF4onhutSuL6aSxby5VW8RzK394ozZ2+4FeZ/E3xnNc6i11o93biSM+Qyzck/h6Vb8B+LdQu557jxDfeRdNtSJSAvnZ6gEc4Hua6nivqsvYJXv1CUrNM0fGKtpl3eyW0gee8YRKjfMqk/SuYvvg1BbvLK0G5RkyNHzvI75rpdVWWwiupddhmt/nWb97gYH976Vu6HqEX/AArWGOe4bzpkLwnPL56D8cj9fSvZyvOquEqqnH4TppV5RldM+YPiD8MBfTS3MAASIbVDnt7eleG+OPAmpSF/N2PBDykZHf1zX2H4y0+RYAdQQxrcDdEWHEo9q4zxJ8PbG+0rzLeDfvGcA5r9XwmZRqxV5as+lwmPt7snufDnijTbnT9OmMggN4fuMg+WOvMW0Wc+IXuZCQ6fMeox7dTX0/8AFnwHc3GsTw3FqtuGG5Q8fy49a89tvh3Z6NeC31IOJp8NuAI69sGu6hXvNqTPpKChKOjG/CnRjrttLLqyQpOVxG2Mkn0z2rqdcivLHSYJLmPzBEPLJyWwav6JYRaaMQWyrF0jA659am1IT32k/Z2ZVdzuIPHPrXrRqKzOVSstEef6xf8A9m2ryX6ukzN+77kfhW38JrWa/v5Lq/lF1GDtgjQfMxbqD61F4s8F3+v2kVtZhTIGH71jggntXdeF/BNx4btNNh0aa3MsAD3N1If4x22gf1rkclXmoRMMS4zSTZyniTwZc2nxH05LyFrYQZmJBxjHf/61d34k8RxJpcVqVfdOeGC5OfQtWlqngyb+zLm/uHc3BUsjMOhPvzx7VlxRrcaXBIwEko5YkfLu+leosRFT9gvskU3Fq19jB8S2TXmleWPJWeE7gE55qCTRF8J2FtNDMlw90cuittf8q0763uIWkuYWikLHAReDXLahr97c68ZriC3lVBmMsf8A61LmvG5vGUr2iaer6zqNpqFveeGLdjZwn5oxI28D1z3/ACrvPhVodhr1pruna/ZWMp1u2W4WZo/MlhxnoV+6eR+VcP4J1C+vLKS9Zo4prTllK5Uj0r1D9j7+ypfilcX/AIqkeOO1tmO1G2JKzdioHauHHySo8ydma1Zezjdqx5F4jsho+uPY2z7ltELgbucA45NcYfFtjceMVktY7eKc4hkZZOXz26V6j8dfBlpYeN7yPT/9EuGlI3Rj7yE5x1rxub4WyXWuw3ErtH9nlEvAxuI96MFiVKlFm9BKvFNnqPi7wJb6TqFmvh9bi5spkWe42NgoeOF656n8qsW1xodpdpHoSalL9jB81DESnAzjPce9djpPhW48QfBCz8ReHbdoDb7LZoJOJJTzzj8Rx7V554qtde0rwle3VjbmC7YeSCJiBGGGBkfxH8qSrU51JJM3jPlfJfQ7DT9cgtLWOXVLS8s9Nuwy7reIs0Tnpk9sVq+HPB+nazpaf2ZYw2FzMzhmHWQr0Zvr6Vwfw8vruD4bSaHr6vc3xmSUTLIxVgwySfXFbmneDdc1DSb5/D+qLp8kMR2l9wyR1+maqMY81zd3+wbWt+KdI+H2mmLV4Gvr5EzG+WJWT1yCQR7Vt+H/AIjav4v8JK9hpFpBeW0flxoiMPMP9485/CuB8M+J08IeEri08VWpaeVPKiuyu8CT8fqPzrc8P6brekX8dxb6hLbM2AyIMB891zWujOmLTjfqXfHPiPWfHmhpH4zvU064togJxbxBCoH4103wJ8ZWV/4cnlW4eC50ubak/mKzXC/3sH+Wa5/xZeab/bTfaTDK19BslTceGqPStc8Mav4Le08Hh1uLZzCEVNrhh1BOOfyqJzWyRpTndHf+KfEGk67e28mo3bM6jcwjbMjH1b1rF1oWV1puoHSbVZY2AnmEeRnHoM81geGNItLazubXWYpobhkzGGq/p3jCDwc0MpFvJGigFJucsTjn1+lcs/eVkb0pRUtTufBfiY3fheyum3wSwu0IynzoP4sn0P6V0ltBe+LzdTPZXWp6fp6+V877SB7Dnms/wPqMX9g3l3fC2UtAXlWQ7QQf7vv71Q8E+NbyVyiTNZG7bJXfgEepFYNK1nudc3FrQz4fEC3MU2k6uZ7ZckQs672iz+Wa9G8B6TdaP4Ou9O1e5k8hSWhn25LSA5yRnB+leZ67qqr4mUSWEsg88RGY4xk/jXtWg6/5OjNaXMcU0OTtYHIBPfNTdxVilJKKOg+H91cW+i28Fw1oxQ48wL1roPFeqDwx4ztrnS4be/eECYM0ReKVh/fXIz+lee+CvEj6X4kWyURSxk52HjH4966/xzYv4sR7TR7iS2kdfmmifEi/jivEzpP2Duz5/iJ89C57Taa/NLp41jRbuytmvIwZbS3yIowRn5AScV4B4/8ABqeIfiVBeXsrw2sEgMzhjtAHv1/Sur+Cd/P4ZhfQvFU09wkaho5tmMR4wOec5qfxTqOnSeONQltFkudItQqs8/EjMe3TtX4ti6cq9R3PzCetmanh7UINYtFuvDV4Vmgyr2rD/XKU42jPauV8O/ElvB3xNk03X4ZLoTpvjiYhV46gcdRTLp9O+Hfj+HUfA5ae2mhEMlvKGDRsRjKHBz+QrU1v4Wp4+hs9cicQ3enz+ZvUZY56gjPQ15+LwvNKMqUrW3JrVNVK2pZ1PSNKf4hqnjUXFjcRfKERjGv1YEcVmeLdA/4ReDUI7DT9UstP1Bsw3TIUE6+oyQT+lYrTT3dn/aUzpcXEZLSMztJIgHeTOazv7Sk1Np5obsXF5JFsMCuI0UewHA/AV9jRTxEXKUfQ5ptPY3vDupReG9Hnn0vV4UubCISx/bCzecwx8gQDb3P5Vo33jQfEXwg1z4mexj1KaZWRbTgMSck4B+XFcv4NW10XVzYa5Y20c8Y/eW77FD9eW3DnqO46VYl1K1043qeFEaAu7lWdFYD0xxW0VP2TUmYXUtGipr4kmtUgW5urpJnCFARsjcnGRXYat8MdX+GvhC1bUriD7LdAy7EbfuU55yDtB56Zrzpdanv2hh1I7nSUIyiBvnwc4BH869g0PxM3ivwhPa3VrNLptp/yzb+AYyxIbAUDpjFeNCm4ybmrmkYJPcwha+GdD0x7+GHVtRjEP+mQsDCJG9El+ZTXF3fiqHxNps0WhWtzZRNKUiS4k3AEf7WBn8q1/HN9PD4ZLQ6vPLYSNkWsfEaj1HGKw7sJoVvb6ZJfWF5uQXaLDcpJJ83UNyNrD0ya3xMlWpe4rW3Iaim0zX0u3kgt0tvEVoZ5Fj2q8YYxoM5wXxg1Xk1CayiGnxTYgZ889VXGcj0+lYWmePI4/GIht769hDR5ljjkPln/AIDjA/Kqq+M7LQfivJNr0c9zYXUQeCLzth3kY/umuWh7PktF6mTfLcwtdt7TVfHs++7WF4ULO8qMUiUf3gB1rorrxbpFxpFnbeHjFIbfcJp/LIM5JxknnGPasPxJNq2jaxd3emT/AGLTb2PYixFWeXd2YsK5/wAIWVw94kWk6d50YOVcMdnXPPNNxumoq7LivaRuz0U3wvp/J1+cGG6wyu0hcjH8OP7vtVnVpYPCtjE1jdgXBhxlpgyJjphcfLjJ7nt6VyvjDRbmwkt7gSxIbYbm4LY/2cDNcr47ukuNFaHQIpLm7us7ycKFA/HIPtisKVSUqbclrE2pxTjo9jpfFniiXUvDSSC+EgiP7vc247fRePl/Wo/DOtR6Rawm4WF4r0YAJziqNtpi2fgS1j1hfKvREPOQ4OCf8KzLzyp9EiUz7mtegRsba2wOZ1qPLPzNIYlbdQfS9P8AGvjfUft5V3OEw4yqg9gK80/a98LWnhfVoLjT/Ji+yQh5CAFyR2r074ex2F5dmLUPMOoTTIUbzMcd88VV+Mfwq1H4sC/u/DVnpF7Z2bFJVkl/fKR22d/zr7DCZ/OtiYxex72X4+SqJNngfgRZ/FegpfW4lCKMLlT83OMjIHHerSaFO9t9puACFOPu5Jrp/H3iK+8C+G9N8JQaVpoVX+1XN0sbeehxjYGzwvfFUPDRPi3Xrewsg0XmyqpMZwoB6H3r9Iw2J+sUuY+jjVTpSk0dOPhcll8ONLmu9/2m+f7TKMfMFXoPxrqvgb8OvD/jjxMmn+IJ59PhlbYcLxv+vp711mq6DD4g1WG0gZ2tbOJbcLGOcj37Zru/BvwyEEcL6Fa2kBhPVozub/69ejl2Aq1qU6sd+h4NaqmnLqeZ/Ff4ZX/g3VLrS7uyFpYwj924bIkHqDivLtN0+zsvENva+JgZLJ5MssLjOPrivsnxiF+JXhFdE1iJVvrQ4WQcM6/jXzxr37PN54Y3a7dwQCyVzDkNu2kd6+aw2b8uIqU6vxpM4qGKjOXvOzPmH4k/FSwsPEN/p2nGYQrcGGN3GDtBIxk49OtQaZqemavpAAud0ajG8HlfXNafw0/Z3g+PHxm1vQ/E+oSaVJJ5klo6DO8hmw3zHjPFed/Bn4aX+l/GrxL4Q8SBl8ozQxnJKu3bHpXqLPKSpqL3sfRKcIRspe8j1Hw94otGtPIWZDAi5cqoLOM4ziu7s9Nh8K/D+712yl2LDKqq3QMf7ue9fPPhbRZvDniC5052cXNrI0JV2+cAP3HvX1O/wvuPEP7PUUEERmvYXW48pTxIPcVx5tmFL6vT/vMxxNW1NNvcx/iHp6ahquh674etTPLqUG+YSjepP0rzTxTdy6fcSSXcEn2YHb8iZ59M17Ba+HNV1v4Qy2q2bQa3pkuFhVDvRPTFcXHo19Jpctv4itHMxn8tYlbLF/XpXZlVei4OKlojow9VKyvoke2/s6Jo2v8AwnsvDWqM1u2vszxSMAskTEZBUk14h+0t8Lb/AMH2d14Y1m4c+RcAzTOSrMB93B7iu/8AEPwt/sjxDokthfy202kxxyOglyoUDBOPevXP2rtIsf2gP2dtC8VaE6tc27fZruVEBaUDOPTOMD868GtivquJUvsswpYtU6qk9Ys+Zfh9o9v4I0GK8tDIY05LzLuRhjGAT19c15/rnxB1W28SzQ+HZY3tb2U8q5xg/WvVPH1rP4o+DmixWdxIYtIm+yuSwTeuCmCO/IB6968v8PfDQ6LHe3/jGeObT3kzaHO3H4g5/SvpcJiViIntYaupSaZ6D8PdEg1W1vU1x2nmUALA/CAHuMj2H5VZ+Juq3d/oEEtrcxae6DyC+BgKv93pg1S0Xxj4ftII7vTLC41G7EIQoNxAx3Jz/Sq1josnjHW8eIdsunykvbqH4yexGK7Wju5k3Z7B4eNv4E1S11LUgNae+2ssUg3Nz39sV28mo6F4X1b7Z4dtMT3JNw0KxAsGPU++a5a80yPw08hsUFz9myEimOEQHsD7UsA1vWdHnv8AT7SCK5thmNfMzHsHXt2pSZquaTVti14e8cweINVn+0xr538EcoKuB9O9Y2qaja/8JJLBrgJkYBssflUg5zgVY8PeEbnxI8Gq620yXCQ/djYBFb0xjmobjT0tLmUA2jTMNod+CG9MHNc9SXK00bU3Hm1O3sNQ+y+CRd6/IpCLsiHJDrnHJqfwtqEPiB3vTcwRMq/IHONi1x2r/EQ6l4ahtd8ebZNrGNQ0Y5znHepPB3iuzvPhxJaRMv20SbeUBbb6ZzWEpKbvY15ve02O+nu7+0tw2qEHT4m81v3Y3Oy9MH3rd+HviR/EdveXVmJY0gY5t24Zceg715r4X8eTeUbLVFZhAV8rzR1I6gj3rsfh/ro03XDcpi1EgI4T75P41MZuV7G3Ppc9e8AaMfEssGveWs9lC2w+UcNu9DXp/h7SNP0bxRFJqh88XPyOrt/qj71558O/GT+GvBFvpksUYiu7jzgotyXA98GvT9L8PSyi31PS5I54yd0kU0RSRD1JYHrxzxXyueYi9No+bz2pKVBmpqHgi28T61b6hplzeWNzpf34WU+XcRDpg+30NZPiDW4r2WyTQI7SRFkZrqCQATNnuB3x6VveI7m08Jy2F7PIkl/IuIRDO2wD+4U7/XP4VR1nwvpup6rC8a2+mw3kubmWUMFtW9ioJx+Vfl2I9pKV6bPzh1WolJda0WK5k0PW7OH7TJtlimMwEiH/AGcnNW7DWLe1JgtpAbdxhircn/CuL8foD4pa8e7h1KKzcBLwSOrso7hu/wCVUb2+huZPtWnakoDMFdWizHz/ALWRj8q+Wkq8ari1oZuTkkcLa+JU8O6lqsI1toLh42ludqEIY/fI/lTdP8Q2njLw493ZvZ2F7bN5bBThph6qOK3vhN4BvdRvfFOn6zpEWofaEK77hubfPdCOQOR+vpXnM/w1bwxrF1YeJ1RNMZvLF1FIN0JPQrzk5r63DV6nL7j0OeEFUV1I6bwf4dk1nxLOtxcQvLLAwVbiQtvx0Iznr9a6CDQ9X8G6dFc3hjt7WUsxJk3sB7jFXvg9aWng/WrSbXbuz1aCDAtvLXe7KOoJz3rD+J2ueIbH4ly3QZbK2vpSI/LG6CNScYwav97B3bNFTunc63wV4+0qTR7X+zl8m7kk23cr52uPc/1Fa2vfEqLRvF0SWtulro1xaGGbyW83z95yXcHp6Y5+tcroUVh4k1260nUrW4hudPg8+W5tCn2eb2ABPP4mqfxc0Qz+Fba98MIJNp/dtbktHIq9mYf4Vo8WoRtI5lFKVmdhregXXhyf/iSf2hqOgvHmBBsCIPRhkn9aydS+D9xY63FrU4ayt5YgfJZvlkz0Y98irHwC8dW895Bo/iuYQ3indApG6KZf7p4/U4rW/aQvtTXTYb/RVnmsrBgk0IUuyAdvlzx714uOxDlBqCLqUrJ8p514o8Pw+FdeA06eWc3S7mkRc59vauA8cGfVrawkHmJPHdhGbb84UV6x4B8UWPxJWTS5LhdNveCHkXO1T37Vm3Xwtn8YeL9S0rQjI0ungz3BY+WXAGcoWwDWuCrL2SUlqEaXNGz3OU8c63FplpDiETsEV08zJ/4Ftrn/AAN8UNe8ORm3sb0SG4bdCksK5HtjFafjfUI7MJtcvAkQiAYgsuPU1a8H6Np2peEtQv7nzI7m05VyNzquM5FevhasaLUy6cYwi1JG94Wu9S1a3v7LxYS95cMLiIsoQMT9K4DwdqTL4uC+PDJPp2nTsyQQII3kPP3nwSRwPzrv7PxCq6RDdXH7+ayIV5AvO0HGKqeM/hneeK9SjuNAVVge2kkkJHO8YwM8dcH868Wrmn1fESk17pxKbU7JaHmmu/GK18d6trcPhmIRm2ndIxKTxzgdulWfC+r290lpZ620NtPJjzHJ+Uk9qxfAnwV1TwbrwuNetnij1OV4pZJZUI659RzWr8QPh1feFPFM+yKffZFbqGRYyWaP9aqnVjWnzx+E6cPh37Xm6G/4M+Gd3pnjPUr9LqB9P02NwMnLZ5xj8h+ddJ+z54ZtPEfii/uoGmu2YtLOoYn8Tiuy8WeFofht8Po7+xWKa5v7GNyokDqzlAp5PU5BOPenfse/DDVvB3h+41fWVitTqzEYZhuZT2C5z+ld+U1FKrKo+h62FUIPnkz5o/aZ1VZ/FtxJCLeFZJHUmdwHO04AwPX61h/s96HPd69qOrtcxC20y3YxgDIDfw/lX0z+3T4G0fSPCGnHw5bStf6jdFkuWm/ccfMwxjcR2zivKLX4War4N+E8EUJtba71h2nmCn+AdBx61+q4XMoSwaUNz6qpiqcsKoxLfwl+JOpw+KBHdrbziSTzLlnfG0+wxzX2J4ONn4g8KtcXVykM0f3IyQEH1Uf418R+C9dg8N3Mf22BEvS21yyblP4jNeveGNbm8NQ389zd3C2zLiEIu5W98k8V7WV8XfUqXs+XY8HEqMLWPQPifpwsPEdtc6bc7ZoTliDgFawfjPYS2fwpu00qQSxTxNKSwIG7Gcj2961vC1x/wnvwfez17ypbuA74pY+JpE9CO351peIPE7a18GY9Buo4JlihO07NsmSMbSeePaviM/x1P63HF0tFK/6Hj1GuaMulz5Q+GGkSeHb608SRwLcT20uydlIJ2ZB6gcdD+demeJP2Z9E8Q/EmTxrpkJiW7h8yN42ACy98+tV7NdN8PvDYCKCxs9VtdjGM8s/P8J6dPWu++Gc0v/CBS2etwybZGIteMLwcZzXk5vjnGCnRPUxda/7yPY+A/wBqLw/c/D/4/wCoX+gWySJqCRyLhTlGxhifYYJ/L1r6U+CPjHzdRTw3dXnlzz2avEhb5y3HTAOep/Kuv8dfs56Z8Vta0y5kg1H7TbXO+SS1wQB3DA/eXgccfrVjQ/2OrPw38VZfEthq0t9IYNiw3H7lISueFCk+o/KufFZysXhY0Jys9wq46nXw6U3aSPW/Cfw4j/sotdBze38XlSSqAWLeua8R0P4QfY/GepR6vIkFwt8RAs74dkHpXvp+2r4HSPSzGL3/AJZsSVXd7Hn+VcFZ6cni7XAdXtXstV0uV4neRs72/vZ7/lXiZVxDWwTlByb1OGnmNWKaex4z8Urs6hqevJp5K39vss4yehyAc/mcV6z+yN4AvY/hZqPgHxi2++vYWu4MMCqEYxtHvg/nXEfGf4dnW4Jn09mjvbO4jeQxsR57Ag4Bx14xivQvA9nd2fxS0TVdJuYoriC3RJLEtiZ1/wBkd6+qrZt9ZoKUdz0I4hTpJR3PCL3wBd6j8P8AxNZ3lg8r6BMZJTboWGQVJJA6d68hj8M28c5ltQ0gByombcF9tucV9v8AxL04fCz4w6m1jeT/ANm+K4i1ykqhUJOdwAXGeo/KvlH4v/D2TwXqWo3WkWMhhkbejE9V+navtMjx0MVBO/Y97LcUqk/N2OctQ/hzUZZ4HgQXcW10KbVb3XmqFn4mnSwMAvFtrpJtyAjAVfr2rNuPEMHifTLSazkkmn4geDym3IT/ABA44Feg+F/CR03Q7SfxraJLKGD2wKglie8h9PavoamIVH3Vq2e1LEKMuWResfAOqat4fim1e7Rkuzjzdpx+JqHxh4T1Lw5o8qaPMwiJ2DBwrKep/GneMPGd8PD0VrczwtbPJjbbuR5f1HauTfxRrGosLCyv5J7GMl48jcQo7Z61tTbcbyZ2U6z5dDUt7m5nY2aytH5SZVlPy5+tc+LJVhkub+RXliPmDnIc/wBKvassty9pBYvmb/lrDF98fh/9eu18MfDZ/Hnhia18G6Wbm4sIjcXWEP7tB6k4yfYVnK8tkTHEQTbmeU21+xuJIo7RYYAcc/Kv196it1uNI1eUaUsQJGRg5zU/jPVrfXr620+yRVGHAZcjleucCnaDcWunXG+5HmEHZuDA4Pr9P19q5G+W92dFOpKpstDa1vWDp1klzPNbSSKNzgdVP9a90+Cms+H/AImeA4LHRke18QWb798hwJ045GenU8c9K+fg1rr3iwrfNElshBLHCoufXNetfBjw9ZeHviLDq9tcQS6fpYzlXwrHngDv1HBx0rhxEowg5qXyHjJKFFyejR9H/BXxjaWvxJj0WZbcKlvs3MBlW/Hv7V6XrfijxPpOtTpr13HPDYmTy96KWMR4GMYxxxk5r5+8Y6NI3jPT9a8JRx2ovbiNmdgfkYdScZGDX0H8X/Cs2u+FLLUdSk23j2iRym3bKv6kEdR71+bZ1mSorSXxHw2ZY1uml3ucl4e8U2vjPV0vtU8qweI4tpGUshb36YrH8WeOLm08XTyXdzNJNduLcCEkRz56bQDgGrmq+DjYWNqdHmuJYJosyxOADHL6Ac/nTvBGhRePbVbGXdHcW8u4ymBwbfb0Zcjn6Zr5ejGWIkuR6s8DRqz2ZSt7+5isriHWbeG9R22sGUiSNfUY6fiKypNaXQ7aa00pLWWycrJ5Tp90Dr83/wBavUdU0O3tLK41Ozv7PVWaHbLNbkCOTjZukHJB/ixj/GvmbSoNOTxndMdXutU1IyufKiJWEK3RQOc4ror0HBcrXvdzl9k1K0TvPCWpnU9bvrnS7+ayup18h5kkOGX6/ie3p6Vg646ePZGsdfla2vNOfZO7RBi6DowxjpXW/DDWfDOtS3DhxZ3WcW8ysNsnvin+OvDeoT+L7e70OS2tba2X98oTPnr6lv8A6xrylL6s+W+iMIrWyPPPA2hxeB/F7W3h+4uLhLdQ/nzk7MHvjt+ddjY6Bf8AxB1WbTLF1up4VNwEMgAZQc8Z5ru/g34Eh8UrdXWlNbXNpdkW6Kdp2kHBBJIq78ULyw+C3ie3n0zQEjureU2hvzKjl0P+4xFe7SmpUuc7qaWzPny++II0fW2gtrFPt2nzYczL5sbH3U9R+NdVF44vdI8H2j+GJVjjjk2PHgJEA3fac1jftiW+n+H2tfFHgy03Q6sAszRsCsUpOOfWux+AeiR+Nfh6YPE1mmbiESxyNEVDAZ5GcelePmFa8YyRwzpptTeyN61t2sdGtNf1SHTo727OyJrWVSGHq6Hp+ddl4a8XxprkEd68t7o9zCEuoZcRK4PfAzzXm0dr/bmrzLpvktZ2Y2Qo2AHPrjHNbUFxaC+s2v47eN4cB44clgB3x0NY4fFKpV5HsHM53cdjR8Z+ANJ8CfE6HVvCkC5vlDfZUTdlR2Bz/SvWvD2veGfiz4Fub4aeIGhU2t6ikJLHkY6Hn9a8qtdAXVfFP9safqf2V7I7LYZzj/ZIzj9a77wFpseiw6hfQWUc5uSHu/LHDZ/iArt5Y1YuzszohHms+p86fHD9kWTUEhn+H+qpOttMH2MxRpAexBOG/Orf7N/w3vtNv7qDxtbkRzRlXik/1DADGK9P8ZalbaF46uLSS4ebQdTiDqGXIhlH90jpUOpeIxpdsIZJYp42ywKnqprnnOUY8snqdEqel5HNax4Cs7yW9is5INPtZMtm3G7Zg5x2zXRQ+H/7E+H0BsZpbwS25EMkq7ckeo96wl1qzvZJotMWSFGY797dM/hW/bav5+lRWcEgeO1QkoT0Bry68nWpyg47nPzKbtY4+w0NtW0wnxRY/b2tGLks7eWrE4zwat6z8N7hWt9e0+Kaee7URmPeTsA7bcnNbXiWyFp4LFqlw9k2sJvj+z4ORnPQmpdMtptB0K0kW8VBG38DEv8A98125dSeEpcs+p01kqLtEtfE/Tk8SWmkaVqNvLNbRL/q4YVGX7fMO3tXSXGq6hp/h5NJaytYLeyt8wqYgZFP+/wa6CLxTZWkFiiWgM6RhgcfMSe+K57xNqepX3jby5NNkS3eAN57jCHPas/rM8LTlKL3OSdFU48zZ4l8fvh3d+Pl8MWw1BFaxB8uJ2wShOXOevHSvN7r7Z4g+Kv/AAjCpeo6RpawiL5lUd3ye1eq/tL+ELgeItK1Z55YZNMgkjEUZ+aUnPCjv0H513HwosGi0HTLrxPHZSXKwrJJOYlWYEdifT2r0ctzutTp3b0No4t06a10PFtY/ZPv/DWs3NrNqljfX0S+f9j37Zgv+6D/AFrmgmr6RDfWuvQSRzQPkW9ySqMns2MV654YgsPiB8Z5tUtWnMt3cmKSXf8ALx9O1cT8YvF+teFvile2cBi1C0E5iWCeLegA9Wr2sPmX1u8nKx1UqrrvkqbnZeA7aHUvD+l38Dvpt3cx/PAk+6E/7OMCu+t/D/8AYtvIbqESmYdMZGfX2rx618TXGp3dmbmOKCKJ/lVE2J9BXtV9qi3fgcTRmMl48Ng9Px7V8ZjM0rRrulf3UePWm+b2fRHkvxv8E6ZqsOky6HH5Bt5MOw+YnryOnrXSafpk+nX9jNdXb/2ZZxH5c4BJOc4qB9Qi1zR7aF2ImVtqbhTdW8ZQ2FjBbmNZrjGwx9c+9dGIzh1qXs+p11Kr9mkdTF4h0SOSXVLaCe1UJl8NhG98VYbxho+reB2bw/LCk6fcnkO0szdua8q8VPqN1ojJpSW+48mJjhWH92pfDo/tbwtHY3NttVcSeXjDbgM4z6ds15GGxs1N85yX5onrHhX4/aVo2p2elfGG2VdNhXy0u7NAH8z3NL4r8GWWp+Kp9W0i3jkPkq6SbvmYDrx0JPrXzTrF7f6oywxwyFnGCoO5RXqvwx8V6lJ8NWa+t53m0eXyp1zhimcfKT96vZo4mOKThy7CUXda7lHUnHjHxibews7dL6xAmgRpGRJyO/u1M8U+HdZPxH0TUNG097dQ4jnMRw1uAM4B710niLwRo/jLT7DWbB7+z1iwnWWIhsJKD2OPT0r0bwreWzyrNrcRjeRNsgYZw+MZ/wAipxWMnhYKCPUdSFGKcdzhf2sPD8+pfD/R9ZLo0umTK0pK/dQ/e+teY2vwvtfjVoGo6fLcuL+SH/RpCxVcemK9yt9MvfEuh61peuQv/Z17IUtbmZgIwp6E5weKwfhP8Prj4UagreIT58oj2R4wUH419Jw1nMsHC09zfAY1YWSlY+Gvgn8BteHxkvLHxTBc3Fjo84kuLdScMRn5fZeB69a9+8F+AU+Kfxlv7fVdIm0nwt5XlSJK5KM6/wBwYHX619G6FYQW/iuaew0+FbrVRi9aNBuZcA8fkfzrE+IHwqvPEegTWXhjUGsxLcKnmWjBWhQfe5JyPrXpYjjGq6rSWx6ssylXqXWh8/8AxF/Yk074Z3t3NqWsRz6PqEwCYuRHKcnAwrcg/hXhXiT4fy/CL4jXtjY3lzPZyKBDcyjcYw3Zj0GK+ydM+DsHhLwVfab8UHm1ewivRJY3dy5d0cHIy5y3H1rnvip8L5pPBmrapd6PMYlQeU7IMXG309c16WS8XVa2IUJu6Z24XNpKr7OpLQ+S/AHwY1f4j+NLrTdGvLeK8I3IZZcK6+qnPNeqeLvghrP7PMejad4nlWa71kE+bbMeFP8ADgDp9TT/AID+N7i31skeGoZLqcGJWW3YtCg/iB/pXvvgBtI+LngPVNZ+L5jspvDk5t1WR2Egx0ZR7+lfX4vPoxny30sdmMzGpRafKuRnz18DPAXhS++OdtaeJ9UmsdThlXybc2u6KbIy2WJGc/SqX7T3wbPwF+Njah4akt7W0uZPt0UbQgwl/wC9t9favf8AR/gAfFXxEstb0W20+XT1cfZ7sSMt0CBjBABrtP2q/wBjI/GvxB4fvvGOutBYxRbGtrUASGT/AGskYH514OHzmn7Xnk9EcNDOIKvFqXu9UfNXwvhb9rPVtWW90Wyj1bSYxIL60t1QlRn7yY2n7p7dq9P1n4XeG/hhptppfjmw/tGfUWExOm/IjMehkPOPpXofwK+A2m/s8Xlwmg6JqqC6h8ma5e4WWOT5yvzMMbfvE9+tXdX+B2oar8YV8T+FryCexto1S50+VG2gjoSCMce1edjc2+s1peyegsbm0a9dqL902dM8Mv4e8MoLa0tLfTWgBktCm/ao7hjyD+FavhPwdd6b4Zv4LK7N7p94jSW4Ztz25P8AAPYVr+NJ47rTriKQGKdIAGQJgAHtWT8OtQFtqcVnbXciJe/Jgjvz82e3TpXwOMq/WJNNanz9Sr7W7OS0zQtXvCskUnkQq2ZMnDhfYGnfEH4R3eg2kUmgXK3FtcoUdoWzICexPFenweF4Zry+jur0RCCfYrhCzOvpisr4gJZ+HLeK0sJpbiGVsEkbXz6+30qqVOWEp3vucsnZo8y+F3w41D4aWMyeIJWuLC8m3fZ8MUPGMk4zjvjNcL8Xv2S5H8SxeIfg9a+S8snmXcQmZgzeqnI2/TBr3e48XfZJR/ay77GWPCiQk4PrW34dsodb0qSaJxbw2/zFkbCmuzCSdZ8zewTqOn7yOD0L4YafJoFxF4C0/RreBRhpLq2QTD/cOzj6Yrk7PVr/AEPW10/WIpDHnyz5q/Mo+n8X6V0kvjtdC1NLTxJaTS6eJNwe2kKsjf3iecj2rbvbLR/iXp32wTj7Xay5jG3DsvqTmvFr8tZKLep59+V80kZXgPR7rwmL42Ugu7K4bcsSqN28nJYYHerHi34HaX4k025uFurwbk81LWMBntz/AHmwB+VXH1R/CyRzLNGCrfud2Mn61seCvFl54Z0691LxM008t0/EUMf7vy/R+Dge9elh6kowVJPQ6Izs1JdTxq5+GSaj4DuvCHi8Xlxp1wPOjunRT5UgOcRHtXXaXqK2HgqPT9QnmNvZfuYi6guqc8YGM9a2/FWlW48S2+q6Q0i6LMxLwSvlYyfT0ouprDxDdahBYLFYoq7Y8n759c9q48yhKlFKL0Np8soWR5YHm0rxYmlacnk2t+PNE/2cv8vqpB4PtXQ+Hvhte6O02o6kbnUzcSYtY/JZVKepB6D3ra8BWEmiaqPtrREWzbou5Htg1veINfvJL4w6rq5t3uTiJpTuSIehwRge1aYLAKVP219SqcYOnZEmk6J/Z2lxSaatraWRbdPAseAn+1kkmvSvEnha3bw9p8vhgEJcRDft/iUeozXiXi3xVf8AgKWCO2kt9RjY/vWiO+N19M112gfEibxT4eiOGs1U7cKeCvoPSuJVai17M5ZSaeh1vjH4SaX4t8J240aXy9Tjj3MGcMrH+leY/Dz4T6z4qmuYrq3t4tOsCTJdSsqjcP7ozk12Gg3d3YX8kYhlSPPDNIDlfXNbGr682i2MkFhHE/24FnYgZQnuOK9Oj7KpVSqouNapLS1zyTTPgl/pt1/wjbtG8j4Z2k3K/wBM9KfbaK/w+vXs9du4r25vM4aAZVVHYmuq8JfEex0RLgfZkvp7b7qtyF/DvXP+B49R+I3i25aL7PFHJKQ3y7QFPYeldld4bCpQS94TlOUlF6HMaTrGoapPt8S3sV28fFkPKVdi+gHeug+H+pQ6gb6PW4JRdWgwG28N9DXTxfBUXEt1pV3bpBc2jefZXyuCjH0+lR6zp101pa2mnRgPanF0VTDPUypKrC8XqFeLhq3cuSyw6s+nyWoUZjALZ2tx60eO/Ea6R4stI7W2uQqxqGllJZT/AErI8UW8HhHxBJ/wh07XIEfmgSjB46rtycY9a6VvG7+PvD9tF4hsYYbpcKrEKAcfjXlrBzqqUGK942ZyHiO0F/4strnxBm5to2QRRLzGDxkg49j+dX/Elpaaf4VnAVof3bq4bhvm9D7Vv6T4M/4SKSSFrwQyaYBMu9wiOB6etYXjZri70S4aGNRNK2Tg5AX1pTpSoUIxfcxunaL2Mb4X/B6w8Cano8fh0SQ212DNkybssfcisf4s6Nb6Rq1zHqfkhbiZpXnjAUj2710Gh+PZLe5tNO8QQebDbr+6kHVKg+Js9ro2mXur3lul3lSsaltytnvjFbSo+xjGUWXLETdS6PLPHc8lpYaHBpMSSQG6DBwvJB7e9eu2HhnyfCL2/hhZ5FKZkjcZYcZ715zpfiqLXYNOmSJFuLSZSkJj+Va9v1v+0dTgN1EoimvYfLQEBAWxjoK8Kova1k0Uo+0aTPBNZsCmn2TSeYjxXJDgcHI7f/Xq9qGsRHS/7RS2RjH8swVfmHuG/wDrV6LafBi78U+HbqeZ44ry3VmdG7L9fX3ryTRYVntL3zLhobOHKOGyCzDoAD1zW1TASpyU+5U6V9EdnB4R0zxtp8KaXfx2qcsEu0+9gZx5gP8ASkPwovLLR1sr+BY45j5aSQzCRNmc5wvze3SuQ+C/gjUtT+KNo2s3txa6HZOd1sG5lBGOvb9a7Hx/4q1L4ffEmT7ddp9kbAjKINig9twwa2p4eEpbajeGlFe5qcHZ+F9F8OeJv7L0G8nuJOgd34z3HzYbj1xXpc7aXB4OvYLdmnvIU2zMq4RWznOQasaP8Vl1aYQeP9BtyqjIu7aTMzoeuJCM81q+DPAHw+1LV9Q/4Vr4gurebUosyaNqMeJC3qH3f0rvp4edGXOiPZy+0jnPgtqGuaRoCjUtOs28PQysYrhgDOrH1cnoPpXSeE9bW6vJX1wR3Mt6cW7Rvzs9S+MD8qpXXwN1n4eR3Fnrwf8AszVI/wBwEctGq/Qd6i+C19ceC7rULDWYXW2hG2MzxY2j2Y1FeE8TNJx0LjSbe+h12s+H9P1a9hutCjubCBT5ckBuPOO/2U1NpvhO4tfEVjHc2Rn0aKTLlmzJj3Fa1nBcrqEepaDNHBBbqqtIY1aM577vUV2fh7xNp2l+L4LC8NrqSXsIdpA2cE9j6V9JRwFO0ZXszrjCNjzv4j+E76++Lt1faRbLbaYkMaQrCxBJAwSQB3rnfDnjCX4bfECV/GujG90mY4ZxaHdFnqS275s/QV7B8Qrn7F8vhpzAWlD/AC/MWUehrNn1W28R6RctqkWWYYYKny1yzoxhUvU2ZSqqDtLY3tL8A+Evix4NvbjR7WefTJP3od1xLC307/hXlXirTLnwzePpWtTxXfhvBFuCN0gz6L2/Ous+F3xk8ua7stxtbO3jIj2pt249KzvEd1L4utJzaWDPcRZm+0I67Sg9B/Sq+rUoSU8OY1K6UrwOD8LaVpGl6gr6Zai1tVUq0qRqzxg+vpXN6l8LTdeJruG1uY5Y7qdZWVVwDjrvHOM12/wv1S61K71UWs09qsMXO9iFY5xz1zXU+AdA8yae+spxAdpy2R82PXIrL21aFZOWxLxM5byMj4d+HZ9FnMnh6GV2iO7FuMqpHUjI7Vt+KZYviprlvP43uPKhgHkjyU8tifVmB/pU3hfW7vwdroukuvPtLePDI44Y9+nrTfG2gSapdTax4RLxCVfMntZMY+o//VXdRqKMJQtqTBxcrtakMmq3tuq6Po8zPaxSJNh3YrKq9jzzk1Q8X+OrrT7q1stCe2MPmL9oaWYp5R9FGMn86XSb2TUrIwRpDBtfCTsD8je/qKqX3go6rd/aPOgu0hYETAfu3IOMk/8A1qmDqUVzIHV5ZHS+KJbHxVsm0HBiEQWZmuF3vj/Zxx+dR6B4csfB+gtK8bMl22yGWRs+Sefb39q4jxX53hDUhHCUlWY5YxAZX9K1NN1i8vvCdxN5iyxW43FCcgNnGQK8vFrkq80YXT3GpO3uvQsaJFd6fbSR6xJC0jv5qtuO4e3XmsnxSt3da4Y7hPMSVdyhVyxqlo+vi8v45rcG6CnYyL296u2Xii70nxTcXdzbRlooXSKN+mG75x29KUITqvVaGdaUoxVh1z4bttW8F3V7qM8OI0IhXzAGDDsRnirPh6GZvhVP50Zguym5VhbCgf4+1cdqf2iGGS5vAJbfUZiTmMFQx7Y7V0OlPc6BKtvcMJbK7TcmB/qm/wBo9q9COHcFy01YUpycEjP8RWdprd6sNjbcmTy2jf5mB/4Dmsvw5oE3gPxjcS6tM0Vq6qib+Fwev5U7Q/H1p4T1N21uMStfP+7jH7sRn14rsPF/iPRfG/gEzNF5GpwBmO05TB6flXzuNpwr9SKlRVFZrQ4rUraz8ZeJ/ssM+Ypm+XBO1PxrtNZ1m/8AAbWtncXC/Y3t/LwXVmkX39/euO+DXimz8JQwy60wnu3n+QFBsA+tel/H74Yz+N9Jstb8H3xt/Kt/MkihVWY/QV05fOUI8r6DoqzUEY9z4d0TVfDaNYSyCJm/eoQXA+h4Fc4fhxDp3iG4j0eVxasnmRh2+bb+P8q09M8R6pH8MLOy0fTtKiMMu6S6kjYXjD3bO3/x2jxBaSeIl0660ksvktiY5wwI6j8K9GrTp4iLjIucXOTpI4/UNcbw9NMtu/nE7trKwLDHr9a6XxPrWmeJPAlk1npT2l6kW2ViwdZvc8DFU/EvwS1PXtY+1/DrE9neFQ8+9BGcehIxz9aZeaPP4S1OwS0SHUdgEUkCuXznvgZryYUquGnyp+6df1CWHim3ucX4w8U2fhnwX9om2b2jxBGemfcVpfAzxhaeMLYWzs0t/ar5swQfu1HbjvmtvxX8BLTWNTgOp3X9mucO01xEWt41PtkVz9ro+j/An40iwjurbVDdWzupt1ZUmjXpkc4/WtVy0Ics3qb1MPHkVtWeovFrcHlXFlcwz6bczC3iyo3Qg9369K3ZvDkMF0Y/EepR3EEJ8svFkDP1rh/2cPGg8ca/fWUSSLAzSTBV6Ajtg9a67xt5mmCRb2Se3gU4CbBtD89/wrGGL97mavY85y5fda1OJ8eazouk3dwPCMMcTqcSOQRvq34JujY2zHSYgWuRlAvXNZN7dC9vhby2+9JB8rbRx7+9a+jWy6BPbqC8Epb5WbgH/Cs8fJ4msqkdGSqMqkr3OosvF7XrQg2ESzxR4V2Jya5nU/H+p+HdRF1aW3miWcRPKF3rz3PHSsiw1G6vvGWp2msyTpEkeYGQZBHsa9E8NXNhpfh5YPEMVxcyXigoIioCAd8HvWsalShBybLVFQb5yLxelto+jiaeztGubvH+lH7mD1ryzXNZfTp9mnTtMqPhQVHFel+Kb6w1WxtwXMsVp97jB+WvKvEFrLHrn2vw9AJYJJNwiDg8fX+mK5JZlOWz1CpCKSa2O70bUobu2tF8YyGK9kGy3YZWNv8AZb1qL4s6ffRadBJ4VBimibEmfmRx6Vq+HNSijsbOWe0+0LB++ImwRH+Yq5rviT+3YVl8Poqpu/dxqMbvqKupUmoR52cknFNHnHhy31TXfFTWOsKJDJFuiEKYYe2Kt69ox/sqGz1INLHHJ5bxgfOvOMkdcfSluPFB0fWLueYT2OoAYDQrtdPoOanubTVh4V+22Akm1q3ybe8ZgD5YOeOMZ+ua7puhNKMpWOyEoTWvQ5nS/BVl4Ivri6h3zYZUDSZADduD617H4X1j/hKfhuYNX+zNPZHcgDESj36V4DpPjfxR8TNYibX42N0jhJmZAuQOmMcE16TpovLXVjdwSSFjF5bxSYyT6/5Fcfsaav7PUwlO87I7rR/ENxcWMrRSNbF5DHI/CqFP4c1w/jH9n2XWvEdoba4S9RpEuMRsAp9QfWtvWdeubXQFlvoAse3/AIDn1NJ4KfVPG1qsfhy286UMHXbxtI989K9XDxjUShVWpbq+zuZV74Zm095EtLF7L7AB5mOY8Hvnqajtfh3/AMJXfzRpOmpxyRCVUETHyQOxyK7xkl1IX7iFp9StoQ10rttIQd8dCfasTU/HEIsjLZG4t7iJtqvE2wMvo2Otc8MPCMnOXQuFRpXXU4Pxl8QNO1K6Xw1pd1A+paPBi4gSHa6D0J21xPhS4tYPHtiVnhg1KzbdIjDe2MZxlc16V4i8IaSF/tS6soIdTvYtz3afLI/sx3fN+lcvb+GLGaQ6qqQxXyuUlZE2s+BjOQeKrETdSKUDonNcnu9T0rUfF2p3cmnYu5vsqtuUEZUH8e1aHxB1hPEUcAigHmTrtcBRtPvXG/D/AMUv4l0x7HUYypgk2JkYz711vhfwpD4/1S30PVJbi1nIJ3h9uMUZVGtUm4SOGFRwlaRU8KpINAlttGkunigDGeBEOw5Ge/pXP2WoPqeqCFJEjm0+UcK3+sA9SOtdhH4e07w/4lm0udpY2vf3EkhkYLn7uc559a5+3+GmqeAdfujqcMKWyn93NGfvj1NevLBy0aeppzNXsehPrz61a2SXlx5H2dsl9v8AD/Wq/inWodEjiht7nzIbp/LHmEBmPsK5qLU7rRrU3sMLyGN8pvXdGTTvE3j25vr+Ma7bo95cL97yVVUX1QY4NdU6Dr0rPdHO6knoV5DDfwFkiSMW0hDMi53A/wA62dP8Kw6lo0lzDqZV4gYVtoCFuZHPYDoRRrM2nWWj2Q05isg/1qFMbvqc1haN4H16z8QNeSLL9hbbIDAQdueyn1HrWWFoqjJIqKtqhnwl0LWtN8RXVve6VJFpjHEkpnUs4znp/wDXr0H7Xp+hzXCzxYtlVtyrxj/Gua0KS8t57qePfAgXJUEHj16VraLp6+LNJI81VnmVsOxyv4mrrXqpNLZjnabVhPE+jabqem2tz4PuLiWG5TzH5HP+zzWd4gmlt7i1tb7zUWVdnHJYe5Bp+hatJ4K1mPQviFpK3PlksrRHbGFH+0M1oXnhSPXobr7BbzC5I3Qwxy5cD156VtVwzlJTSsdPu2Vy1BqWnyaNNpFo6u8q7FAjy4H51c1rwInhLwzDDpk4WaQb9rHY3XOPm4ryZ5rnSZMGR5bnBKt/Fx75rs/EWt6j4n+HtubtStxFFwjNkP8Aic4rrUIVIcttTObstDJ+JvgrVHsYtQ8O20kmwfO0ilkzjOMj8ulVPBWn3PiHwNf3Nxby27wufPCxsFwDn0rS8G+IbvTIprUySJx8sBmZ0Q5zk/yrbn+IBtNNFlqynSnYEXMakoDnvhsZrCvl6nSckXyrkPNPC0EOmaxIqSbwp3shOCPaugW+t9dume2knmn3ZEYjz8n1rC8X2JSOSfwpG11NMMERLmQV0PhLxSmh+HVh1ixnEtwm9SUxJE3ua4MOvYRblEVNcy1K48OumsEz7vs+4ObbG7y2PqO1R6xYyxRXH9r3MaRR/djjGGb6ms2w8UraalHePNLLcBg8kecs4Hr61veIBZ6lPLq63kNvbz4CpcNt2se2OelejhascRTco7ltWt2P/9k=;rounded=0;" vertex="1" parent="1">
          <mxGeometry y="314" width="70" height="70" as="geometry" />
        </mxCell>
        <mxCell id="CB4tVec-n4E3JrC9PapR-102" value="" style="shape=image;verticalLabelPosition=bottom;labelBackgroundColor=default;verticalAlign=top;aspect=fixed;imageAspect=0;image=https://img-blog.csdnimg.cn/img_convert/17c0af472297210d13132eac41505cc5.png;rounded=0;" vertex="1" parent="1">
          <mxGeometry x="30" y="10" width="787.88" height="250" as="geometry" />
        </mxCell>
        <mxCell id="CB4tVec-n4E3JrC9PapR-103" value="BaseConv" style="rounded=0;whiteSpace=wrap;html=1;fillColor=#d5e8d4;strokeColor=#82b366;fontSize=9;fontStyle=1" vertex="1" parent="1">
          <mxGeometry x="260" y="490" width="70" height="40" as="geometry" />
        </mxCell>
        <mxCell id="CB4tVec-n4E3JrC9PapR-105" value="ResLayer" style="rounded=0;whiteSpace=wrap;html=1;fillColor=#e1d5e7;strokeColor=#9673a6;fontSize=9;fontStyle=1" vertex="1" parent="1">
          <mxGeometry x="505" y="490" width="70" height="40" as="geometry" />
        </mxCell>
        <mxCell id="CB4tVec-n4E3JrC9PapR-106" value="=" style="text;html=1;resizable=0;autosize=1;align=center;verticalAlign=middle;points=[];fillColor=none;strokeColor=none;rounded=0;fontStyle=1;fontSize=9;" vertex="1" parent="1">
          <mxGeometry x="320" y="500" width="30" height="20" as="geometry" />
        </mxCell>
        <mxCell id="CB4tVec-n4E3JrC9PapR-107" value="Conv" style="rounded=0;whiteSpace=wrap;html=1;fillColor=#ffe6cc;strokeColor=#d79b00;fontSize=9;fontStyle=1" vertex="1" parent="1">
          <mxGeometry x="350" y="490" width="40" height="40" as="geometry" />
        </mxCell>
        <mxCell id="CB4tVec-n4E3JrC9PapR-108" value="BN" style="rounded=0;whiteSpace=wrap;html=1;fillColor=#fff2cc;strokeColor=#d6b656;fontSize=9;fontStyle=1" vertex="1" parent="1">
          <mxGeometry x="390" y="490" width="40" height="40" as="geometry" />
        </mxCell>
        <mxCell id="CB4tVec-n4E3JrC9PapR-109" value="SiLU" style="rounded=0;whiteSpace=wrap;html=1;fillColor=#f8cecc;strokeColor=#b85450;fontSize=9;fontStyle=1" vertex="1" parent="1">
          <mxGeometry x="430" y="490" width="40" height="40" as="geometry" />
        </mxCell>
        <mxCell id="CB4tVec-n4E3JrC9PapR-111" value="=" style="text;html=1;resizable=0;autosize=1;align=center;verticalAlign=middle;points=[];fillColor=none;strokeColor=none;rounded=0;fontStyle=1;fontSize=9;" vertex="1" parent="1">
          <mxGeometry x="570" y="500" width="30" height="20" as="geometry" />
        </mxCell>
        <mxCell id="CB4tVec-n4E3JrC9PapR-127" value="" style="endArrow=none;html=1;rounded=0;fontSize=9;fontStyle=1" edge="1" parent="1">
          <mxGeometry width="50" height="50" relative="1" as="geometry">
            <mxPoint x="605" y="510" as="sourcePoint" />
            <mxPoint x="625" y="510" as="targetPoint" />
          </mxGeometry>
        </mxCell>
        <mxCell id="CB4tVec-n4E3JrC9PapR-128" value="BaseConv" style="rounded=0;whiteSpace=wrap;html=1;fillColor=#d5e8d4;strokeColor=#82b366;fontSize=9;fontStyle=1" vertex="1" parent="1">
          <mxGeometry x="626" y="490" width="70" height="40" as="geometry" />
        </mxCell>
        <mxCell id="CB4tVec-n4E3JrC9PapR-129" value="BaseConv" style="rounded=0;whiteSpace=wrap;html=1;fillColor=#d5e8d4;strokeColor=#82b366;fontSize=9;fontStyle=1" vertex="1" parent="1">
          <mxGeometry x="696" y="490" width="70" height="40" as="geometry" />
        </mxCell>
        <mxCell id="CB4tVec-n4E3JrC9PapR-150" value="ResX" style="rounded=0;whiteSpace=wrap;html=1;fillColor=#b1ddf0;strokeColor=#10739e;fontSize=9;fontStyle=1" vertex="1" parent="1">
          <mxGeometry x="240" y="570" width="70" height="50" as="geometry" />
        </mxCell>
        <mxCell id="CB4tVec-n4E3JrC9PapR-151" value="=" style="text;html=1;resizable=0;autosize=1;align=center;verticalAlign=middle;points=[];fillColor=none;strokeColor=none;rounded=0;fontStyle=1;fontSize=9;" vertex="1" parent="1">
          <mxGeometry x="310" y="580" width="30" height="20" as="geometry" />
        </mxCell>
        <mxCell id="CB4tVec-n4E3JrC9PapR-152" value="BaseConv" style="rounded=0;whiteSpace=wrap;html=1;fillColor=#d5e8d4;strokeColor=#82b366;fontSize=9;fontStyle=1" vertex="1" parent="1">
          <mxGeometry x="340" y="570" width="70" height="40" as="geometry" />
        </mxCell>
        <mxCell id="CB4tVec-n4E3JrC9PapR-159" value="ResLayer" style="rounded=0;whiteSpace=wrap;html=1;fillColor=#e1d5e7;strokeColor=#9673a6;fontSize=9;fontStyle=1" vertex="1" parent="1">
          <mxGeometry x="450" y="570" width="70" height="40" as="geometry" />
        </mxCell>
        <mxCell id="CB4tVec-n4E3JrC9PapR-161" value="ResLayer" style="rounded=0;whiteSpace=wrap;html=1;fillColor=#e1d5e7;strokeColor=#9673a6;fontSize=9;fontStyle=1" vertex="1" parent="1">
          <mxGeometry x="550" y="570" width="70" height="40" as="geometry" />
        </mxCell>
        <mxCell id="CB4tVec-n4E3JrC9PapR-163" value="..." style="text;html=1;align=center;verticalAlign=middle;resizable=0;points=[];autosize=1;strokeColor=none;fillColor=none;fontStyle=1;fontSize=9;rounded=0;" vertex="1" parent="1">
          <mxGeometry x="520" y="580" width="30" height="20" as="geometry" />
        </mxCell>
        <mxCell id="CB4tVec-n4E3JrC9PapR-172" value="" style="endArrow=classic;html=1;rounded=0;elbow=vertical;exitX=1;exitY=0.5;exitDx=0;exitDy=0;fontSize=9;fontStyle=1" edge="1" parent="1" source="CB4tVec-n4E3JrC9PapR-161">
          <mxGeometry width="50" height="50" relative="1" as="geometry">
            <mxPoint x="615" y="620" as="sourcePoint" />
            <mxPoint x="645" y="590" as="targetPoint" />
          </mxGeometry>
        </mxCell>
        <mxCell id="CB4tVec-n4E3JrC9PapR-179" value="X sequential ResLayer" style="text;html=1;align=center;verticalAlign=middle;resizable=0;points=[];autosize=1;strokeColor=none;fillColor=none;fontSize=9;fontStyle=1;rounded=0;" vertex="1" parent="1">
          <mxGeometry x="473" y="610" width="120" height="20" as="geometry" />
        </mxCell>
        <mxCell id="CB4tVec-n4E3JrC9PapR-234" value="" style="edgeStyle=orthogonalEdgeStyle;rounded=0;orthogonalLoop=1;jettySize=auto;html=1;strokeColor=default;fontFamily=Helvetica;fontSize=9;fontColor=default;elbow=vertical;" edge="1" parent="1" source="CB4tVec-n4E3JrC9PapR-222" target="CB4tVec-n4E3JrC9PapR-233">
          <mxGeometry relative="1" as="geometry" />
        </mxCell>
        <mxCell id="CB4tVec-n4E3JrC9PapR-222" value="Res1" style="rounded=0;whiteSpace=wrap;html=1;fillColor=#b1ddf0;strokeColor=#10739e;fontSize=9;fontStyle=1;direction=west;" vertex="1" parent="1">
          <mxGeometry x="100" y="324" width="72" height="52" as="geometry" />
        </mxCell>
        <mxCell id="CB4tVec-n4E3JrC9PapR-228" value="" style="edgeStyle=orthogonalEdgeStyle;rounded=0;orthogonalLoop=1;jettySize=auto;html=1;strokeColor=default;fontFamily=Helvetica;fontSize=9;fontColor=default;elbow=vertical;" edge="1" parent="1" target="CB4tVec-n4E3JrC9PapR-227">
          <mxGeometry relative="1" as="geometry">
            <mxPoint x="359" y="349" as="sourcePoint" />
          </mxGeometry>
        </mxCell>
        <mxCell id="CB4tVec-n4E3JrC9PapR-230" value="" style="edgeStyle=orthogonalEdgeStyle;rounded=0;orthogonalLoop=1;jettySize=auto;html=1;strokeColor=default;fontFamily=Helvetica;fontSize=9;fontColor=default;elbow=vertical;" edge="1" parent="1" source="CB4tVec-n4E3JrC9PapR-227" target="CB4tVec-n4E3JrC9PapR-229">
          <mxGeometry relative="1" as="geometry" />
        </mxCell>
        <mxCell id="CB4tVec-n4E3JrC9PapR-227" value="Res2" style="rounded=0;whiteSpace=wrap;html=1;fillColor=#b1ddf0;strokeColor=#10739e;fontSize=9;fontStyle=1" vertex="1" parent="1">
          <mxGeometry x="396" y="323" width="72" height="52" as="geometry" />
        </mxCell>
        <mxCell id="CB4tVec-n4E3JrC9PapR-241" style="edgeStyle=orthogonalEdgeStyle;rounded=0;orthogonalLoop=1;jettySize=auto;html=1;exitX=1;exitY=0.5;exitDx=0;exitDy=0;entryX=0;entryY=0.5;entryDx=0;entryDy=0;strokeColor=default;fontFamily=Helvetica;fontSize=9;fontColor=default;elbow=vertical;" edge="1" parent="1" source="CB4tVec-n4E3JrC9PapR-229" target="CB4tVec-n4E3JrC9PapR-237">
          <mxGeometry relative="1" as="geometry" />
        </mxCell>
        <mxCell id="CB4tVec-n4E3JrC9PapR-229" value="Res1" style="rounded=0;whiteSpace=wrap;html=1;fillColor=#b1ddf0;strokeColor=#10739e;fontSize=9;fontStyle=1" vertex="1" parent="1">
          <mxGeometry x="492" y="323" width="72" height="52" as="geometry" />
        </mxCell>
        <mxCell id="CB4tVec-n4E3JrC9PapR-236" value="" style="edgeStyle=orthogonalEdgeStyle;rounded=0;orthogonalLoop=1;jettySize=auto;html=1;strokeColor=default;fontFamily=Helvetica;fontSize=9;fontColor=default;elbow=vertical;" edge="1" parent="1" source="CB4tVec-n4E3JrC9PapR-233" target="CB4tVec-n4E3JrC9PapR-235">
          <mxGeometry relative="1" as="geometry" />
        </mxCell>
        <mxCell id="CB4tVec-n4E3JrC9PapR-233" value="Res1" style="rounded=0;whiteSpace=wrap;html=1;fillColor=#b1ddf0;strokeColor=#10739e;fontSize=9;fontStyle=1" vertex="1" parent="1">
          <mxGeometry x="200" y="324" width="72" height="52" as="geometry" />
        </mxCell>
        <mxCell id="CB4tVec-n4E3JrC9PapR-235" value="Res2" style="rounded=0;whiteSpace=wrap;html=1;fillColor=#b1ddf0;strokeColor=#10739e;fontSize=9;fontStyle=1" vertex="1" parent="1">
          <mxGeometry x="300" y="324" width="72" height="52" as="geometry" />
        </mxCell>
        <mxCell id="CB4tVec-n4E3JrC9PapR-240" value="" style="edgeStyle=orthogonalEdgeStyle;rounded=0;orthogonalLoop=1;jettySize=auto;html=1;strokeColor=default;fontFamily=Helvetica;fontSize=9;fontColor=default;elbow=vertical;" edge="1" parent="1" source="CB4tVec-n4E3JrC9PapR-237" target="CB4tVec-n4E3JrC9PapR-239">
          <mxGeometry relative="1" as="geometry" />
        </mxCell>
        <mxCell id="CB4tVec-n4E3JrC9PapR-237" value="BaseConv" style="rounded=0;whiteSpace=wrap;html=1;fillColor=#d5e8d4;strokeColor=#82b366;fontSize=9;fontStyle=1" vertex="1" parent="1">
          <mxGeometry x="583" y="329" width="70" height="40" as="geometry" />
        </mxCell>
        <mxCell id="CB4tVec-n4E3JrC9PapR-244" style="edgeStyle=orthogonalEdgeStyle;rounded=0;orthogonalLoop=1;jettySize=auto;html=1;exitX=1;exitY=0.5;exitDx=0;exitDy=0;entryX=0;entryY=0.5;entryDx=0;entryDy=0;strokeColor=default;fontFamily=Helvetica;fontSize=9;fontColor=default;elbow=vertical;" edge="1" parent="1" source="CB4tVec-n4E3JrC9PapR-239" target="CB4tVec-n4E3JrC9PapR-242">
          <mxGeometry relative="1" as="geometry" />
        </mxCell>
        <mxCell id="CB4tVec-n4E3JrC9PapR-239" value="BaseConv" style="rounded=0;whiteSpace=wrap;html=1;fillColor=#d5e8d4;strokeColor=#82b366;fontSize=9;fontStyle=1" vertex="1" parent="1">
          <mxGeometry x="671" y="329" width="70" height="40" as="geometry" />
        </mxCell>
        <mxCell id="CB4tVec-n4E3JrC9PapR-242" value="SPPLayer" style="rounded=0;whiteSpace=wrap;html=1;fillColor=#0050ef;strokeColor=#001DBC;fontColor=#ffffff;" vertex="1" parent="1">
          <mxGeometry x="760" y="327" width="72" height="44" as="geometry" />
        </mxCell>
        <mxCell id="CB4tVec-n4E3JrC9PapR-247" value="" style="group" vertex="1" connectable="0" parent="1">
          <mxGeometry x="724" y="679" width="496" height="148" as="geometry" />
        </mxCell>
        <mxCell id="CB4tVec-n4E3JrC9PapR-211" value="" style="rounded=0;whiteSpace=wrap;html=1;fontSize=9;fontStyle=1;fillColor=default;" vertex="1" parent="CB4tVec-n4E3JrC9PapR-247">
          <mxGeometry width="496" height="148" as="geometry" />
        </mxCell>
        <mxCell id="CB4tVec-n4E3JrC9PapR-104" value="SPPLayer" style="rounded=0;whiteSpace=wrap;html=1;fillColor=#0050ef;strokeColor=#001DBC;fontColor=#ffffff;fontStyle=0" vertex="1" parent="CB4tVec-n4E3JrC9PapR-247">
          <mxGeometry x="5" y="51" width="72" height="44" as="geometry" />
        </mxCell>
        <mxCell id="CB4tVec-n4E3JrC9PapR-181" value="=" style="text;html=1;resizable=0;autosize=1;align=center;verticalAlign=middle;points=[];fillColor=none;strokeColor=none;rounded=0;fontStyle=1;fontSize=9;" vertex="1" parent="CB4tVec-n4E3JrC9PapR-247">
          <mxGeometry x="75" y="61" width="28" height="24" as="geometry" />
        </mxCell>
        <mxCell id="CB4tVec-n4E3JrC9PapR-182" value="BaseConv" style="rounded=0;whiteSpace=wrap;html=1;fillColor=#d5e8d4;strokeColor=#82b366;fontSize=9;fontStyle=1" vertex="1" parent="CB4tVec-n4E3JrC9PapR-247">
          <mxGeometry x="97" y="51" width="72" height="44" as="geometry" />
        </mxCell>
        <mxCell id="CB4tVec-n4E3JrC9PapR-183" value="Max Pooling" style="rounded=0;whiteSpace=wrap;html=1;fillColor=#ffcd28;strokeColor=#d79b00;fontSize=9;fontStyle=1;gradientColor=#ffa500;" vertex="1" parent="CB4tVec-n4E3JrC9PapR-247">
          <mxGeometry x="221" y="3" width="72" height="44" as="geometry" />
        </mxCell>
        <mxCell id="CB4tVec-n4E3JrC9PapR-185" style="edgeStyle=orthogonalEdgeStyle;rounded=0;orthogonalLoop=1;jettySize=auto;html=1;exitX=1;exitY=0.5;exitDx=0;exitDy=0;entryX=0;entryY=0.5;entryDx=0;entryDy=0;fontSize=9;elbow=vertical;fontStyle=0" edge="1" parent="CB4tVec-n4E3JrC9PapR-247" source="CB4tVec-n4E3JrC9PapR-182" target="CB4tVec-n4E3JrC9PapR-183">
          <mxGeometry relative="1" as="geometry" />
        </mxCell>
        <mxCell id="CB4tVec-n4E3JrC9PapR-186" value="Max Pooling" style="rounded=0;whiteSpace=wrap;html=1;fillColor=#ffcd28;strokeColor=#d79b00;fontSize=9;fontStyle=1;gradientColor=#ffa500;" vertex="1" parent="CB4tVec-n4E3JrC9PapR-247">
          <mxGeometry x="221" y="51" width="72" height="44" as="geometry" />
        </mxCell>
        <mxCell id="CB4tVec-n4E3JrC9PapR-190" style="edgeStyle=orthogonalEdgeStyle;rounded=0;orthogonalLoop=1;jettySize=auto;html=1;exitX=1;exitY=0.5;exitDx=0;exitDy=0;fontSize=9;elbow=vertical;fontStyle=0" edge="1" parent="CB4tVec-n4E3JrC9PapR-247" source="CB4tVec-n4E3JrC9PapR-182" target="CB4tVec-n4E3JrC9PapR-186">
          <mxGeometry relative="1" as="geometry" />
        </mxCell>
        <mxCell id="CB4tVec-n4E3JrC9PapR-187" value="Max Pooling" style="rounded=0;whiteSpace=wrap;html=1;fillColor=#ffcd28;strokeColor=#d79b00;fontSize=9;fontStyle=1;gradientColor=#ffa500;" vertex="1" parent="CB4tVec-n4E3JrC9PapR-247">
          <mxGeometry x="221" y="99" width="72" height="42" as="geometry" />
        </mxCell>
        <mxCell id="CB4tVec-n4E3JrC9PapR-191" style="edgeStyle=orthogonalEdgeStyle;rounded=0;orthogonalLoop=1;jettySize=auto;html=1;exitX=1;exitY=0.5;exitDx=0;exitDy=0;entryX=0;entryY=0.5;entryDx=0;entryDy=0;fontSize=9;elbow=vertical;fontStyle=0" edge="1" parent="CB4tVec-n4E3JrC9PapR-247" source="CB4tVec-n4E3JrC9PapR-182" target="CB4tVec-n4E3JrC9PapR-187">
          <mxGeometry relative="1" as="geometry" />
        </mxCell>
        <mxCell id="CB4tVec-n4E3JrC9PapR-192" value="Concat" style="rounded=1;whiteSpace=wrap;html=1;fontSize=9;fontStyle=0" vertex="1" parent="CB4tVec-n4E3JrC9PapR-247">
          <mxGeometry x="325" y="55" width="60" height="36" as="geometry" />
        </mxCell>
        <mxCell id="CB4tVec-n4E3JrC9PapR-199" style="edgeStyle=orthogonalEdgeStyle;orthogonalLoop=1;jettySize=auto;html=1;exitX=1;exitY=0.5;exitDx=0;exitDy=0;entryX=0.5;entryY=0;entryDx=0;entryDy=0;fontSize=9;elbow=vertical;strokeColor=default;rounded=0;fontStyle=0" edge="1" parent="CB4tVec-n4E3JrC9PapR-247" source="CB4tVec-n4E3JrC9PapR-183" target="CB4tVec-n4E3JrC9PapR-192">
          <mxGeometry relative="1" as="geometry" />
        </mxCell>
        <mxCell id="CB4tVec-n4E3JrC9PapR-209" style="edgeStyle=orthogonalEdgeStyle;rounded=0;orthogonalLoop=1;jettySize=auto;html=1;exitX=1;exitY=0.5;exitDx=0;exitDy=0;strokeColor=default;fontSize=9;elbow=vertical;fontStyle=0" edge="1" parent="CB4tVec-n4E3JrC9PapR-247" source="CB4tVec-n4E3JrC9PapR-186" target="CB4tVec-n4E3JrC9PapR-192">
          <mxGeometry relative="1" as="geometry" />
        </mxCell>
        <mxCell id="CB4tVec-n4E3JrC9PapR-201" style="edgeStyle=orthogonalEdgeStyle;rounded=0;orthogonalLoop=1;jettySize=auto;html=1;exitX=1;exitY=0.5;exitDx=0;exitDy=0;entryX=0.5;entryY=1;entryDx=0;entryDy=0;strokeColor=default;fontSize=9;elbow=vertical;fontStyle=0" edge="1" parent="CB4tVec-n4E3JrC9PapR-247" source="CB4tVec-n4E3JrC9PapR-187" target="CB4tVec-n4E3JrC9PapR-192">
          <mxGeometry relative="1" as="geometry" />
        </mxCell>
        <mxCell id="CB4tVec-n4E3JrC9PapR-208" value="BaseConv" style="rounded=0;whiteSpace=wrap;html=1;fillColor=#d5e8d4;strokeColor=#82b366;fontSize=9;fontStyle=1" vertex="1" parent="CB4tVec-n4E3JrC9PapR-247">
          <mxGeometry x="405" y="52" width="72" height="44" as="geometry" />
        </mxCell>
        <mxCell id="CB4tVec-n4E3JrC9PapR-210" style="edgeStyle=orthogonalEdgeStyle;rounded=0;orthogonalLoop=1;jettySize=auto;html=1;exitX=1;exitY=0.5;exitDx=0;exitDy=0;strokeColor=default;fontSize=9;elbow=vertical;fontStyle=0" edge="1" parent="CB4tVec-n4E3JrC9PapR-247" source="CB4tVec-n4E3JrC9PapR-192" target="CB4tVec-n4E3JrC9PapR-208">
          <mxGeometry relative="1" as="geometry" />
        </mxCell>
        <mxCell id="CB4tVec-n4E3JrC9PapR-250" value="" style="endArrow=classic;html=1;rounded=0;strokeColor=default;fontFamily=Helvetica;fontSize=9;fontColor=default;elbow=vertical;exitX=1;exitY=0.5;exitDx=0;exitDy=0;entryX=0;entryY=0.5;entryDx=0;entryDy=0;" edge="1" parent="1" target="CB4tVec-n4E3JrC9PapR-252">
          <mxGeometry width="50" height="50" relative="1" as="geometry">
            <mxPoint x="766" y="510" as="sourcePoint" />
            <mxPoint x="784" y="510" as="targetPoint" />
          </mxGeometry>
        </mxCell>
        <mxCell id="CB4tVec-n4E3JrC9PapR-253" style="edgeStyle=elbowEdgeStyle;rounded=0;orthogonalLoop=1;jettySize=auto;html=1;exitX=1;exitY=0.5;exitDx=0;exitDy=0;strokeColor=default;fontFamily=Helvetica;fontSize=9;fontColor=default;" edge="1" parent="1" source="CB4tVec-n4E3JrC9PapR-252" target="CB4tVec-n4E3JrC9PapR-120">
          <mxGeometry relative="1" as="geometry" />
        </mxCell>
        <mxCell id="CB4tVec-n4E3JrC9PapR-252" value="Add" style="rounded=1;whiteSpace=wrap;html=1;fontFamily=Helvetica;fontSize=9;" vertex="1" parent="1">
          <mxGeometry x="784" y="494" width="56" height="32" as="geometry" />
        </mxCell>
        <mxCell id="CB4tVec-n4E3JrC9PapR-254" value="" style="endArrow=classic;html=1;rounded=0;strokeColor=default;fontFamily=Helvetica;fontSize=9;fontColor=default;exitX=1;exitY=0.5;exitDx=0;exitDy=0;entryX=1;entryY=0.525;entryDx=0;entryDy=0;entryPerimeter=0;" edge="1" parent="1" target="CB4tVec-n4E3JrC9PapR-120">
          <mxGeometry width="50" height="50" relative="1" as="geometry">
            <mxPoint x="840.0000000000002" y="510" as="sourcePoint" />
            <mxPoint x="860" y="512" as="targetPoint" />
          </mxGeometry>
        </mxCell>
        <mxCell id="CB4tVec-n4E3JrC9PapR-256" value="" style="endArrow=classic;html=1;rounded=0;strokeColor=default;fontFamily=Helvetica;fontSize=9;fontColor=default;entryX=0.5;entryY=1;entryDx=0;entryDy=0;edgeStyle=elbowEdgeStyle;elbow=vertical;" edge="1" parent="1">
          <mxGeometry width="50" height="50" relative="1" as="geometry">
            <mxPoint x="608" y="510" as="sourcePoint" />
            <mxPoint x="812.0000000000002" y="527" as="targetPoint" />
            <Array as="points">
              <mxPoint x="712" y="541" />
            </Array>
          </mxGeometry>
        </mxCell>
      </root>
    </mxGraphModel>
  </diagram>
</mxfile>
